%FSLAX46Y46*%
%MOMM*%
%LPD*%
G04 DaPao Space Mouse rev1.3*
G04 F.SilkS*
%ADD10C,0.15*%
D10*
X+091250000Y+059500000D02*
X+108750000Y+059500000D01*
X+108750000Y+080500000D01*
X+091250000Y+080500000D01*
X+091250000Y+059500000D01*
D10*
X+099500000Y+070000000D02*
X+100500000Y+070000000D01*
X+100000000Y+069500000D02*
X+100000000Y+070500000D01*
D10*
X+092000000Y+058000000D02*
X+108000000Y+058000000D01*
D10*
X+090750000Y+061000000D02*
X+091750000Y+061000000D01*
D10*
X+090750000Y+064000000D02*
X+091750000Y+064000000D01*
D10*
X+090750000Y+067000000D02*
X+091750000Y+067000000D01*
D10*
X+090750000Y+070000000D02*
X+091750000Y+070000000D01*
D10*
X+090750000Y+073000000D02*
X+091750000Y+073000000D01*
D10*
X+090750000Y+076000000D02*
X+091750000Y+076000000D01*
D10*
X+090750000Y+079000000D02*
X+091750000Y+079000000D01*
D10*
X+108250000Y+061000000D02*
X+109250000Y+061000000D01*
D10*
X+108250000Y+064000000D02*
X+109250000Y+064000000D01*
D10*
X+108250000Y+067000000D02*
X+109250000Y+067000000D01*
D10*
X+108250000Y+070000000D02*
X+109250000Y+070000000D01*
D10*
X+108250000Y+073000000D02*
X+109250000Y+073000000D01*
D10*
X+108250000Y+076000000D02*
X+109250000Y+076000000D01*
D10*
X+108250000Y+079000000D02*
X+109250000Y+079000000D01*
D10*
X+095500000Y+055250000D02*
X+104500000Y+055250000D01*
X+104500000Y+058750000D01*
X+095500000Y+058750000D01*
X+095500000Y+055250000D01*
D10*
X+100000000Y+054000000D02*
X+100000000Y+052000000D01*
D10*
X+099000000Y+053000000D02*
X+100000000Y+052000000D01*
D10*
X+101000000Y+053000000D02*
X+100000000Y+052000000D01*
D10*
X+096000000Y+060000000D02*
X+104000000Y+060000000D01*
D10*
X+087500000Y+087500000D02*
X+112500000Y+087500000D01*
X+112500000Y+112500000D01*
X+087500000Y+112500000D01*
X+087500000Y+087500000D01*
D10*
X+098500000Y+100000000D02*
X+101500000Y+100000000D01*
X+100000000Y+098500000D02*
X+100000000Y+101500000D01*
D10*
X+094920000Y+112500000D02*
X+094920000Y+114500000D01*
D10*
X+097460000Y+112500000D02*
X+097460000Y+114500000D01*
D10*
X+100000000Y+112500000D02*
X+100000000Y+114500000D01*
D10*
X+102540000Y+112500000D02*
X+102540000Y+114500000D01*
D10*
X+105080000Y+112500000D02*
X+105080000Y+114500000D01*
D10*
X+092000000Y+086000000D02*
X+108000000Y+086000000D01*
D10*
X+097500000Y+118250000D02*
X+102500000Y+118250000D01*
X+102500000Y+121750000D01*
X+097500000Y+121750000D01*
X+097500000Y+118250000D01*
D10*
X+096700000Y+118200000D02*
X+098300000Y+118200000D01*
X+097500000Y+119800000D01*
X+096700000Y+118200000D01*
D10*
X+098750000Y+122000000D02*
X+098750000Y+123000000D01*
D10*
X+099250000Y+122000000D02*
X+099250000Y+123000000D01*
D10*
X+099750000Y+122000000D02*
X+099750000Y+123000000D01*
D10*
X+100250000Y+122000000D02*
X+100250000Y+123000000D01*
D10*
X+100750000Y+122000000D02*
X+100750000Y+123000000D01*
D10*
X+101250000Y+122000000D02*
X+101250000Y+123000000D01*
D10*
X+097000000Y+124000000D02*
X+103000000Y+124000000D01*
D10*
X+115500000Y+078750000D02*
X+120500000Y+078750000D01*
X+120500000Y+085250000D01*
X+115500000Y+085250000D01*
X+115500000Y+078750000D01*
D10*
X+114700000Y+077950000D02*
X+116300000Y+077950000D01*
X+115500000Y+079550000D01*
X+114700000Y+077950000D01*
D10*
X+115000000Y+078000000D02*
X+121000000Y+078000000D01*
D10*
X+116500000Y+093500000D02*
X+119500000Y+093500000D01*
X+119500000Y+096500000D01*
X+116500000Y+096500000D01*
X+116500000Y+093500000D01*
D10*
X+115700000Y+092700000D02*
X+117300000Y+092700000D01*
X+116500000Y+094300000D01*
X+115700000Y+092700000D01*
D10*
X+116000000Y+092500000D02*
X+120000000Y+092500000D01*
D10*
X+116500000Y+066250000D02*
X+119500000Y+066250000D01*
X+119500000Y+069750000D01*
X+116500000Y+069750000D01*
X+116500000Y+066250000D01*
D10*
X+115700000Y+065450000D02*
X+117300000Y+065450000D01*
X+116500000Y+067050000D01*
X+115700000Y+065450000D01*
D10*
X+116000000Y+065500000D02*
X+120000000Y+065500000D01*
D10*
X+077500000Y+112000000D02*
X+086500000Y+112000000D01*
X+086500000Y+118000000D01*
X+077500000Y+118000000D01*
X+077500000Y+112000000D01*
D10*
X+076700000Y+111200000D02*
X+078300000Y+111200000D01*
X+077500000Y+112800000D01*
X+076700000Y+111200000D01*
D10*
X+080500000Y+115000000D02*
X+080500000Y+111000000D01*
D10*
X+083500000Y+115000000D02*
X+083500000Y+111000000D01*
D10*
X+077500000Y+118000000D02*
X+086500000Y+118000000D01*
D10*
X+056000000Y+097250000D02*
X+064000000Y+097250000D01*
X+064000000Y+102750000D01*
X+056000000Y+102750000D01*
X+056000000Y+097250000D01*
D10*
X+061000000Y+096000000D02*
X+066000000Y+096000000D01*
D10*
X+097500000Y+138000000D02*
X+102500000Y+138000000D01*
X+102500000Y+142000000D01*
X+097500000Y+142000000D01*
X+097500000Y+138000000D01*
D10*
X+097000000Y+143000000D02*
X+103000000Y+143000000D01*
D10*
X+110000000Y+064250000D02*
X+114000000Y+064250000D01*
X+114000000Y+067750000D01*
X+110000000Y+067750000D01*
X+110000000Y+064250000D01*
D10*
X+110000000Y+072250000D02*
X+114000000Y+072250000D01*
X+114000000Y+075750000D01*
X+110000000Y+075750000D01*
X+110000000Y+072250000D01*
%ADD10C,0.15*%
%ADD10C,0.150*%
D10*
X+127955844Y+125455844D02*
X+127917863Y+125889964D01*
X+127805075Y+126310894D01*
X+127620907Y+126705844D01*
X+127370955Y+127062813D01*
X+127062813Y+127370955D01*
X+126705844Y+127620907D01*
X+126310894Y+127805075D01*
X+125889964Y+127917863D01*
X+125455844Y+127955844D01*
X+125021723Y+127917863D01*
X+124600793Y+127805075D01*
X+124205844Y+127620907D01*
X+123848875Y+127370955D01*
X+123540733Y+127062813D01*
X+123290780Y+126705844D01*
X+123106612Y+126310894D01*
X+122993824Y+125889964D01*
X+122955844Y+125455844D01*
X+122993824Y+125021723D01*
X+123106612Y+124600793D01*
X+123290780Y+124205844D01*
X+123540733Y+123848875D01*
X+123848875Y+123540733D01*
X+124205844Y+123290780D01*
X+124600793Y+123106612D01*
X+125021723Y+122993824D01*
X+125455844Y+122955844D01*
X+125889964Y+122993824D01*
X+126310894Y+123106612D01*
X+126705844Y+123290780D01*
X+127062813Y+123540733D01*
X+127370955Y+123848875D01*
X+127620907Y+124205844D01*
X+127805075Y+124600793D01*
X+127917863Y+125021723D01*
X+127955844Y+125455844D01*
%ADD10C,0.150*%
D10*
X+077044155Y+125455844D02*
X+077006175Y+125889964D01*
X+076893387Y+126310894D01*
X+076709219Y+126705844D01*
X+076459266Y+127062813D01*
X+076151124Y+127370955D01*
X+075794155Y+127620907D01*
X+075399206Y+127805075D01*
X+074978276Y+127917863D01*
X+074544155Y+127955844D01*
X+074110035Y+127917863D01*
X+073689105Y+127805075D01*
X+073294155Y+127620907D01*
X+072937186Y+127370955D01*
X+072629044Y+127062813D01*
X+072379092Y+126705844D01*
X+072194924Y+126310894D01*
X+072082136Y+125889964D01*
X+072044155Y+125455844D01*
X+072082136Y+125021723D01*
X+072194924Y+124600793D01*
X+072379092Y+124205844D01*
X+072629044Y+123848875D01*
X+072937186Y+123540733D01*
X+073294155Y+123290780D01*
X+073689105Y+123106612D01*
X+074110035Y+122993824D01*
X+074544155Y+122955844D01*
X+074978276Y+122993824D01*
X+075399206Y+123106612D01*
X+075794155Y+123290780D01*
X+076151124Y+123540733D01*
X+076459266Y+123848875D01*
X+076709219Y+124205844D01*
X+076893387Y+124600793D01*
X+077006175Y+125021723D01*
X+077044155Y+125455844D01*
%ADD10C,0.150*%
D10*
X+077044155Y+074544155D02*
X+077006175Y+074978276D01*
X+076893387Y+075399206D01*
X+076709219Y+075794155D01*
X+076459266Y+076151124D01*
X+076151124Y+076459266D01*
X+075794155Y+076709219D01*
X+075399206Y+076893387D01*
X+074978276Y+077006175D01*
X+074544155Y+077044155D01*
X+074110035Y+077006175D01*
X+073689105Y+076893387D01*
X+073294155Y+076709219D01*
X+072937186Y+076459266D01*
X+072629044Y+076151124D01*
X+072379092Y+075794155D01*
X+072194924Y+075399206D01*
X+072082136Y+074978276D01*
X+072044155Y+074544155D01*
X+072082136Y+074110035D01*
X+072194924Y+073689105D01*
X+072379092Y+073294155D01*
X+072629044Y+072937186D01*
X+072937186Y+072629044D01*
X+073294155Y+072379092D01*
X+073689105Y+072194924D01*
X+074110035Y+072082136D01*
X+074544155Y+072044155D01*
X+074978276Y+072082136D01*
X+075399206Y+072194924D01*
X+075794155Y+072379092D01*
X+076151124Y+072629044D01*
X+076459266Y+072937186D01*
X+076709219Y+073294155D01*
X+076893387Y+073689105D01*
X+077006175Y+074110035D01*
X+077044155Y+074544155D01*
%ADD10C,0.150*%
D10*
X+127955844Y+074544155D02*
X+127917863Y+074978276D01*
X+127805075Y+075399206D01*
X+127620907Y+075794155D01*
X+127370955Y+076151124D01*
X+127062813Y+076459266D01*
X+126705844Y+076709219D01*
X+126310894Y+076893387D01*
X+125889964Y+077006175D01*
X+125455844Y+077044155D01*
X+125021723Y+077006175D01*
X+124600793Y+076893387D01*
X+124205844Y+076709219D01*
X+123848875Y+076459266D01*
X+123540733Y+076151124D01*
X+123290780Y+075794155D01*
X+123106612Y+075399206D01*
X+122993824Y+074978276D01*
X+122955844Y+074544155D01*
X+122993824Y+074110035D01*
X+123106612Y+073689105D01*
X+123290780Y+073294155D01*
X+123540733Y+072937186D01*
X+123848875Y+072629044D01*
X+124205844Y+072379092D01*
X+124600793Y+072194924D01*
X+125021723Y+072082136D01*
X+125455844Y+072044155D01*
X+125889964Y+072082136D01*
X+126310894Y+072194924D01*
X+126705844Y+072379092D01*
X+127062813Y+072629044D01*
X+127370955Y+072937186D01*
X+127620907Y+073294155D01*
X+127805075Y+073689105D01*
X+127917863Y+074110035D01*
X+127955844Y+074544155D01*
D10*
X+100000000Y+063000000D02*
X+100000000Y+059000000D01*
D10*
X+099000000Y+060000000D02*
X+100000000Y+058000000D01*
D10*
X+101000000Y+060000000D02*
X+100000000Y+058000000D01*
D10*
X+095000000Y+056500000D02*
X+105000000Y+056500000D01*
D10*
X+057000000Y+098000000D02*
X+057000000Y+102000000D01*
D10*
X+097000000Y+141500000D02*
X+103000000Y+141500000D01*
M02*
