%FSLAX46Y46*%
%MOMM*%
%LPD*%
G04 DaPao Space Mouse rev1.3*
G04 F.SilkS*
%ADD10C,0.15*%
%ADD12C,0.12*%
D10*
X+091250000Y+059500000D02*
X+108750000Y+059500000D01*
X+108750000Y+080500000D01*
X+091250000Y+080500000D01*
X+091250000Y+059500000D01*
D10*
X+099500000Y+070000000D02*
X+100500000Y+070000000D01*
X+100000000Y+069500000D02*
X+100000000Y+070500000D01*
D10*
X+097470000Y+055350000D02*
X+097470000Y+058100000D01*
X+097470000Y+058100000D02*
X+098020000Y+058650000D01*
X+098020000Y+058650000D02*
X+099120000Y+058650000D01*
X+099120000Y+058650000D02*
X+099670000Y+058100000D01*
X+099670000Y+058100000D02*
X+099670000Y+055350000D01*
X+100880000Y+055900000D02*
X+101430000Y+055350000D01*
X+101430000Y+055350000D02*
X+101430000Y+058650000D01*
X+100880000Y+058650000D02*
X+101980000Y+058650000D01*
D10*
X+086720000Y+057800000D02*
X+088320000Y+060199999D01*
X+088320000Y+057800000D02*
X+086720000Y+060199999D01*
X+089200000Y+057800000D02*
X+090000000Y+057800000D01*
X+089600000Y+057800000D02*
X+089600000Y+060199999D01*
X+089200000Y+060199999D02*
X+090000000Y+060199999D01*
X+090880000Y+060199999D02*
X+091680000Y+057800000D01*
X+091680000Y+057800000D02*
X+092479999Y+060199999D01*
X+091280000Y+059000000D02*
X+092080000Y+059000000D01*
X+093360000Y+057800000D02*
X+094160000Y+057800000D01*
X+094160000Y+057800000D02*
X+094559999Y+058199999D01*
X+094559999Y+058199999D02*
X+094559999Y+059800000D01*
X+094559999Y+059800000D02*
X+094160000Y+060199999D01*
X+094160000Y+060199999D02*
X+093360000Y+060199999D01*
X+093360000Y+060199999D02*
X+092960000Y+059800000D01*
X+092960000Y+059800000D02*
X+092960000Y+058199999D01*
X+092960000Y+058199999D02*
X+093360000Y+057800000D01*
X+097120000Y+057800000D02*
X+097120000Y+060199999D01*
X+097120000Y+057800000D02*
X+098720000Y+057800000D01*
X+097120000Y+059000000D02*
X+098320000Y+059000000D01*
X+097120000Y+060199999D02*
X+098720000Y+060199999D01*
X+100800000Y+058199999D02*
X+100400000Y+057800000D01*
X+100400000Y+057800000D02*
X+099600000Y+057800000D01*
X+099600000Y+057800000D02*
X+099200000Y+058199999D01*
X+099200000Y+058199999D02*
X+099200000Y+059000000D01*
X+099200000Y+059000000D02*
X+100800000Y+059000000D01*
X+100800000Y+059000000D02*
X+100800000Y+059800000D01*
X+100800000Y+059800000D02*
X+100400000Y+060199999D01*
X+100400000Y+060199999D02*
X+099600000Y+060199999D01*
X+099600000Y+060199999D02*
X+099200000Y+059800000D01*
X+101280000Y+057800000D02*
X+101280000Y+060199999D01*
X+101280000Y+057800000D02*
X+102480000Y+057800000D01*
X+102480000Y+057800000D02*
X+102880000Y+058199999D01*
X+102880000Y+058199999D02*
X+102880000Y+059000000D01*
X+102880000Y+059000000D02*
X+102480000Y+059000000D01*
X+102480000Y+059000000D02*
X+101280000Y+059000000D01*
X+103360000Y+058199999D02*
X+103760000Y+057800000D01*
X+103760000Y+057800000D02*
X+104560000Y+057800000D01*
X+104560000Y+057800000D02*
X+104960000Y+058199999D01*
X+104960000Y+058199999D02*
X+104960000Y+058599999D01*
X+104960000Y+058599999D02*
X+104160000Y+059000000D01*
X+104160000Y+059000000D02*
X+104960000Y+059400000D01*
X+104960000Y+059400000D02*
X+104960000Y+059800000D01*
X+104960000Y+059800000D02*
X+104560000Y+060199999D01*
X+104560000Y+060199999D02*
X+103760000Y+060199999D01*
X+103760000Y+060199999D02*
X+103360000Y+059800000D01*
X+105440000Y+058199999D02*
X+105840000Y+057800000D01*
X+105840000Y+057800000D02*
X+106640000Y+057800000D01*
X+106640000Y+057800000D02*
X+107039999Y+058199999D01*
X+107039999Y+058199999D02*
X+107039999Y+059000000D01*
X+107039999Y+059000000D02*
X+105440000Y+060199999D01*
X+105440000Y+060199999D02*
X+107039999Y+060199999D01*
X+107520000Y+059000000D02*
X+109119999Y+059000000D01*
X+111199999Y+058199999D02*
X+110800000Y+057800000D01*
X+110800000Y+057800000D02*
X+110000000Y+057800000D01*
X+110000000Y+057800000D02*
X+109600000Y+058199999D01*
X+109600000Y+058199999D02*
X+109600000Y+059000000D01*
X+109600000Y+059000000D02*
X+111199999Y+059000000D01*
X+111199999Y+059000000D02*
X+111199999Y+059800000D01*
X+111199999Y+059800000D02*
X+110800000Y+060199999D01*
X+110800000Y+060199999D02*
X+110000000Y+060199999D01*
X+110000000Y+060199999D02*
X+109600000Y+059800000D01*
X+111680000Y+058199999D02*
X+112080000Y+057800000D01*
X+112080000Y+057800000D02*
X+112880000Y+057800000D01*
X+112880000Y+057800000D02*
X+113280000Y+058199999D01*
X+113280000Y+058199999D02*
X+113280000Y+058599999D01*
X+113280000Y+058599999D02*
X+112480000Y+059000000D01*
X+112480000Y+059000000D02*
X+113280000Y+059400000D01*
X+113280000Y+059400000D02*
X+113280000Y+059800000D01*
X+113280000Y+059800000D02*
X+112880000Y+060199999D01*
X+112880000Y+060199999D02*
X+112080000Y+060199999D01*
X+112080000Y+060199999D02*
X+111680000Y+059800000D01*
D10*
X+091250000Y+061000000D02*
X+090500000Y+061000000D01*
D10*
X+084984000Y+060440000D02*
X+085264000Y+060160000D01*
X+085264000Y+060160000D02*
X+085824000Y+060160000D01*
X+085824000Y+060160000D02*
X+086104000Y+060440000D01*
X+086104000Y+060440000D02*
X+086104000Y+060720000D01*
X+086104000Y+060720000D02*
X+085544000Y+061000000D01*
X+085544000Y+061000000D02*
X+086104000Y+061279999D01*
X+086104000Y+061279999D02*
X+086104000Y+061559999D01*
X+086104000Y+061559999D02*
X+085824000Y+061840000D01*
X+085824000Y+061840000D02*
X+085264000Y+061840000D01*
X+085264000Y+061840000D02*
X+084984000Y+061559999D01*
X+086440000Y+060160000D02*
X+087000000Y+061840000D01*
X+087000000Y+061840000D02*
X+087560000Y+060160000D01*
X+087896000Y+060440000D02*
X+088176000Y+060160000D01*
X+088176000Y+060160000D02*
X+088736000Y+060160000D01*
X+088736000Y+060160000D02*
X+089016000Y+060440000D01*
X+089016000Y+060440000D02*
X+089016000Y+060720000D01*
X+089016000Y+060720000D02*
X+088456000Y+061000000D01*
X+088456000Y+061000000D02*
X+089016000Y+061279999D01*
X+089016000Y+061279999D02*
X+089016000Y+061559999D01*
X+089016000Y+061559999D02*
X+088736000Y+061840000D01*
X+088736000Y+061840000D02*
X+088176000Y+061840000D01*
X+088176000Y+061840000D02*
X+087896000Y+061559999D01*
D10*
X+091250000Y+064000000D02*
X+090500000Y+064000000D01*
D10*
X+086104000Y+063440000D02*
X+085824000Y+063160000D01*
X+085824000Y+063160000D02*
X+085264000Y+063160000D01*
X+085264000Y+063160000D02*
X+084984000Y+063440000D01*
X+084984000Y+063440000D02*
X+084984000Y+064560000D01*
X+084984000Y+064560000D02*
X+085264000Y+064840000D01*
X+085264000Y+064840000D02*
X+085824000Y+064840000D01*
X+085824000Y+064840000D02*
X+086104000Y+064560000D01*
X+086104000Y+064560000D02*
X+086104000Y+064000000D01*
X+086104000Y+064000000D02*
X+085544000Y+064000000D01*
X+086440000Y+064840000D02*
X+086440000Y+063160000D01*
X+086440000Y+063160000D02*
X+087560000Y+064840000D01*
X+087560000Y+064840000D02*
X+087560000Y+063160000D01*
X+087896000Y+063160000D02*
X+087896000Y+064840000D01*
X+087896000Y+063160000D02*
X+088456000Y+063160000D01*
X+088456000Y+063160000D02*
X+089016000Y+063720000D01*
X+089016000Y+063720000D02*
X+089016000Y+064280000D01*
X+089016000Y+064280000D02*
X+088456000Y+064840000D01*
X+088456000Y+064840000D02*
X+087896000Y+064840000D01*
D10*
X+091250000Y+067000000D02*
X+090500000Y+067000000D01*
D10*
X+082464000Y+066440000D02*
X+082184000Y+066160000D01*
X+082184000Y+066160000D02*
X+081624000Y+066160000D01*
X+081624000Y+066160000D02*
X+081344000Y+066440000D01*
X+081344000Y+066440000D02*
X+081344000Y+067560000D01*
X+081344000Y+067560000D02*
X+081624000Y+067840000D01*
X+081624000Y+067840000D02*
X+082184000Y+067840000D01*
X+082184000Y+067840000D02*
X+082464000Y+067560000D01*
X+082464000Y+067560000D02*
X+082464000Y+067000000D01*
X+082464000Y+067000000D02*
X+081904000Y+067000000D01*
X+083080000Y+066440000D02*
X+083360000Y+066160000D01*
X+083360000Y+066160000D02*
X+083360000Y+067840000D01*
X+083080000Y+067840000D02*
X+083640000Y+067840000D01*
X+084256000Y+067000000D02*
X+085376000Y+067000000D01*
X+085991999Y+066160000D02*
X+086551999Y+066160000D01*
X+086551999Y+066160000D02*
X+086551999Y+067560000D01*
X+086551999Y+067560000D02*
X+086271999Y+067840000D01*
X+086271999Y+067840000D02*
X+085991999Y+067840000D01*
X+085991999Y+067840000D02*
X+085711999Y+067560000D01*
X+087448000Y+066160000D02*
X+088008000Y+066160000D01*
X+088008000Y+066160000D02*
X+088288000Y+066440000D01*
X+088288000Y+066440000D02*
X+088288000Y+067560000D01*
X+088288000Y+067560000D02*
X+088008000Y+067840000D01*
X+088008000Y+067840000D02*
X+087448000Y+067840000D01*
X+087448000Y+067840000D02*
X+087167999Y+067560000D01*
X+087167999Y+067560000D02*
X+087167999Y+066440000D01*
X+087167999Y+066440000D02*
X+087448000Y+066160000D01*
X+088624000Y+066160000D02*
X+089184000Y+067000000D01*
X+089744000Y+066160000D02*
X+089184000Y+067000000D01*
X+089184000Y+067000000D02*
X+089184000Y+067840000D01*
X+090080000Y+067000000D02*
X+091200000Y+067000000D01*
X+091536000Y+066160000D02*
X+092656000Y+067840000D01*
X+092656000Y+066160000D02*
X+091536000Y+067840000D01*
D10*
X+091250000Y+070000000D02*
X+090500000Y+070000000D01*
D10*
X+082464000Y+069440000D02*
X+082184000Y+069160000D01*
X+082184000Y+069160000D02*
X+081624000Y+069160000D01*
X+081624000Y+069160000D02*
X+081344000Y+069440000D01*
X+081344000Y+069440000D02*
X+081344000Y+070560000D01*
X+081344000Y+070560000D02*
X+081624000Y+070840000D01*
X+081624000Y+070840000D02*
X+082184000Y+070840000D01*
X+082184000Y+070840000D02*
X+082464000Y+070560000D01*
X+082464000Y+070560000D02*
X+082464000Y+070000000D01*
X+082464000Y+070000000D02*
X+081904000Y+070000000D01*
X+082800000Y+069440000D02*
X+083080000Y+069160000D01*
X+083080000Y+069160000D02*
X+083640000Y+069160000D01*
X+083640000Y+069160000D02*
X+083920000Y+069440000D01*
X+083920000Y+069440000D02*
X+083920000Y+070000000D01*
X+083920000Y+070000000D02*
X+082800000Y+070840000D01*
X+082800000Y+070840000D02*
X+083920000Y+070840000D01*
X+084256000Y+070000000D02*
X+085376000Y+070000000D01*
X+085991999Y+069160000D02*
X+086551999Y+069160000D01*
X+086551999Y+069160000D02*
X+086551999Y+070560000D01*
X+086551999Y+070560000D02*
X+086271999Y+070840000D01*
X+086271999Y+070840000D02*
X+085991999Y+070840000D01*
X+085991999Y+070840000D02*
X+085711999Y+070560000D01*
X+087448000Y+069160000D02*
X+088008000Y+069160000D01*
X+088008000Y+069160000D02*
X+088288000Y+069440000D01*
X+088288000Y+069440000D02*
X+088288000Y+070560000D01*
X+088288000Y+070560000D02*
X+088008000Y+070840000D01*
X+088008000Y+070840000D02*
X+087448000Y+070840000D01*
X+087448000Y+070840000D02*
X+087167999Y+070560000D01*
X+087167999Y+070560000D02*
X+087167999Y+069440000D01*
X+087167999Y+069440000D02*
X+087448000Y+069160000D01*
X+088624000Y+069160000D02*
X+089184000Y+070000000D01*
X+089744000Y+069160000D02*
X+089184000Y+070000000D01*
X+089184000Y+070000000D02*
X+089184000Y+070840000D01*
X+090080000Y+070000000D02*
X+091200000Y+070000000D01*
X+091536000Y+069160000D02*
X+092096000Y+070000000D01*
X+092656000Y+069160000D02*
X+092096000Y+070000000D01*
X+092096000Y+070000000D02*
X+092096000Y+070840000D01*
D10*
X+091250000Y+073000000D02*
X+090500000Y+073000000D01*
D10*
X+081736000Y+072440000D02*
X+081456000Y+072160000D01*
X+081456000Y+072160000D02*
X+080896000Y+072160000D01*
X+080896000Y+072160000D02*
X+080616000Y+072440000D01*
X+080616000Y+072440000D02*
X+080616000Y+073560000D01*
X+080616000Y+073560000D02*
X+080896000Y+073840000D01*
X+080896000Y+073840000D02*
X+081456000Y+073840000D01*
X+081456000Y+073840000D02*
X+081736000Y+073560000D01*
X+081736000Y+073560000D02*
X+081736000Y+073000000D01*
X+081736000Y+073000000D02*
X+081176000Y+073000000D01*
X+082072000Y+072440000D02*
X+082352000Y+072160000D01*
X+082352000Y+072160000D02*
X+082912000Y+072160000D01*
X+082912000Y+072160000D02*
X+083192000Y+072440000D01*
X+083192000Y+072440000D02*
X+083192000Y+072720000D01*
X+083192000Y+072720000D02*
X+082632000Y+073000000D01*
X+082632000Y+073000000D02*
X+083192000Y+073280000D01*
X+083192000Y+073280000D02*
X+083192000Y+073560000D01*
X+083192000Y+073560000D02*
X+082912000Y+073840000D01*
X+082912000Y+073840000D02*
X+082352000Y+073840000D01*
X+082352000Y+073840000D02*
X+082072000Y+073560000D01*
X+083528000Y+073000000D02*
X+084648000Y+073000000D01*
X+085264000Y+072160000D02*
X+085824000Y+072160000D01*
X+085824000Y+072160000D02*
X+085824000Y+073560000D01*
X+085824000Y+073560000D02*
X+085544000Y+073840000D01*
X+085544000Y+073840000D02*
X+085264000Y+073840000D01*
X+085264000Y+073840000D02*
X+084984000Y+073560000D01*
X+086720000Y+072160000D02*
X+087280000Y+072160000D01*
X+087280000Y+072160000D02*
X+087560000Y+072440000D01*
X+087560000Y+072440000D02*
X+087560000Y+073560000D01*
X+087560000Y+073560000D02*
X+087280000Y+073840000D01*
X+087280000Y+073840000D02*
X+086720000Y+073840000D01*
X+086720000Y+073840000D02*
X+086440000Y+073560000D01*
X+086440000Y+073560000D02*
X+086440000Y+072440000D01*
X+086440000Y+072440000D02*
X+086720000Y+072160000D01*
X+087896000Y+072160000D02*
X+088456000Y+073000000D01*
X+089016000Y+072160000D02*
X+088456000Y+073000000D01*
X+088456000Y+073000000D02*
X+088456000Y+073840000D01*
X+089352000Y+073000000D02*
X+090472000Y+073000000D01*
X+091928000Y+072440000D02*
X+091648000Y+072160000D01*
X+091648000Y+072160000D02*
X+091088000Y+072160000D01*
X+091088000Y+072160000D02*
X+090808000Y+072440000D01*
X+090808000Y+072440000D02*
X+090808000Y+073000000D01*
X+090808000Y+073000000D02*
X+091928000Y+073000000D01*
X+091928000Y+073000000D02*
X+091928000Y+073560000D01*
X+091928000Y+073560000D02*
X+091648000Y+073840000D01*
X+091648000Y+073840000D02*
X+091088000Y+073840000D01*
X+091088000Y+073840000D02*
X+090808000Y+073560000D01*
X+092264000Y+072160000D02*
X+092544000Y+073840000D01*
X+092544000Y+073840000D02*
X+092824000Y+073000000D01*
X+092824000Y+073000000D02*
X+093104000Y+073840000D01*
X+093104000Y+073840000D02*
X+093384000Y+072160000D01*
D10*
X+091250000Y+076000000D02*
X+090500000Y+076000000D01*
D10*
X+080280000Y+075440000D02*
X+080000000Y+075160000D01*
X+080000000Y+075160000D02*
X+079440000Y+075160000D01*
X+079440000Y+075160000D02*
X+079160000Y+075440000D01*
X+079160000Y+075440000D02*
X+079160000Y+076560000D01*
X+079160000Y+076560000D02*
X+079440000Y+076840000D01*
X+079440000Y+076840000D02*
X+080000000Y+076840000D01*
X+080000000Y+076840000D02*
X+080280000Y+076560000D01*
X+080280000Y+076560000D02*
X+080280000Y+076000000D01*
X+080280000Y+076000000D02*
X+079720000Y+076000000D01*
X+080896000Y+075440000D02*
X+081176000Y+075160000D01*
X+081176000Y+075160000D02*
X+081176000Y+076840000D01*
X+080896000Y+076840000D02*
X+081456000Y+076840000D01*
X+082352000Y+075160000D02*
X+082912000Y+075160000D01*
X+082912000Y+075160000D02*
X+083192000Y+075440000D01*
X+083192000Y+075440000D02*
X+083192000Y+076560000D01*
X+083192000Y+076560000D02*
X+082912000Y+076840000D01*
X+082912000Y+076840000D02*
X+082352000Y+076840000D01*
X+082352000Y+076840000D02*
X+082072000Y+076560000D01*
X+082072000Y+076560000D02*
X+082072000Y+075440000D01*
X+082072000Y+075440000D02*
X+082352000Y+075160000D01*
X+082352000Y+075440000D02*
X+082912000Y+076560000D01*
X+083527999Y+076000000D02*
X+084648000Y+076000000D01*
X+084984000Y+076840000D02*
X+085544000Y+075160000D01*
X+085544000Y+075160000D02*
X+086104000Y+076840000D01*
X+085264000Y+076000000D02*
X+085824000Y+076000000D01*
X+086440000Y+075160000D02*
X+086440000Y+076840000D01*
X+086440000Y+075160000D02*
X+087000000Y+075160000D01*
X+087000000Y+075160000D02*
X+087560000Y+075720000D01*
X+087560000Y+075720000D02*
X+087560000Y+076280000D01*
X+087560000Y+076280000D02*
X+087000000Y+076840000D01*
X+087000000Y+076840000D02*
X+086440000Y+076840000D01*
X+089016000Y+075440000D02*
X+088736000Y+075160000D01*
X+088736000Y+075160000D02*
X+088176000Y+075160000D01*
X+088176000Y+075160000D02*
X+087896000Y+075440000D01*
X+087896000Y+075440000D02*
X+087896000Y+076560000D01*
X+087896000Y+076560000D02*
X+088176000Y+076840000D01*
X+088176000Y+076840000D02*
X+088736000Y+076840000D01*
X+088736000Y+076840000D02*
X+089016000Y+076560000D01*
X+089352000Y+076000000D02*
X+090472000Y+076000000D01*
X+090808000Y+075160000D02*
X+090808000Y+076840000D01*
X+090808000Y+075160000D02*
X+091648000Y+075160000D01*
X+090808000Y+076000000D02*
X+091648000Y+076000000D01*
X+090808000Y+076840000D02*
X+091648000Y+076840000D01*
X+091648000Y+075160000D02*
X+091928000Y+075440000D01*
X+091648000Y+076000000D02*
X+091928000Y+076280000D01*
X+091648000Y+075440000D02*
X+091648000Y+076000000D01*
X+091648000Y+076280000D02*
X+091648000Y+076840000D01*
X+092264000Y+076840000D02*
X+092824000Y+075160000D01*
X+092824000Y+075160000D02*
X+093384000Y+076840000D01*
X+092544000Y+076000000D02*
X+093104000Y+076000000D01*
X+093720000Y+075160000D02*
X+094840000Y+075160000D01*
X+094280000Y+075160000D02*
X+094280000Y+076840000D01*
D10*
X+091250000Y+079000000D02*
X+090500000Y+079000000D01*
D10*
X+086104000Y+078440000D02*
X+085824000Y+078160000D01*
X+085824000Y+078160000D02*
X+085264000Y+078160000D01*
X+085264000Y+078160000D02*
X+084984000Y+078440000D01*
X+084984000Y+078440000D02*
X+084984000Y+079560000D01*
X+084984000Y+079560000D02*
X+085264000Y+079840000D01*
X+085264000Y+079840000D02*
X+085824000Y+079840000D01*
X+085824000Y+079840000D02*
X+086104000Y+079560000D01*
X+086104000Y+079560000D02*
X+086104000Y+079000000D01*
X+086104000Y+079000000D02*
X+085544000Y+079000000D01*
X+086440000Y+079840000D02*
X+086440000Y+078160000D01*
X+086440000Y+078160000D02*
X+087560000Y+079840000D01*
X+087560000Y+079840000D02*
X+087560000Y+078160000D01*
X+087896000Y+078160000D02*
X+087896000Y+079840000D01*
X+087896000Y+078160000D02*
X+088456000Y+078160000D01*
X+088456000Y+078160000D02*
X+089016000Y+078720000D01*
X+089016000Y+078720000D02*
X+089016000Y+079280000D01*
X+089016000Y+079280000D02*
X+088456000Y+079840000D01*
X+088456000Y+079840000D02*
X+087896000Y+079840000D01*
D10*
X+108750000Y+061000000D02*
X+109500000Y+061000000D01*
D10*
X+109464000Y+060440000D02*
X+109184000Y+060160000D01*
X+109184000Y+060160000D02*
X+108624000Y+060160000D01*
X+108624000Y+060160000D02*
X+108344000Y+060440000D01*
X+108344000Y+060440000D02*
X+108344000Y+061559999D01*
X+108344000Y+061559999D02*
X+108624000Y+061840000D01*
X+108624000Y+061840000D02*
X+109184000Y+061840000D01*
X+109184000Y+061840000D02*
X+109464000Y+061559999D01*
X+109464000Y+061559999D02*
X+109464000Y+061000000D01*
X+109464000Y+061000000D02*
X+108904000Y+061000000D01*
X+110920000Y+060160000D02*
X+109800000Y+060160000D01*
X+109800000Y+060160000D02*
X+109800000Y+061000000D01*
X+109800000Y+061000000D02*
X+110640000Y+061000000D01*
X+110640000Y+061000000D02*
X+110920000Y+061279999D01*
X+110920000Y+061279999D02*
X+110920000Y+061559999D01*
X+110920000Y+061559999D02*
X+110640000Y+061840000D01*
X+110640000Y+061840000D02*
X+110080000Y+061840000D01*
X+110080000Y+061840000D02*
X+109800000Y+061559999D01*
X+111256000Y+061000000D02*
X+112376000Y+061000000D01*
X+112711999Y+060160000D02*
X+112711999Y+061840000D01*
X+112711999Y+060160000D02*
X+113551999Y+060160000D01*
X+112711999Y+061000000D02*
X+113551999Y+061000000D01*
X+112711999Y+061840000D02*
X+113551999Y+061840000D01*
X+113551999Y+060160000D02*
X+113832000Y+060440000D01*
X+113551999Y+061000000D02*
X+113832000Y+061279999D01*
X+113551999Y+060440000D02*
X+113551999Y+061000000D01*
X+113551999Y+061279999D02*
X+113551999Y+061840000D01*
X+114167999Y+060160000D02*
X+115288000Y+060160000D01*
X+114728000Y+060160000D02*
X+114728000Y+061840000D01*
X+115624000Y+061840000D02*
X+115624000Y+060160000D01*
X+115624000Y+060160000D02*
X+116744000Y+061840000D01*
X+116744000Y+061840000D02*
X+116744000Y+060160000D01*
X+117080000Y+061000000D02*
X+118200000Y+061000000D01*
X+118536000Y+060160000D02*
X+118536000Y+061840000D01*
X+118536000Y+061840000D02*
X+119656000Y+061840000D01*
D10*
X+108750000Y+064000000D02*
X+109500000Y+064000000D01*
D10*
X+109464000Y+063440000D02*
X+109184000Y+063160000D01*
X+109184000Y+063160000D02*
X+108624000Y+063160000D01*
X+108624000Y+063160000D02*
X+108344000Y+063440000D01*
X+108344000Y+063440000D02*
X+108344000Y+064560000D01*
X+108344000Y+064560000D02*
X+108624000Y+064840000D01*
X+108624000Y+064840000D02*
X+109184000Y+064840000D01*
X+109184000Y+064840000D02*
X+109464000Y+064560000D01*
X+109464000Y+064560000D02*
X+109464000Y+064000000D01*
X+109464000Y+064000000D02*
X+108904000Y+064000000D01*
X+110920000Y+063440000D02*
X+110640000Y+063160000D01*
X+110640000Y+063160000D02*
X+110080000Y+063160000D01*
X+110080000Y+063160000D02*
X+109800000Y+063440000D01*
X+109800000Y+063440000D02*
X+109800000Y+064560000D01*
X+109800000Y+064560000D02*
X+110080000Y+064840000D01*
X+110080000Y+064840000D02*
X+110640000Y+064840000D01*
X+110640000Y+064840000D02*
X+110920000Y+064560000D01*
X+110920000Y+064560000D02*
X+110920000Y+064000000D01*
X+110920000Y+064000000D02*
X+109800000Y+064000000D01*
X+111256000Y+064000000D02*
X+112376000Y+064000000D01*
X+112711999Y+063160000D02*
X+112711999Y+064840000D01*
X+112711999Y+063160000D02*
X+113551999Y+063160000D01*
X+112711999Y+064000000D02*
X+113551999Y+064000000D01*
X+112711999Y+064840000D02*
X+113551999Y+064840000D01*
X+113551999Y+063160000D02*
X+113832000Y+063440000D01*
X+113551999Y+064000000D02*
X+113832000Y+064280000D01*
X+113551999Y+063440000D02*
X+113551999Y+064000000D01*
X+113551999Y+064280000D02*
X+113551999Y+064840000D01*
X+114167999Y+063160000D02*
X+115288000Y+063160000D01*
X+114728000Y+063160000D02*
X+114728000Y+064840000D01*
X+115624000Y+064840000D02*
X+115624000Y+063160000D01*
X+115624000Y+063160000D02*
X+116744000Y+064840000D01*
X+116744000Y+064840000D02*
X+116744000Y+063160000D01*
X+117080000Y+064000000D02*
X+118200000Y+064000000D01*
X+118536000Y+063160000D02*
X+118536000Y+064840000D01*
X+118536000Y+063160000D02*
X+119376000Y+063160000D01*
X+119376000Y+063160000D02*
X+119656000Y+063440000D01*
X+119656000Y+063440000D02*
X+119656000Y+064000000D01*
X+119656000Y+064000000D02*
X+119376000Y+064000000D01*
X+119376000Y+064000000D02*
X+118536000Y+064000000D01*
X+119096000Y+064000000D02*
X+119656000Y+064840000D01*
D10*
X+108750000Y+067000000D02*
X+109500000Y+067000000D01*
D10*
X+108736000Y+066440000D02*
X+108456000Y+066160000D01*
X+108456000Y+066160000D02*
X+107896000Y+066160000D01*
X+107896000Y+066160000D02*
X+107616000Y+066440000D01*
X+107616000Y+066440000D02*
X+107616000Y+067560000D01*
X+107616000Y+067560000D02*
X+107896000Y+067840000D01*
X+107896000Y+067840000D02*
X+108456000Y+067840000D01*
X+108456000Y+067840000D02*
X+108736000Y+067560000D01*
X+108736000Y+067560000D02*
X+108736000Y+067000000D01*
X+108736000Y+067000000D02*
X+108176000Y+067000000D01*
X+109072000Y+066160000D02*
X+110192000Y+066160000D01*
X+110192000Y+066160000D02*
X+109632000Y+067840000D01*
X+110528000Y+067000000D02*
X+111648000Y+067000000D01*
X+111984000Y+066160000D02*
X+111984000Y+067840000D01*
X+111984000Y+066160000D02*
X+112824000Y+066160000D01*
X+111984000Y+067000000D02*
X+112824000Y+067000000D01*
X+111984000Y+067840000D02*
X+112824000Y+067840000D01*
X+112824000Y+066160000D02*
X+113104000Y+066440000D01*
X+112824000Y+067000000D02*
X+113104000Y+067280000D01*
X+112824000Y+066440000D02*
X+112824000Y+067000000D01*
X+112824000Y+067280000D02*
X+112824000Y+067840000D01*
X+113440000Y+066160000D02*
X+114560000Y+066160000D01*
X+114000000Y+066160000D02*
X+114000000Y+067840000D01*
X+114896000Y+067840000D02*
X+114896000Y+066160000D01*
X+114896000Y+066160000D02*
X+116016000Y+067840000D01*
X+116016000Y+067840000D02*
X+116016000Y+066160000D01*
X+116352000Y+067000000D02*
X+117472000Y+067000000D01*
X+117808000Y+066160000D02*
X+117808000Y+067840000D01*
X+117808000Y+066160000D02*
X+118648000Y+066160000D01*
X+117808000Y+067000000D02*
X+118648000Y+067000000D01*
X+117808000Y+067840000D02*
X+118648000Y+067840000D01*
X+118648000Y+066160000D02*
X+118928000Y+066440000D01*
X+118648000Y+067000000D02*
X+118928000Y+067280000D01*
X+118648000Y+066440000D02*
X+118648000Y+067000000D01*
X+118648000Y+067280000D02*
X+118648000Y+067840000D01*
X+119264000Y+066160000D02*
X+119264000Y+067840000D01*
X+119264000Y+067000000D02*
X+120384000Y+066160000D01*
X+119264000Y+067000000D02*
X+120384000Y+067840000D01*
D10*
X+108750000Y+070000000D02*
X+109500000Y+070000000D01*
D10*
X+108736000Y+069440000D02*
X+108456000Y+069160000D01*
X+108456000Y+069160000D02*
X+107896000Y+069160000D01*
X+107896000Y+069160000D02*
X+107616000Y+069440000D01*
X+107616000Y+069440000D02*
X+107616000Y+070560000D01*
X+107616000Y+070560000D02*
X+107896000Y+070840000D01*
X+107896000Y+070840000D02*
X+108456000Y+070840000D01*
X+108456000Y+070840000D02*
X+108736000Y+070560000D01*
X+108736000Y+070560000D02*
X+108736000Y+070000000D01*
X+108736000Y+070000000D02*
X+108176000Y+070000000D01*
X+109352000Y+069160000D02*
X+109912000Y+069160000D01*
X+109912000Y+069160000D02*
X+110192000Y+069440000D01*
X+110192000Y+069440000D02*
X+110192000Y+069720000D01*
X+110192000Y+069720000D02*
X+109912000Y+070000000D01*
X+109912000Y+070000000D02*
X+110192000Y+070280000D01*
X+110192000Y+070280000D02*
X+110192000Y+070560000D01*
X+110192000Y+070560000D02*
X+109912000Y+070840000D01*
X+109912000Y+070840000D02*
X+109352000Y+070840000D01*
X+109352000Y+070840000D02*
X+109072000Y+070560000D01*
X+109072000Y+070560000D02*
X+109072000Y+070280000D01*
X+109072000Y+070280000D02*
X+109352000Y+070000000D01*
X+109352000Y+070000000D02*
X+109072000Y+069720000D01*
X+109072000Y+069720000D02*
X+109072000Y+069440000D01*
X+109072000Y+069440000D02*
X+109352000Y+069160000D01*
X+110528000Y+070000000D02*
X+111648000Y+070000000D01*
X+111984000Y+069160000D02*
X+111984000Y+070840000D01*
X+111984000Y+069160000D02*
X+112824000Y+069160000D01*
X+111984000Y+070000000D02*
X+112824000Y+070000000D01*
X+111984000Y+070840000D02*
X+112824000Y+070840000D01*
X+112824000Y+069160000D02*
X+113104000Y+069440000D01*
X+112824000Y+070000000D02*
X+113104000Y+070280000D01*
X+112824000Y+069440000D02*
X+112824000Y+070000000D01*
X+112824000Y+070280000D02*
X+112824000Y+070840000D01*
X+113440000Y+069160000D02*
X+114560000Y+069160000D01*
X+114000000Y+069160000D02*
X+114000000Y+070840000D01*
X+114896000Y+070840000D02*
X+114896000Y+069160000D01*
X+114896000Y+069160000D02*
X+116016000Y+070840000D01*
X+116016000Y+070840000D02*
X+116016000Y+069160000D01*
X+116352000Y+070000000D02*
X+117472000Y+070000000D01*
X+117808000Y+069160000D02*
X+117808000Y+070840000D01*
X+117808000Y+069160000D02*
X+118928000Y+069160000D01*
X+117808000Y+070000000D02*
X+118648000Y+070000000D01*
X+119264000Y+069160000D02*
X+119544000Y+070840000D01*
X+119544000Y+070840000D02*
X+119824000Y+070000000D01*
X+119824000Y+070000000D02*
X+120104000Y+070840000D01*
X+120104000Y+070840000D02*
X+120384000Y+069160000D01*
D10*
X+108750000Y+073000000D02*
X+109500000Y+073000000D01*
D10*
X+108008000Y+072440000D02*
X+107728000Y+072160000D01*
X+107728000Y+072160000D02*
X+107168000Y+072160000D01*
X+107168000Y+072160000D02*
X+106888000Y+072440000D01*
X+106888000Y+072440000D02*
X+106888000Y+073560000D01*
X+106888000Y+073560000D02*
X+107168000Y+073840000D01*
X+107168000Y+073840000D02*
X+107728000Y+073840000D01*
X+107728000Y+073840000D02*
X+108008000Y+073560000D01*
X+108008000Y+073560000D02*
X+108008000Y+073000000D01*
X+108008000Y+073000000D02*
X+107448000Y+073000000D01*
X+109464000Y+073000000D02*
X+108344000Y+073000000D01*
X+108344000Y+073000000D02*
X+108344000Y+072440000D01*
X+108344000Y+072440000D02*
X+108624000Y+072160000D01*
X+108624000Y+072160000D02*
X+109184000Y+072160000D01*
X+109184000Y+072160000D02*
X+109464000Y+072440000D01*
X+109464000Y+072440000D02*
X+109464000Y+073560000D01*
X+109464000Y+073560000D02*
X+109184000Y+073840000D01*
X+109184000Y+073840000D02*
X+108624000Y+073840000D01*
X+108624000Y+073840000D02*
X+108344000Y+073560000D01*
X+109800000Y+073000000D02*
X+110920000Y+073000000D01*
X+111256000Y+072160000D02*
X+111256000Y+073840000D01*
X+111256000Y+072160000D02*
X+112096000Y+072160000D01*
X+111256000Y+073000000D02*
X+112096000Y+073000000D01*
X+111256000Y+073840000D02*
X+112096000Y+073840000D01*
X+112096000Y+072160000D02*
X+112376000Y+072440000D01*
X+112096000Y+073000000D02*
X+112376000Y+073280000D01*
X+112096000Y+072440000D02*
X+112096000Y+073000000D01*
X+112096000Y+073280000D02*
X+112096000Y+073840000D01*
X+112712000Y+072160000D02*
X+113832000Y+072160000D01*
X+113272000Y+072160000D02*
X+113272000Y+073840000D01*
X+114168000Y+073000000D02*
X+115288000Y+073000000D01*
X+116744000Y+072440000D02*
X+116464000Y+072160000D01*
X+116464000Y+072160000D02*
X+115904000Y+072160000D01*
X+115904000Y+072160000D02*
X+115624000Y+072440000D01*
X+115624000Y+072440000D02*
X+115624000Y+073000000D01*
X+115624000Y+073000000D02*
X+116744000Y+073000000D01*
X+116744000Y+073000000D02*
X+116744000Y+073560000D01*
X+116744000Y+073560000D02*
X+116464000Y+073840000D01*
X+116464000Y+073840000D02*
X+115904000Y+073840000D01*
X+115904000Y+073840000D02*
X+115624000Y+073560000D01*
X+117080000Y+072160000D02*
X+117640000Y+073000000D01*
X+118200000Y+072160000D02*
X+117640000Y+073000000D01*
X+117640000Y+073000000D02*
X+117640000Y+073840000D01*
X+118536000Y+073840000D02*
X+118536000Y+072160000D01*
X+118536000Y+072160000D02*
X+119656000Y+073840000D01*
X+119656000Y+073840000D02*
X+119656000Y+072160000D01*
X+121112000Y+072440000D02*
X+120832000Y+072160000D01*
X+120832000Y+072160000D02*
X+120272000Y+072160000D01*
X+120272000Y+072160000D02*
X+119992000Y+072440000D01*
X+119992000Y+072440000D02*
X+119992000Y+073560000D01*
X+119992000Y+073560000D02*
X+120272000Y+073840000D01*
X+120272000Y+073840000D02*
X+120832000Y+073840000D01*
X+120832000Y+073840000D02*
X+121112000Y+073560000D01*
D10*
X+108750000Y+076000000D02*
X+109500000Y+076000000D01*
D10*
X+111984000Y+075440000D02*
X+112264000Y+075160000D01*
X+112264000Y+075160000D02*
X+112824000Y+075160000D01*
X+112824000Y+075160000D02*
X+113104000Y+075440000D01*
X+113104000Y+075440000D02*
X+113104000Y+075720000D01*
X+113104000Y+075720000D02*
X+112544000Y+076000000D01*
X+112544000Y+076000000D02*
X+113104000Y+076280000D01*
X+113104000Y+076280000D02*
X+113104000Y+076560000D01*
X+113104000Y+076560000D02*
X+112824000Y+076840000D01*
X+112824000Y+076840000D02*
X+112264000Y+076840000D01*
X+112264000Y+076840000D02*
X+111984000Y+076560000D01*
X+113440000Y+075160000D02*
X+114000000Y+076840000D01*
X+114000000Y+076840000D02*
X+114560000Y+075160000D01*
X+114896000Y+075440000D02*
X+115176000Y+075160000D01*
X+115176000Y+075160000D02*
X+115736000Y+075160000D01*
X+115736000Y+075160000D02*
X+116016000Y+075440000D01*
X+116016000Y+075440000D02*
X+116016000Y+075720000D01*
X+116016000Y+075720000D02*
X+115456000Y+076000000D01*
X+115456000Y+076000000D02*
X+116016000Y+076280000D01*
X+116016000Y+076280000D02*
X+116016000Y+076560000D01*
X+116016000Y+076560000D02*
X+115736000Y+076840000D01*
X+115736000Y+076840000D02*
X+115176000Y+076840000D01*
X+115176000Y+076840000D02*
X+114896000Y+076560000D01*
D10*
X+108750000Y+079000000D02*
X+109500000Y+079000000D01*
D10*
X+113104000Y+078440000D02*
X+112824000Y+078160000D01*
X+112824000Y+078160000D02*
X+112264000Y+078160000D01*
X+112264000Y+078160000D02*
X+111984000Y+078440000D01*
X+111984000Y+078440000D02*
X+111984000Y+079560000D01*
X+111984000Y+079560000D02*
X+112264000Y+079840000D01*
X+112264000Y+079840000D02*
X+112824000Y+079840000D01*
X+112824000Y+079840000D02*
X+113104000Y+079560000D01*
X+113104000Y+079560000D02*
X+113104000Y+079000000D01*
X+113104000Y+079000000D02*
X+112544000Y+079000000D01*
X+113440000Y+079840000D02*
X+113440000Y+078160000D01*
X+113440000Y+078160000D02*
X+114560000Y+079840000D01*
X+114560000Y+079840000D02*
X+114560000Y+078160000D01*
X+114896000Y+078160000D02*
X+114896000Y+079840000D01*
X+114896000Y+078160000D02*
X+115456000Y+078160000D01*
X+115456000Y+078160000D02*
X+116016000Y+078720000D01*
X+116016000Y+078720000D02*
X+116016000Y+079280000D01*
X+116016000Y+079280000D02*
X+115456000Y+079840000D01*
X+115456000Y+079840000D02*
X+114896000Y+079840000D01*
D10*
X+095500000Y+055250000D02*
X+104500000Y+055250000D01*
X+104500000Y+058750000D01*
X+095500000Y+058750000D01*
X+095500000Y+055250000D01*
D10*
X+084180000Y+059450000D02*
X+084880000Y+059450000D01*
X+084880000Y+059450000D02*
X+084880000Y+061200000D01*
X+084880000Y+061200000D02*
X+084530000Y+061550000D01*
X+084530000Y+061550000D02*
X+084180000Y+061550000D01*
X+084180000Y+061550000D02*
X+083830000Y+061200000D01*
X+085999999Y+059800000D02*
X+086350000Y+059450000D01*
X+086350000Y+059450000D02*
X+086350000Y+061550000D01*
X+085999999Y+061550000D02*
X+086699999Y+061550000D01*
X+089289999Y+059450000D02*
X+089289999Y+061200000D01*
X+089289999Y+061200000D02*
X+089639999Y+061550000D01*
X+089639999Y+061550000D02*
X+090339999Y+061550000D01*
X+090339999Y+061550000D02*
X+090690000Y+061200000D01*
X+090690000Y+061200000D02*
X+090690000Y+059450000D01*
X+092510000Y+059800000D02*
X+092160000Y+059450000D01*
X+092160000Y+059450000D02*
X+091460000Y+059450000D01*
X+091460000Y+059450000D02*
X+091110000Y+059800000D01*
X+091110000Y+059800000D02*
X+091110000Y+060500000D01*
X+091110000Y+060500000D02*
X+092510000Y+060500000D01*
X+092510000Y+060500000D02*
X+092510000Y+061200000D01*
X+092510000Y+061200000D02*
X+092160000Y+061550000D01*
X+092160000Y+061550000D02*
X+091460000Y+061550000D01*
X+091460000Y+061550000D02*
X+091110000Y+061200000D01*
X+092930000Y+059450000D02*
X+092930000Y+061550000D01*
X+092930000Y+059450000D02*
X+093979999Y+059450000D01*
X+092930000Y+060500000D02*
X+093979999Y+060500000D01*
X+092930000Y+061550000D02*
X+093979999Y+061550000D01*
X+093979999Y+059450000D02*
X+094330000Y+059800000D01*
X+093979999Y+060500000D02*
X+094330000Y+060850000D01*
X+093979999Y+059800000D02*
X+093979999Y+060500000D01*
X+093979999Y+060850000D02*
X+093979999Y+061550000D01*
X+094750000Y+060500000D02*
X+096150000Y+060500000D01*
X+097970000Y+059800000D02*
X+097619999Y+059450000D01*
X+097619999Y+059450000D02*
X+096919999Y+059450000D01*
X+096919999Y+059450000D02*
X+096570000Y+059800000D01*
X+096570000Y+059800000D02*
X+096570000Y+061200000D01*
X+096570000Y+061200000D02*
X+096919999Y+061550000D01*
X+096919999Y+061550000D02*
X+097619999Y+061550000D01*
X+097619999Y+061550000D02*
X+097970000Y+061200000D01*
X+101610000Y+059800000D02*
X+101259999Y+059450000D01*
X+101259999Y+059450000D02*
X+100559999Y+059450000D01*
X+100559999Y+059450000D02*
X+100210000Y+059800000D01*
X+100210000Y+059800000D02*
X+100210000Y+061200000D01*
X+100210000Y+061200000D02*
X+100559999Y+061550000D01*
X+100559999Y+061550000D02*
X+101259999Y+061550000D01*
X+101259999Y+061550000D02*
X+101610000Y+061200000D01*
X+102030000Y+059450000D02*
X+102030000Y+061550000D01*
X+103430000Y+059450000D02*
X+103430000Y+061550000D01*
X+102030000Y+060500000D02*
X+103430000Y+060500000D01*
X+103850000Y+059450000D02*
X+103850000Y+061550000D01*
X+103850000Y+059450000D02*
X+104899999Y+059450000D01*
X+104899999Y+059450000D02*
X+105250000Y+059800000D01*
X+105250000Y+059800000D02*
X+105250000Y+060500000D01*
X+105250000Y+060500000D02*
X+104899999Y+060500000D01*
X+104899999Y+060500000D02*
X+103850000Y+060500000D01*
X+104550000Y+060500000D02*
X+105250000Y+061550000D01*
X+107070000Y+059800000D02*
X+106719999Y+059450000D01*
X+106719999Y+059450000D02*
X+106019999Y+059450000D01*
X+106019999Y+059450000D02*
X+105669999Y+059800000D01*
X+105669999Y+059800000D02*
X+105669999Y+061200000D01*
X+105669999Y+061200000D02*
X+106019999Y+061550000D01*
X+106019999Y+061550000D02*
X+106719999Y+061550000D01*
X+106719999Y+061550000D02*
X+107070000Y+061200000D01*
X+107070000Y+061200000D02*
X+107070000Y+060500000D01*
X+107070000Y+060500000D02*
X+106369999Y+060500000D01*
X+108190000Y+059800000D02*
X+108190000Y+061200000D01*
X+107490000Y+060500000D02*
X+108890000Y+060500000D01*
X+109310000Y+059450000D02*
X+109310000Y+061550000D01*
X+109310000Y+059450000D02*
X+110010000Y+059450000D01*
X+110010000Y+059450000D02*
X+110710000Y+060150000D01*
X+110710000Y+060150000D02*
X+110710000Y+060850000D01*
X+110710000Y+060850000D02*
X+110010000Y+061550000D01*
X+110010000Y+061550000D02*
X+109310000Y+061550000D01*
X+111130000Y+061550000D02*
X+111830000Y+059450000D01*
X+111830000Y+059450000D02*
X+112530000Y+061550000D01*
X+111479999Y+060500000D02*
X+112180000Y+060500000D01*
X+112949999Y+059450000D02*
X+114350000Y+059450000D01*
X+113649999Y+059450000D02*
X+113649999Y+061550000D01*
X+114770000Y+061550000D02*
X+115470000Y+059450000D01*
X+115470000Y+059450000D02*
X+116170000Y+061550000D01*
X+115119999Y+060500000D02*
X+115820000Y+060500000D01*
D10*
X+090072000Y+056160000D02*
X+090072000Y+057840000D01*
X+090072000Y+056160000D02*
X+091192000Y+056160000D01*
X+090072000Y+057000000D02*
X+090912000Y+057000000D01*
X+091808000Y+056160000D02*
X+092368000Y+056160000D01*
X+092368000Y+056160000D02*
X+092648000Y+056440000D01*
X+092648000Y+056440000D02*
X+092648000Y+057559999D01*
X+092648000Y+057559999D02*
X+092368000Y+057840000D01*
X+092368000Y+057840000D02*
X+091808000Y+057840000D01*
X+091808000Y+057840000D02*
X+091528000Y+057559999D01*
X+091528000Y+057559999D02*
X+091528000Y+056440000D01*
X+091528000Y+056440000D02*
X+091808000Y+056160000D01*
X+092984000Y+056160000D02*
X+092984000Y+057840000D01*
X+092984000Y+056160000D02*
X+093824000Y+056160000D01*
X+093824000Y+056160000D02*
X+094104000Y+056440000D01*
X+094104000Y+056440000D02*
X+094104000Y+057000000D01*
X+094104000Y+057000000D02*
X+093824000Y+057000000D01*
X+093824000Y+057000000D02*
X+092984000Y+057000000D01*
X+093544000Y+057000000D02*
X+094104000Y+057840000D01*
X+094440000Y+056160000D02*
X+094720000Y+057840000D01*
X+094720000Y+057840000D02*
X+095000000Y+057000000D01*
X+095000000Y+057000000D02*
X+095280000Y+057840000D01*
X+095280000Y+057840000D02*
X+095560000Y+056160000D01*
X+095896000Y+057840000D02*
X+096456000Y+056160000D01*
X+096456000Y+056160000D02*
X+097016000Y+057840000D01*
X+096176000Y+057000000D02*
X+096736000Y+057000000D01*
X+097352000Y+056160000D02*
X+097352000Y+057840000D01*
X+097352000Y+056160000D02*
X+098192000Y+056160000D01*
X+098192000Y+056160000D02*
X+098472000Y+056440000D01*
X+098472000Y+056440000D02*
X+098472000Y+057000000D01*
X+098472000Y+057000000D02*
X+098192000Y+057000000D01*
X+098192000Y+057000000D02*
X+097352000Y+057000000D01*
X+097912000Y+057000000D02*
X+098472000Y+057840000D01*
X+098808000Y+056160000D02*
X+098808000Y+057840000D01*
X+098808000Y+056160000D02*
X+099368000Y+056160000D01*
X+099368000Y+056160000D02*
X+099928000Y+056720000D01*
X+099928000Y+056720000D02*
X+099928000Y+057279999D01*
X+099928000Y+057279999D02*
X+099368000Y+057840000D01*
X+099368000Y+057840000D02*
X+098808000Y+057840000D01*
D10*
X+100000000Y+054500000D02*
X+100000000Y+052500000D01*
D10*
X+099200000Y+053200000D02*
X+100000000Y+052500000D01*
D10*
X+100800000Y+053200000D02*
X+100000000Y+052500000D01*
D10*
X+099200000Y+052699999D02*
X+099200000Y+050300000D01*
X+099200000Y+050300000D02*
X+100800000Y+052699999D01*
X+100800000Y+052699999D02*
X+100800000Y+050300000D01*
D10*
X+090900000Y+089150000D02*
X+109100000Y+089150000D01*
X+109100000Y+110850000D01*
X+090900000Y+110850000D01*
X+090900000Y+089150000D01*
D10*
X+098500000Y+100000000D02*
X+101500000Y+100000000D01*
X+100000000Y+098500000D02*
X+100000000Y+101500000D01*
D10*
X+086476000Y+095740000D02*
X+087316000Y+095740000D01*
X+087316000Y+095740000D02*
X+087316000Y+097839999D01*
X+087316000Y+097839999D02*
X+086896000Y+098259999D01*
X+086896000Y+098259999D02*
X+086476000Y+098259999D01*
X+086476000Y+098259999D02*
X+086056000Y+097839999D01*
X+089500000Y+095740000D02*
X+088240000Y+097420000D01*
X+088240000Y+097420000D02*
X+089920000Y+097420000D01*
X+089920000Y+097420000D02*
X+089920000Y+095740000D01*
X+089920000Y+097420000D02*
X+089920000Y+098259999D01*
X+092608000Y+098259999D02*
X+093448000Y+095740000D01*
X+093448000Y+095740000D02*
X+094288000Y+098259999D01*
X+093028000Y+097000000D02*
X+093868000Y+097000000D01*
X+094792000Y+095740000D02*
X+094792000Y+098259999D01*
X+094792000Y+098259999D02*
X+096472000Y+098259999D01*
X+096976000Y+095740000D02*
X+096976000Y+098259999D01*
X+096976000Y+095740000D02*
X+098236000Y+095740000D01*
X+098236000Y+095740000D02*
X+098656000Y+096160000D01*
X+098656000Y+096160000D02*
X+098656000Y+097000000D01*
X+098656000Y+097000000D02*
X+098236000Y+097000000D01*
X+098236000Y+097000000D02*
X+096976000Y+097000000D01*
X+100840000Y+096160000D02*
X+100420000Y+095740000D01*
X+100420000Y+095740000D02*
X+099580000Y+095740000D01*
X+099580000Y+095740000D02*
X+099160000Y+096160000D01*
X+099160000Y+096160000D02*
X+099160000Y+097000000D01*
X+099160000Y+097000000D02*
X+100840000Y+097000000D01*
X+100840000Y+097000000D02*
X+100840000Y+097839999D01*
X+100840000Y+097839999D02*
X+100420000Y+098259999D01*
X+100420000Y+098259999D02*
X+099580000Y+098259999D01*
X+099580000Y+098259999D02*
X+099160000Y+097839999D01*
X+103527999Y+095740000D02*
X+103527999Y+098259999D01*
X+103527999Y+095740000D02*
X+104788000Y+095740000D01*
X+104788000Y+095740000D02*
X+105208000Y+096160000D01*
X+105208000Y+096160000D02*
X+105208000Y+097000000D01*
X+105208000Y+097000000D02*
X+104788000Y+097000000D01*
X+104788000Y+097000000D02*
X+103527999Y+097000000D01*
X+104368000Y+097000000D02*
X+105208000Y+098259999D01*
X+105712000Y+095740000D02*
X+105712000Y+098259999D01*
X+105712000Y+097000000D02*
X+107392000Y+095740000D01*
X+105712000Y+097000000D02*
X+107392000Y+098259999D01*
X+108316000Y+095740000D02*
X+109156000Y+095740000D01*
X+109156000Y+095740000D02*
X+109156000Y+097839999D01*
X+109156000Y+097839999D02*
X+108736000Y+098259999D01*
X+108736000Y+098259999D02*
X+108316000Y+098259999D01*
X+108316000Y+098259999D02*
X+107896000Y+097839999D01*
X+110080000Y+095740000D02*
X+111760000Y+098259999D01*
X+111760000Y+095740000D02*
X+110080000Y+098259999D01*
X+112264000Y+095740000D02*
X+113104000Y+098259999D01*
X+113104000Y+098259999D02*
X+113944000Y+095740000D01*
D10*
X+089376000Y+098040000D02*
X+089376000Y+099960000D01*
X+089376000Y+098040000D02*
X+090016000Y+098040000D01*
X+090016000Y+098040000D02*
X+090656000Y+098680000D01*
X+090656000Y+098680000D02*
X+090656000Y+099320000D01*
X+090656000Y+099320000D02*
X+090016000Y+099960000D01*
X+090016000Y+099960000D02*
X+089376000Y+099960000D01*
X+091360000Y+098040000D02*
X+092000000Y+098040000D01*
X+091680000Y+098040000D02*
X+091680000Y+099960000D01*
X+091360000Y+099960000D02*
X+092000000Y+099960000D01*
X+092704000Y+098040000D02*
X+092704000Y+099960000D01*
X+092704000Y+098040000D02*
X+093664000Y+098040000D01*
X+093664000Y+098040000D02*
X+093984000Y+098360000D01*
X+093984000Y+098360000D02*
X+093984000Y+099000000D01*
X+093984000Y+099000000D02*
X+093664000Y+099000000D01*
X+093664000Y+099000000D02*
X+092704000Y+099000000D01*
X+093344000Y+099000000D02*
X+093984000Y+099960000D01*
X+094368000Y+098040000D02*
X+094368000Y+099960000D01*
X+094368000Y+098040000D02*
X+095648000Y+098040000D01*
X+094368000Y+099000000D02*
X+095328000Y+099000000D01*
X+094368000Y+099960000D02*
X+095648000Y+099960000D01*
X+097312000Y+098360000D02*
X+096992000Y+098040000D01*
X+096992000Y+098040000D02*
X+096352000Y+098040000D01*
X+096352000Y+098040000D02*
X+096032000Y+098360000D01*
X+096032000Y+098360000D02*
X+096032000Y+099640000D01*
X+096032000Y+099640000D02*
X+096352000Y+099960000D01*
X+096352000Y+099960000D02*
X+096992000Y+099960000D01*
X+096992000Y+099960000D02*
X+097312000Y+099640000D01*
X+097696000Y+098040000D02*
X+098976000Y+098040000D01*
X+098336000Y+098040000D02*
X+098336000Y+099960000D01*
X+102304000Y+098360000D02*
X+101984000Y+098040000D01*
X+101984000Y+098040000D02*
X+101344000Y+098040000D01*
X+101344000Y+098040000D02*
X+101024000Y+098360000D01*
X+101024000Y+098360000D02*
X+101024000Y+099000000D01*
X+101024000Y+099000000D02*
X+102304000Y+099000000D01*
X+102304000Y+099000000D02*
X+102304000Y+099640000D01*
X+102304000Y+099640000D02*
X+101984000Y+099960000D01*
X+101984000Y+099960000D02*
X+101344000Y+099960000D01*
X+101344000Y+099960000D02*
X+101024000Y+099640000D01*
X+103008000Y+098040000D02*
X+103648000Y+098040000D01*
X+103648000Y+098040000D02*
X+103968000Y+098360000D01*
X+103968000Y+098360000D02*
X+103968000Y+099640000D01*
X+103968000Y+099640000D02*
X+103648000Y+099960000D01*
X+103648000Y+099960000D02*
X+103008000Y+099960000D01*
X+103008000Y+099960000D02*
X+102688000Y+099640000D01*
X+102688000Y+099640000D02*
X+102688000Y+098360000D01*
X+102688000Y+098360000D02*
X+103008000Y+098040000D01*
X+104352000Y+098040000D02*
X+104352000Y+099960000D01*
X+104352000Y+099960000D02*
X+105632000Y+099960000D01*
X+106016000Y+098040000D02*
X+106016000Y+099960000D01*
X+106016000Y+098040000D02*
X+106656000Y+098040000D01*
X+106656000Y+098040000D02*
X+107296000Y+098680000D01*
X+107296000Y+098680000D02*
X+107296000Y+099320000D01*
X+107296000Y+099320000D02*
X+106656000Y+099960000D01*
X+106656000Y+099960000D02*
X+106016000Y+099960000D01*
X+107680000Y+098040000D02*
X+107680000Y+099960000D01*
X+107680000Y+098040000D02*
X+108960000Y+098040000D01*
X+107680000Y+099000000D02*
X+108640000Y+099000000D01*
X+107680000Y+099960000D02*
X+108960000Y+099960000D01*
X+109344000Y+098040000D02*
X+109344000Y+099960000D01*
X+109344000Y+098040000D02*
X+110304000Y+098040000D01*
X+110304000Y+098040000D02*
X+110624000Y+098360000D01*
X+110624000Y+098360000D02*
X+110624000Y+099000000D01*
X+110624000Y+099000000D02*
X+110304000Y+099000000D01*
X+110304000Y+099000000D02*
X+109344000Y+099000000D01*
X+109984000Y+099000000D02*
X+110624000Y+099960000D01*
D10*
X+093600000Y+093000000D02*
X+093600000Y+090500000D01*
D10*
X+091800000Y+089000000D02*
X+092050000Y+088750000D01*
X+092050000Y+088750000D02*
X+092550000Y+088750000D01*
X+092550000Y+088750000D02*
X+092800000Y+089000000D01*
X+092800000Y+089000000D02*
X+092800000Y+089250000D01*
X+092800000Y+089250000D02*
X+092300000Y+089500000D01*
X+092300000Y+089500000D02*
X+092800000Y+089750000D01*
X+092800000Y+089750000D02*
X+092800000Y+090000000D01*
X+092800000Y+090000000D02*
X+092550000Y+090250000D01*
X+092550000Y+090250000D02*
X+092050000Y+090250000D01*
X+092050000Y+090250000D02*
X+091800000Y+090000000D01*
X+093100000Y+088750000D02*
X+093600000Y+090250000D01*
X+093600000Y+090250000D02*
X+094100000Y+088750000D01*
X+094399999Y+089000000D02*
X+094649999Y+088750000D01*
X+094649999Y+088750000D02*
X+095149999Y+088750000D01*
X+095149999Y+088750000D02*
X+095399999Y+089000000D01*
X+095399999Y+089000000D02*
X+095399999Y+089250000D01*
X+095399999Y+089250000D02*
X+094899999Y+089500000D01*
X+094899999Y+089500000D02*
X+095399999Y+089750000D01*
X+095399999Y+089750000D02*
X+095399999Y+090000000D01*
X+095399999Y+090000000D02*
X+095149999Y+090250000D01*
X+095149999Y+090250000D02*
X+094649999Y+090250000D01*
X+094649999Y+090250000D02*
X+094399999Y+090000000D01*
D10*
X+097000000Y+093000000D02*
X+097000000Y+090500000D01*
D10*
X+094150000Y+088750000D02*
X+094650000Y+088750000D01*
X+094650000Y+088750000D02*
X+094650000Y+090000000D01*
X+094650000Y+090000000D02*
X+094400000Y+090250000D01*
X+094400000Y+090250000D02*
X+094150000Y+090250000D01*
X+094150000Y+090250000D02*
X+093900000Y+090000000D01*
X+095450000Y+088750000D02*
X+095950000Y+088750000D01*
X+095950000Y+088750000D02*
X+096200000Y+089000000D01*
X+096200000Y+089000000D02*
X+096200000Y+090000000D01*
X+096200000Y+090000000D02*
X+095950000Y+090250000D01*
X+095950000Y+090250000D02*
X+095450000Y+090250000D01*
X+095450000Y+090250000D02*
X+095200000Y+090000000D01*
X+095200000Y+090000000D02*
X+095200000Y+089000000D01*
X+095200000Y+089000000D02*
X+095450000Y+088750000D01*
X+096500000Y+088750000D02*
X+097000000Y+089500000D01*
X+097500000Y+088750000D02*
X+097000000Y+089500000D01*
X+097000000Y+089500000D02*
X+097000000Y+090250000D01*
X+097800000Y+089500000D02*
X+098800000Y+089500000D01*
X+099100000Y+088750000D02*
X+100100000Y+090250000D01*
X+100100000Y+088750000D02*
X+099100000Y+090250000D01*
D10*
X+100400000Y+093000000D02*
X+100400000Y+090500000D01*
D10*
X+099600000Y+089000000D02*
X+099350000Y+088750000D01*
X+099350000Y+088750000D02*
X+098850000Y+088750000D01*
X+098850000Y+088750000D02*
X+098600000Y+089000000D01*
X+098600000Y+089000000D02*
X+098600000Y+090000000D01*
X+098600000Y+090000000D02*
X+098850000Y+090250000D01*
X+098850000Y+090250000D02*
X+099350000Y+090250000D01*
X+099350000Y+090250000D02*
X+099600000Y+090000000D01*
X+099600000Y+090000000D02*
X+099600000Y+089500000D01*
X+099600000Y+089500000D02*
X+099100000Y+089500000D01*
X+099900000Y+090250000D02*
X+099900000Y+088750000D01*
X+099900000Y+088750000D02*
X+100900000Y+090250000D01*
X+100900000Y+090250000D02*
X+100900000Y+088750000D01*
X+101200000Y+088750000D02*
X+101200000Y+090250000D01*
X+101200000Y+088750000D02*
X+101700000Y+088750000D01*
X+101700000Y+088750000D02*
X+102200000Y+089250000D01*
X+102200000Y+089250000D02*
X+102200000Y+089750000D01*
X+102200000Y+089750000D02*
X+101700000Y+090250000D01*
X+101700000Y+090250000D02*
X+101200000Y+090250000D01*
D10*
X+091300000Y+087160000D02*
X+092420000Y+088840000D01*
X+092420000Y+087160000D02*
X+091300000Y+088840000D01*
X+092756000Y+088000000D02*
X+093876000Y+088000000D01*
X+094212000Y+088840000D02*
X+094772000Y+087160000D01*
X+094772000Y+087160000D02*
X+095332000Y+088840000D01*
X+094492000Y+088000000D02*
X+095052000Y+088000000D01*
X+095667999Y+087160000D02*
X+096788000Y+088840000D01*
X+096788000Y+087160000D02*
X+095667999Y+088840000D01*
X+097404000Y+087160000D02*
X+097964000Y+087160000D01*
X+097684000Y+087160000D02*
X+097684000Y+088840000D01*
X+097404000Y+088840000D02*
X+097964000Y+088840000D01*
X+099700000Y+087440000D02*
X+099420000Y+087160000D01*
X+099420000Y+087160000D02*
X+098860000Y+087160000D01*
X+098860000Y+087160000D02*
X+098580000Y+087440000D01*
X+098580000Y+087440000D02*
X+098580000Y+088000000D01*
X+098580000Y+088000000D02*
X+099700000Y+088000000D01*
X+099700000Y+088000000D02*
X+099700000Y+088560000D01*
X+099700000Y+088560000D02*
X+099420000Y+088840000D01*
X+099420000Y+088840000D02*
X+098860000Y+088840000D01*
X+098860000Y+088840000D02*
X+098580000Y+088560000D01*
D10*
X+093600000Y+107000000D02*
X+093600000Y+109500000D01*
D10*
X+091800000Y+110000000D02*
X+092050000Y+109750000D01*
X+092050000Y+109750000D02*
X+092550000Y+109750000D01*
X+092550000Y+109750000D02*
X+092800000Y+110000000D01*
X+092800000Y+110000000D02*
X+092800000Y+110250000D01*
X+092800000Y+110250000D02*
X+092300000Y+110500000D01*
X+092300000Y+110500000D02*
X+092800000Y+110750000D01*
X+092800000Y+110750000D02*
X+092800000Y+111000000D01*
X+092800000Y+111000000D02*
X+092550000Y+111250000D01*
X+092550000Y+111250000D02*
X+092050000Y+111250000D01*
X+092050000Y+111250000D02*
X+091800000Y+111000000D01*
X+093100000Y+109750000D02*
X+093600000Y+111250000D01*
X+093600000Y+111250000D02*
X+094100000Y+109750000D01*
X+094399999Y+110000000D02*
X+094649999Y+109750000D01*
X+094649999Y+109750000D02*
X+095149999Y+109750000D01*
X+095149999Y+109750000D02*
X+095399999Y+110000000D01*
X+095399999Y+110000000D02*
X+095399999Y+110250000D01*
X+095399999Y+110250000D02*
X+094899999Y+110500000D01*
X+094899999Y+110500000D02*
X+095399999Y+110750000D01*
X+095399999Y+110750000D02*
X+095399999Y+111000000D01*
X+095399999Y+111000000D02*
X+095149999Y+111250000D01*
X+095149999Y+111250000D02*
X+094649999Y+111250000D01*
X+094649999Y+111250000D02*
X+094399999Y+111000000D01*
D10*
X+097000000Y+107000000D02*
X+097000000Y+109500000D01*
D10*
X+094150000Y+109750000D02*
X+094650000Y+109750000D01*
X+094650000Y+109750000D02*
X+094650000Y+111000000D01*
X+094650000Y+111000000D02*
X+094400000Y+111250000D01*
X+094400000Y+111250000D02*
X+094150000Y+111250000D01*
X+094150000Y+111250000D02*
X+093900000Y+111000000D01*
X+095450000Y+109750000D02*
X+095950000Y+109750000D01*
X+095950000Y+109750000D02*
X+096200000Y+110000000D01*
X+096200000Y+110000000D02*
X+096200000Y+111000000D01*
X+096200000Y+111000000D02*
X+095950000Y+111250000D01*
X+095950000Y+111250000D02*
X+095450000Y+111250000D01*
X+095450000Y+111250000D02*
X+095200000Y+111000000D01*
X+095200000Y+111000000D02*
X+095200000Y+110000000D01*
X+095200000Y+110000000D02*
X+095450000Y+109750000D01*
X+096500000Y+109750000D02*
X+097000000Y+110500000D01*
X+097500000Y+109750000D02*
X+097000000Y+110500000D01*
X+097000000Y+110500000D02*
X+097000000Y+111250000D01*
X+097800000Y+110500000D02*
X+098800000Y+110500000D01*
X+099100000Y+109750000D02*
X+099600000Y+110500000D01*
X+100100000Y+109750000D02*
X+099600000Y+110500000D01*
X+099600000Y+110500000D02*
X+099600000Y+111250000D01*
D10*
X+100400000Y+107000000D02*
X+100400000Y+109500000D01*
D10*
X+099600000Y+110000000D02*
X+099350000Y+109750000D01*
X+099350000Y+109750000D02*
X+098850000Y+109750000D01*
X+098850000Y+109750000D02*
X+098600000Y+110000000D01*
X+098600000Y+110000000D02*
X+098600000Y+111000000D01*
X+098600000Y+111000000D02*
X+098850000Y+111250000D01*
X+098850000Y+111250000D02*
X+099350000Y+111250000D01*
X+099350000Y+111250000D02*
X+099600000Y+111000000D01*
X+099600000Y+111000000D02*
X+099600000Y+110500000D01*
X+099600000Y+110500000D02*
X+099100000Y+110500000D01*
X+099900000Y+111250000D02*
X+099900000Y+109750000D01*
X+099900000Y+109750000D02*
X+100900000Y+111250000D01*
X+100900000Y+111250000D02*
X+100900000Y+109750000D01*
X+101200000Y+109750000D02*
X+101200000Y+111250000D01*
X+101200000Y+109750000D02*
X+101700000Y+109750000D01*
X+101700000Y+109750000D02*
X+102200000Y+110250000D01*
X+102200000Y+110250000D02*
X+102200000Y+110750000D01*
X+102200000Y+110750000D02*
X+101700000Y+111250000D01*
X+101700000Y+111250000D02*
X+101200000Y+111250000D01*
D10*
X+091300000Y+111160000D02*
X+091860000Y+112000000D01*
X+092420000Y+111160000D02*
X+091860000Y+112000000D01*
X+091860000Y+112000000D02*
X+091860000Y+112840000D01*
X+092756000Y+112000000D02*
X+093876000Y+112000000D01*
X+094212000Y+112840000D02*
X+094772000Y+111160000D01*
X+094772000Y+111160000D02*
X+095332000Y+112840000D01*
X+094492000Y+112000000D02*
X+095052000Y+112000000D01*
X+095667999Y+111160000D02*
X+096788000Y+112840000D01*
X+096788000Y+111160000D02*
X+095667999Y+112840000D01*
X+097404000Y+111160000D02*
X+097964000Y+111160000D01*
X+097684000Y+111160000D02*
X+097684000Y+112840000D01*
X+097404000Y+112840000D02*
X+097964000Y+112840000D01*
X+099700000Y+111440000D02*
X+099420000Y+111160000D01*
X+099420000Y+111160000D02*
X+098860000Y+111160000D01*
X+098860000Y+111160000D02*
X+098580000Y+111440000D01*
X+098580000Y+111440000D02*
X+098580000Y+112000000D01*
X+098580000Y+112000000D02*
X+099700000Y+112000000D01*
X+099700000Y+112000000D02*
X+099700000Y+112560000D01*
X+099700000Y+112560000D02*
X+099420000Y+112840000D01*
X+099420000Y+112840000D02*
X+098860000Y+112840000D01*
X+098860000Y+112840000D02*
X+098580000Y+112560000D01*
D10*
X+103800000Y+095000000D02*
X+105500000Y+095000000D01*
D10*
X+103500000Y+094250000D02*
X+104000000Y+094250000D01*
X+104000000Y+094250000D02*
X+104000000Y+095500000D01*
X+104000000Y+095500000D02*
X+103750000Y+095750000D01*
X+103750000Y+095750000D02*
X+103500000Y+095750000D01*
X+103500000Y+095750000D02*
X+103250000Y+095500000D01*
X+104800000Y+094250000D02*
X+105300000Y+094250000D01*
X+105300000Y+094250000D02*
X+105550000Y+094500000D01*
X+105550000Y+094500000D02*
X+105550000Y+095500000D01*
X+105550000Y+095500000D02*
X+105300000Y+095750000D01*
X+105300000Y+095750000D02*
X+104800000Y+095750000D01*
X+104800000Y+095750000D02*
X+104550000Y+095500000D01*
X+104550000Y+095500000D02*
X+104550000Y+094500000D01*
X+104550000Y+094500000D02*
X+104800000Y+094250000D01*
X+105850000Y+094250000D02*
X+106350000Y+095000000D01*
X+106850000Y+094250000D02*
X+106350000Y+095000000D01*
X+106350000Y+095000000D02*
X+106350000Y+095750000D01*
X+107150000Y+095000000D02*
X+108150000Y+095000000D01*
X+109450000Y+094500000D02*
X+109200000Y+094250000D01*
X+109200000Y+094250000D02*
X+108700000Y+094250000D01*
X+108700000Y+094250000D02*
X+108450000Y+094500000D01*
X+108450000Y+094500000D02*
X+108450000Y+095000000D01*
X+108450000Y+095000000D02*
X+109450000Y+095000000D01*
X+109450000Y+095000000D02*
X+109450000Y+095500000D01*
X+109450000Y+095500000D02*
X+109200000Y+095750000D01*
X+109200000Y+095750000D02*
X+108700000Y+095750000D01*
X+108700000Y+095750000D02*
X+108450000Y+095500000D01*
X+109750000Y+094250000D02*
X+110000000Y+095750000D01*
X+110000000Y+095750000D02*
X+110250000Y+095000000D01*
X+110250000Y+095000000D02*
X+110500000Y+095750000D01*
X+110500000Y+095750000D02*
X+110750000Y+094250000D01*
D10*
X+103800000Y+105000000D02*
X+105500000Y+105000000D01*
D10*
X+106200000Y+104500000D02*
X+105950000Y+104250000D01*
X+105950000Y+104250000D02*
X+105450000Y+104250000D01*
X+105450000Y+104250000D02*
X+105200000Y+104500000D01*
X+105200000Y+104500000D02*
X+105200000Y+105500000D01*
X+105200000Y+105500000D02*
X+105450000Y+105750000D01*
X+105450000Y+105750000D02*
X+105950000Y+105750000D01*
X+105950000Y+105750000D02*
X+106200000Y+105500000D01*
X+106200000Y+105500000D02*
X+106200000Y+105000000D01*
X+106200000Y+105000000D02*
X+105700000Y+105000000D01*
X+106500000Y+105750000D02*
X+106500000Y+104250000D01*
X+106500000Y+104250000D02*
X+107500000Y+105750000D01*
X+107500000Y+105750000D02*
X+107500000Y+104250000D01*
X+107800000Y+104250000D02*
X+107800000Y+105750000D01*
X+107800000Y+104250000D02*
X+108300000Y+104250000D01*
X+108300000Y+104250000D02*
X+108800000Y+104750000D01*
X+108800000Y+104750000D02*
X+108800000Y+105250000D01*
X+108800000Y+105250000D02*
X+108300000Y+105750000D01*
X+108300000Y+105750000D02*
X+107800000Y+105750000D01*
D10*
X+105832000Y+099440000D02*
X+105552000Y+099160000D01*
X+105552000Y+099160000D02*
X+104992000Y+099160000D01*
X+104992000Y+099160000D02*
X+104712000Y+099440000D01*
X+104712000Y+099440000D02*
X+104712000Y+100000000D01*
X+104712000Y+100000000D02*
X+105832000Y+100000000D01*
X+105832000Y+100000000D02*
X+105832000Y+100560000D01*
X+105832000Y+100560000D02*
X+105552000Y+100840000D01*
X+105552000Y+100840000D02*
X+104992000Y+100840000D01*
X+104992000Y+100840000D02*
X+104712000Y+100560000D01*
X+106168000Y+099160000D02*
X+106448000Y+100840000D01*
X+106448000Y+100840000D02*
X+106728000Y+100000000D01*
X+106728000Y+100000000D02*
X+107008000Y+100840000D01*
X+107008000Y+100840000D02*
X+107288000Y+099160000D01*
D10*
X+091800000Y+091200000D02*
X+092800000Y+091200000D01*
X+092300000Y+090700000D02*
X+092300000Y+091700000D01*
D10*
X+107200000Y+091200000D02*
X+108200000Y+091200000D01*
X+107700000Y+090700000D02*
X+107700000Y+091700000D01*
D10*
X+091800000Y+108800000D02*
X+092800000Y+108800000D01*
X+092300000Y+108300000D02*
X+092300000Y+109300000D01*
D10*
X+107200000Y+108800000D02*
X+108200000Y+108800000D01*
X+107700000Y+108300000D02*
X+107700000Y+109300000D01*
D10*
X+097250000Y+118250000D02*
X+102750000Y+118250000D01*
X+102750000Y+121750000D01*
X+097250000Y+121750000D01*
X+097250000Y+118250000D01*
D10*
X+096450000Y+118200000D02*
X+098050000Y+118200000D01*
X+097250000Y+119800000D01*
X+096450000Y+118200000D01*
D10*
X+091716000Y+122360000D02*
X+092476000Y+122360000D01*
X+092476000Y+122360000D02*
X+092476000Y+124260000D01*
X+092476000Y+124260000D02*
X+092096000Y+124640000D01*
X+092096000Y+124640000D02*
X+091716000Y+124640000D01*
X+091716000Y+124640000D02*
X+091336000Y+124260000D01*
X+093312000Y+122740000D02*
X+093692000Y+122360000D01*
X+093692000Y+122360000D02*
X+094452000Y+122360000D01*
X+094452000Y+122360000D02*
X+094832000Y+122740000D01*
X+094832000Y+122740000D02*
X+094832000Y+123120000D01*
X+094832000Y+123120000D02*
X+094072000Y+123500000D01*
X+094072000Y+123500000D02*
X+094832000Y+123880000D01*
X+094832000Y+123880000D02*
X+094832000Y+124260000D01*
X+094832000Y+124260000D02*
X+094452000Y+124640000D01*
X+094452000Y+124640000D02*
X+093692000Y+124640000D01*
X+093692000Y+124640000D02*
X+093312000Y+124260000D01*
X+097264000Y+122360000D02*
X+097264000Y+124640000D01*
X+097264000Y+122360000D02*
X+098783999Y+122360000D01*
X+097264000Y+123500000D02*
X+098404000Y+123500000D01*
X+099240000Y+122360000D02*
X+099240000Y+124640000D01*
X+099240000Y+122360000D02*
X+100380000Y+122360000D01*
X+100380000Y+122360000D02*
X+100759999Y+122740000D01*
X+100759999Y+122740000D02*
X+100759999Y+123500000D01*
X+100759999Y+123500000D02*
X+100380000Y+123500000D01*
X+100380000Y+123500000D02*
X+099240000Y+123500000D01*
X+102735999Y+122740000D02*
X+102356000Y+122360000D01*
X+102356000Y+122360000D02*
X+101595999Y+122360000D01*
X+101595999Y+122360000D02*
X+101216000Y+122740000D01*
X+101216000Y+122740000D02*
X+101216000Y+124260000D01*
X+101216000Y+124260000D02*
X+101595999Y+124640000D01*
X+101595999Y+124640000D02*
X+102356000Y+124640000D01*
X+102356000Y+124640000D02*
X+102735999Y+124260000D01*
X+103192000Y+123500000D02*
X+104711999Y+123500000D01*
X+106688000Y+122740000D02*
X+106308000Y+122360000D01*
X+106308000Y+122360000D02*
X+105548000Y+122360000D01*
X+105548000Y+122360000D02*
X+105168000Y+122740000D01*
X+105168000Y+122740000D02*
X+105168000Y+124260000D01*
X+105168000Y+124260000D02*
X+105548000Y+124640000D01*
X+105548000Y+124640000D02*
X+106308000Y+124640000D01*
X+106308000Y+124640000D02*
X+106688000Y+124260000D01*
X+106688000Y+124260000D02*
X+106688000Y+123500000D01*
X+106688000Y+123500000D02*
X+105168000Y+123500000D01*
X+107144000Y+122360000D02*
X+107144000Y+124640000D01*
X+107144000Y+122360000D02*
X+108284000Y+122360000D01*
X+108284000Y+122360000D02*
X+108664000Y+122740000D01*
X+108664000Y+122740000D02*
X+108664000Y+123500000D01*
X+108664000Y+123500000D02*
X+108284000Y+123500000D01*
X+108284000Y+123500000D02*
X+107144000Y+123500000D01*
D10*
X+090208000Y+124040000D02*
X+091488000Y+124040000D01*
X+090848000Y+124040000D02*
X+090848000Y+125960000D01*
X+092192000Y+124040000D02*
X+092832000Y+124040000D01*
X+092832000Y+124040000D02*
X+093152000Y+124360000D01*
X+093152000Y+124360000D02*
X+093152000Y+125640000D01*
X+093152000Y+125640000D02*
X+092832000Y+125960000D01*
X+092832000Y+125960000D02*
X+092192000Y+125960000D01*
X+092192000Y+125960000D02*
X+091872000Y+125640000D01*
X+091872000Y+125640000D02*
X+091872000Y+124360000D01*
X+091872000Y+124360000D02*
X+092192000Y+124040000D01*
X+095200000Y+124040000D02*
X+095200000Y+125640000D01*
X+095200000Y+125640000D02*
X+095520000Y+125960000D01*
X+095520000Y+125960000D02*
X+096160000Y+125960000D01*
X+096160000Y+125960000D02*
X+096480000Y+125640000D01*
X+096480000Y+125640000D02*
X+096480000Y+124040000D01*
X+096864000Y+124040000D02*
X+096864000Y+125960000D01*
X+096864000Y+124040000D02*
X+097824000Y+124040000D01*
X+097824000Y+124040000D02*
X+098144000Y+124360000D01*
X+098144000Y+124360000D02*
X+098144000Y+125000000D01*
X+098144000Y+125000000D02*
X+097824000Y+125000000D01*
X+097824000Y+125000000D02*
X+096864000Y+125000000D01*
X+098527999Y+124040000D02*
X+098527999Y+125960000D01*
X+098527999Y+124040000D02*
X+099487999Y+124040000D01*
X+099487999Y+124040000D02*
X+099808000Y+124360000D01*
X+099808000Y+124360000D02*
X+099808000Y+125000000D01*
X+099808000Y+125000000D02*
X+099487999Y+125000000D01*
X+099487999Y+125000000D02*
X+098527999Y+125000000D01*
X+100192000Y+124040000D02*
X+100192000Y+125960000D01*
X+100192000Y+124040000D02*
X+101472000Y+124040000D01*
X+100192000Y+125000000D02*
X+101152000Y+125000000D01*
X+100192000Y+125960000D02*
X+101472000Y+125960000D01*
X+101856000Y+124040000D02*
X+101856000Y+125960000D01*
X+101856000Y+124040000D02*
X+102815999Y+124040000D01*
X+102815999Y+124040000D02*
X+103136000Y+124360000D01*
X+103136000Y+124360000D02*
X+103136000Y+125000000D01*
X+103136000Y+125000000D02*
X+102815999Y+125000000D01*
X+102815999Y+125000000D02*
X+101856000Y+125000000D01*
X+102496000Y+125000000D02*
X+103136000Y+125960000D01*
X+105184000Y+124040000D02*
X+105184000Y+125960000D01*
X+105184000Y+124040000D02*
X+106143999Y+124040000D01*
X+106143999Y+124040000D02*
X+106464000Y+124360000D01*
X+106464000Y+124360000D02*
X+106464000Y+125000000D01*
X+106464000Y+125000000D02*
X+106143999Y+125000000D01*
X+106143999Y+125000000D02*
X+105184000Y+125000000D01*
X+108128000Y+124360000D02*
X+107808000Y+124040000D01*
X+107808000Y+124040000D02*
X+107167999Y+124040000D01*
X+107167999Y+124040000D02*
X+106848000Y+124360000D01*
X+106848000Y+124360000D02*
X+106848000Y+125640000D01*
X+106848000Y+125640000D02*
X+107167999Y+125960000D01*
X+107167999Y+125960000D02*
X+107808000Y+125960000D01*
X+107808000Y+125960000D02*
X+108128000Y+125640000D01*
X+108512000Y+124040000D02*
X+108512000Y+125960000D01*
X+108512000Y+124040000D02*
X+109472000Y+124040000D01*
X+108512000Y+125000000D02*
X+109472000Y+125000000D01*
X+108512000Y+125960000D02*
X+109472000Y+125960000D01*
X+109472000Y+124040000D02*
X+109792000Y+124360000D01*
X+109472000Y+125000000D02*
X+109792000Y+125320000D01*
X+109472000Y+124360000D02*
X+109472000Y+125000000D01*
X+109472000Y+125320000D02*
X+109472000Y+125960000D01*
D10*
X+098750000Y+122000000D02*
X+098750000Y+122800000D01*
D10*
X+098530000Y+122560000D02*
X+098750000Y+122340000D01*
X+098750000Y+122340000D02*
X+098750000Y+123660000D01*
X+098530000Y+123660000D02*
X+098970000Y+123660000D01*
D10*
X+099250000Y+122000000D02*
X+099250000Y+122800000D01*
D10*
X+098810000Y+122560000D02*
X+099030000Y+122340000D01*
X+099030000Y+122340000D02*
X+099470000Y+122340000D01*
X+099470000Y+122340000D02*
X+099690000Y+122560000D01*
X+099690000Y+122560000D02*
X+099690000Y+123000000D01*
X+099690000Y+123000000D02*
X+098810000Y+123660000D01*
X+098810000Y+123660000D02*
X+099690000Y+123660000D01*
D10*
X+099750000Y+122000000D02*
X+099750000Y+122800000D01*
D10*
X+099310000Y+122560000D02*
X+099530000Y+122340000D01*
X+099530000Y+122340000D02*
X+099970000Y+122340000D01*
X+099970000Y+122340000D02*
X+100190000Y+122560000D01*
X+100190000Y+122560000D02*
X+100190000Y+122780000D01*
X+100190000Y+122780000D02*
X+099750000Y+123000000D01*
X+099750000Y+123000000D02*
X+100190000Y+123220000D01*
X+100190000Y+123220000D02*
X+100190000Y+123440000D01*
X+100190000Y+123440000D02*
X+099970000Y+123660000D01*
X+099970000Y+123660000D02*
X+099530000Y+123660000D01*
X+099530000Y+123660000D02*
X+099310000Y+123440000D01*
D10*
X+100250000Y+122000000D02*
X+100250000Y+122800000D01*
D10*
X+100470000Y+122340000D02*
X+099810000Y+123220000D01*
X+099810000Y+123220000D02*
X+100690000Y+123220000D01*
X+100690000Y+123220000D02*
X+100690000Y+122340000D01*
X+100690000Y+123220000D02*
X+100690000Y+123660000D01*
D10*
X+100750000Y+122000000D02*
X+100750000Y+122800000D01*
D10*
X+101190000Y+122340000D02*
X+100310000Y+122340000D01*
X+100310000Y+122340000D02*
X+100310000Y+123000000D01*
X+100310000Y+123000000D02*
X+100970000Y+123000000D01*
X+100970000Y+123000000D02*
X+101190000Y+123220000D01*
X+101190000Y+123220000D02*
X+101190000Y+123440000D01*
X+101190000Y+123440000D02*
X+100970000Y+123660000D01*
X+100970000Y+123660000D02*
X+100530000Y+123660000D01*
X+100530000Y+123660000D02*
X+100310000Y+123440000D01*
D10*
X+101250000Y+122000000D02*
X+101250000Y+122800000D01*
D10*
X+101690000Y+122560000D02*
X+101470000Y+122340000D01*
X+101470000Y+122340000D02*
X+101030000Y+122340000D01*
X+101030000Y+122340000D02*
X+100810000Y+122560000D01*
X+100810000Y+122560000D02*
X+100810000Y+123440000D01*
X+100810000Y+123440000D02*
X+101030000Y+123660000D01*
X+101030000Y+123660000D02*
X+101470000Y+123660000D01*
X+101470000Y+123660000D02*
X+101690000Y+123440000D01*
X+101690000Y+123440000D02*
X+101690000Y+123000000D01*
X+101690000Y+123000000D02*
X+100810000Y+123000000D01*
D10*
X+116250000Y+093250000D02*
X+119750000Y+093250000D01*
X+119750000Y+096750000D01*
X+116250000Y+096750000D01*
X+116250000Y+093250000D01*
D10*
X+115450000Y+092450000D02*
X+117050000Y+092450000D01*
X+116250000Y+094050000D01*
X+115450000Y+092450000D01*
D10*
X+112750000Y+090450000D02*
X+112750000Y+092200000D01*
X+112750000Y+092200000D02*
X+113100000Y+092550000D01*
X+113100000Y+092550000D02*
X+113800000Y+092550000D01*
X+113800000Y+092550000D02*
X+114150000Y+092200000D01*
X+114150000Y+092200000D02*
X+114150000Y+090450000D01*
X+114570000Y+090800000D02*
X+114919999Y+090450000D01*
X+114919999Y+090450000D02*
X+115619999Y+090450000D01*
X+115619999Y+090450000D02*
X+115970000Y+090800000D01*
X+115970000Y+090800000D02*
X+115970000Y+091150000D01*
X+115970000Y+091150000D02*
X+115270000Y+091500000D01*
X+115270000Y+091500000D02*
X+115970000Y+091850000D01*
X+115970000Y+091850000D02*
X+115970000Y+092200000D01*
X+115970000Y+092200000D02*
X+115619999Y+092550000D01*
X+115619999Y+092550000D02*
X+114919999Y+092550000D01*
X+114919999Y+092550000D02*
X+114570000Y+092200000D01*
X+118210000Y+090450000D02*
X+118210000Y+092550000D01*
X+118210000Y+092550000D02*
X+119610000Y+092550000D01*
X+120030000Y+090450000D02*
X+120030000Y+092550000D01*
X+120030000Y+090450000D02*
X+120730000Y+090450000D01*
X+120730000Y+090450000D02*
X+121430000Y+091150000D01*
X+121430000Y+091150000D02*
X+121430000Y+091850000D01*
X+121430000Y+091850000D02*
X+120730000Y+092550000D01*
X+120730000Y+092550000D02*
X+120030000Y+092550000D01*
X+122199999Y+090450000D02*
X+122899999Y+090450000D01*
X+122899999Y+090450000D02*
X+123250000Y+090800000D01*
X+123250000Y+090800000D02*
X+123250000Y+092200000D01*
X+123250000Y+092200000D02*
X+122899999Y+092550000D01*
X+122899999Y+092550000D02*
X+122199999Y+092550000D01*
X+122199999Y+092550000D02*
X+121850000Y+092200000D01*
X+121850000Y+092200000D02*
X+121850000Y+090800000D01*
X+121850000Y+090800000D02*
X+122199999Y+090450000D01*
D10*
X+113072000Y+092240000D02*
X+113352000Y+091960000D01*
X+113352000Y+091960000D02*
X+113912000Y+091960000D01*
X+113912000Y+091960000D02*
X+114192000Y+092240000D01*
X+114192000Y+092240000D02*
X+114192000Y+092520000D01*
X+114192000Y+092520000D02*
X+113632000Y+092800000D01*
X+113632000Y+092800000D02*
X+114192000Y+093080000D01*
X+114192000Y+093080000D02*
X+114192000Y+093360000D01*
X+114192000Y+093360000D02*
X+113912000Y+093640000D01*
X+113912000Y+093640000D02*
X+113352000Y+093640000D01*
X+113352000Y+093640000D02*
X+113072000Y+093360000D01*
X+114528000Y+091960000D02*
X+115088000Y+093640000D01*
X+115088000Y+093640000D02*
X+115648000Y+091960000D01*
X+115984000Y+092240000D02*
X+116264000Y+091960000D01*
X+116264000Y+091960000D02*
X+116824000Y+091960000D01*
X+116824000Y+091960000D02*
X+117104000Y+092240000D01*
X+117104000Y+092240000D02*
X+117104000Y+092520000D01*
X+117104000Y+092520000D02*
X+116544000Y+092800000D01*
X+116544000Y+092800000D02*
X+117104000Y+093080000D01*
X+117104000Y+093080000D02*
X+117104000Y+093360000D01*
X+117104000Y+093360000D02*
X+116824000Y+093640000D01*
X+116824000Y+093640000D02*
X+116264000Y+093640000D01*
X+116264000Y+093640000D02*
X+115984000Y+093360000D01*
X+118896000Y+091960000D02*
X+118896000Y+093640000D01*
X+118896000Y+091960000D02*
X+119736000Y+091960000D01*
X+119736000Y+091960000D02*
X+120016000Y+092240000D01*
X+120016000Y+092240000D02*
X+120016000Y+092800000D01*
X+120016000Y+092800000D02*
X+119736000Y+092800000D01*
X+119736000Y+092800000D02*
X+118896000Y+092800000D01*
X+119456000Y+092800000D02*
X+120016000Y+093640000D01*
X+120352000Y+091960000D02*
X+120352000Y+093640000D01*
X+120352000Y+091960000D02*
X+121472000Y+091960000D01*
X+120352000Y+092800000D02*
X+121192000Y+092800000D01*
X+120352000Y+093640000D02*
X+121472000Y+093640000D01*
X+122928000Y+092240000D02*
X+122648000Y+091960000D01*
X+122648000Y+091960000D02*
X+122088000Y+091960000D01*
X+122088000Y+091960000D02*
X+121808000Y+092240000D01*
X+121808000Y+092240000D02*
X+121808000Y+093360000D01*
X+121808000Y+093360000D02*
X+122088000Y+093640000D01*
X+122088000Y+093640000D02*
X+122648000Y+093640000D01*
X+122648000Y+093640000D02*
X+122928000Y+093360000D01*
X+122928000Y+093360000D02*
X+122928000Y+092800000D01*
X+122928000Y+092800000D02*
X+122368000Y+092800000D01*
D10*
X+077500000Y+112000000D02*
X+086500000Y+112000000D01*
X+086500000Y+118000000D01*
X+077500000Y+118000000D01*
X+077500000Y+112000000D01*
D10*
X+076700000Y+111200000D02*
X+078300000Y+111200000D01*
X+077500000Y+112800000D01*
X+076700000Y+111200000D01*
D10*
X+071640000Y+108950000D02*
X+072340000Y+108950000D01*
X+072340000Y+108950000D02*
X+072340000Y+110700000D01*
X+072340000Y+110700000D02*
X+071990000Y+111050000D01*
X+071990000Y+111050000D02*
X+071640000Y+111050000D01*
X+071640000Y+111050000D02*
X+071290000Y+110700000D01*
X+073110000Y+109300000D02*
X+073460000Y+108950000D01*
X+073460000Y+108950000D02*
X+074160000Y+108950000D01*
X+074160000Y+108950000D02*
X+074510000Y+109300000D01*
X+074510000Y+109300000D02*
X+074510000Y+110000000D01*
X+074510000Y+110000000D02*
X+073110000Y+111050000D01*
X+073110000Y+111050000D02*
X+074510000Y+111050000D01*
X+076750000Y+108950000D02*
X+076750000Y+111050000D01*
X+076750000Y+108950000D02*
X+077800000Y+108950000D01*
X+076750000Y+110000000D02*
X+077800000Y+110000000D01*
X+076750000Y+111050000D02*
X+077800000Y+111050000D01*
X+077800000Y+108950000D02*
X+078150000Y+109300000D01*
X+077800000Y+110000000D02*
X+078150000Y+110350000D01*
X+077800000Y+109300000D02*
X+077800000Y+110000000D01*
X+077800000Y+110350000D02*
X+077800000Y+111050000D01*
X+078570000Y+111050000D02*
X+079270000Y+108950000D01*
X+079270000Y+108950000D02*
X+079970000Y+111050000D01*
X+078920000Y+110000000D02*
X+079620000Y+110000000D01*
X+080390000Y+108950000D02*
X+081790000Y+108950000D01*
X+081090000Y+108950000D02*
X+081090000Y+111050000D01*
X+082910000Y+109300000D02*
X+082910000Y+110700000D01*
X+082210000Y+110000000D02*
X+083610000Y+110000000D01*
X+085850000Y+108950000D02*
X+085850000Y+111050000D01*
X+085850000Y+111050000D02*
X+087250000Y+111050000D01*
X+088020000Y+108950000D02*
X+088720000Y+108950000D01*
X+088370000Y+108950000D02*
X+088370000Y+111050000D01*
X+088020000Y+111050000D02*
X+088720000Y+111050000D01*
X+089490000Y+108950000D02*
X+089490000Y+111050000D01*
X+089490000Y+108950000D02*
X+090540000Y+108950000D01*
X+090540000Y+108950000D02*
X+090890000Y+109300000D01*
X+090890000Y+109300000D02*
X+090890000Y+110000000D01*
X+090890000Y+110000000D02*
X+090540000Y+110000000D01*
X+090540000Y+110000000D02*
X+089490000Y+110000000D01*
X+091660000Y+108950000D02*
X+092360000Y+108950000D01*
X+092360000Y+108950000D02*
X+092710000Y+109300000D01*
X+092710000Y+109300000D02*
X+092710000Y+110700000D01*
X+092710000Y+110700000D02*
X+092360000Y+111050000D01*
X+092360000Y+111050000D02*
X+091660000Y+111050000D01*
X+091660000Y+111050000D02*
X+091310000Y+110700000D01*
X+091310000Y+110700000D02*
X+091310000Y+109300000D01*
X+091310000Y+109300000D02*
X+091660000Y+108950000D01*
D10*
X+080000000Y+114100000D02*
X+080000000Y+115900000D01*
X+079100000Y+115000000D02*
X+080899999Y+115000000D01*
D10*
X+083100000Y+115000000D02*
X+084899999Y+115000000D01*
D10*
X+056000000Y+097250000D02*
X+064000000Y+097250000D01*
X+064000000Y+102750000D01*
X+056000000Y+102750000D01*
X+056000000Y+097250000D01*
D10*
X+055240000Y+094300000D02*
X+054890000Y+093950000D01*
X+054890000Y+093950000D02*
X+054190000Y+093950000D01*
X+054190000Y+093950000D02*
X+053840000Y+094300000D01*
X+053840000Y+094300000D02*
X+053840000Y+095000000D01*
X+053840000Y+095000000D02*
X+055240000Y+095000000D01*
X+055240000Y+095000000D02*
X+055240000Y+095700000D01*
X+055240000Y+095700000D02*
X+054890000Y+096050000D01*
X+054890000Y+096050000D02*
X+054190000Y+096050000D01*
X+054190000Y+096050000D02*
X+053840000Y+095700000D01*
X+055660000Y+093950000D02*
X+056010000Y+096050000D01*
X+056010000Y+096050000D02*
X+056360000Y+095000000D01*
X+056360000Y+095000000D02*
X+056710000Y+096050000D01*
X+056710000Y+096050000D02*
X+057060000Y+093950000D01*
X+057830000Y+094300000D02*
X+058180000Y+093950000D01*
X+058180000Y+093950000D02*
X+058180000Y+096050000D01*
X+057830000Y+096050000D02*
X+058530000Y+096050000D01*
X+061120000Y+093950000D02*
X+061120000Y+096050000D01*
X+061120000Y+093950000D02*
X+062170000Y+093950000D01*
X+062170000Y+093950000D02*
X+062520000Y+094300000D01*
X+062520000Y+094300000D02*
X+062520000Y+095000000D01*
X+062520000Y+095000000D02*
X+062170000Y+095000000D01*
X+062170000Y+095000000D02*
X+061120000Y+095000000D01*
X+062940000Y+093950000D02*
X+063290000Y+096050000D01*
X+063290000Y+096050000D02*
X+063640000Y+095000000D01*
X+063640000Y+095000000D02*
X+063990000Y+096050000D01*
X+063990000Y+096050000D02*
X+064340000Y+093950000D01*
X+064760000Y+093950000D02*
X+064760000Y+096050000D01*
X+064760000Y+093950000D02*
X+065810000Y+093950000D01*
X+065810000Y+093950000D02*
X+066160000Y+094300000D01*
X+066160000Y+094300000D02*
X+066160000Y+095000000D01*
X+066160000Y+095000000D02*
X+065810000Y+095000000D01*
X+065810000Y+095000000D02*
X+064760000Y+095000000D01*
X+065460000Y+095000000D02*
X+066160000Y+096050000D01*
D10*
X+055800000Y+095600000D02*
X+056400000Y+095600000D01*
X+056400000Y+095600000D02*
X+056700000Y+095899999D01*
X+056700000Y+095899999D02*
X+056700000Y+097100000D01*
X+056700000Y+097100000D02*
X+056400000Y+097399999D01*
X+056400000Y+097399999D02*
X+055800000Y+097399999D01*
X+055800000Y+097399999D02*
X+055500000Y+097100000D01*
X+055500000Y+097100000D02*
X+055500000Y+095899999D01*
X+055500000Y+095899999D02*
X+055800000Y+095600000D01*
X+057060000Y+097399999D02*
X+057060000Y+095600000D01*
X+057060000Y+095600000D02*
X+058260000Y+097399999D01*
X+058260000Y+097399999D02*
X+058260000Y+095600000D01*
X+058620000Y+096500000D02*
X+059820000Y+096500000D01*
X+060480000Y+095600000D02*
X+061080000Y+095600000D01*
X+061080000Y+095600000D02*
X+061380000Y+095899999D01*
X+061380000Y+095899999D02*
X+061380000Y+097100000D01*
X+061380000Y+097100000D02*
X+061080000Y+097399999D01*
X+061080000Y+097399999D02*
X+060480000Y+097399999D01*
X+060480000Y+097399999D02*
X+060180000Y+097100000D01*
X+060180000Y+097100000D02*
X+060180000Y+095899999D01*
X+060180000Y+095899999D02*
X+060480000Y+095600000D01*
X+061740000Y+095600000D02*
X+061740000Y+097399999D01*
X+061740000Y+095600000D02*
X+062940000Y+095600000D01*
X+061740000Y+096500000D02*
X+062640000Y+096500000D01*
X+063300000Y+095600000D02*
X+063300000Y+097399999D01*
X+063300000Y+095600000D02*
X+064500000Y+095600000D01*
X+063300000Y+096500000D02*
X+064200000Y+096500000D01*
D10*
X+097500000Y+138000000D02*
X+102500000Y+138000000D01*
X+102500000Y+142000000D01*
X+097500000Y+142000000D01*
X+097500000Y+138000000D01*
D10*
X+092510000Y+143799999D02*
X+092160000Y+143450000D01*
X+092160000Y+143450000D02*
X+091460000Y+143450000D01*
X+091460000Y+143450000D02*
X+091110000Y+143799999D01*
X+091110000Y+143799999D02*
X+091110000Y+144500000D01*
X+091110000Y+144500000D02*
X+092510000Y+144500000D01*
X+092510000Y+144500000D02*
X+092510000Y+145200000D01*
X+092510000Y+145200000D02*
X+092160000Y+145549999D01*
X+092160000Y+145549999D02*
X+091460000Y+145549999D01*
X+091460000Y+145549999D02*
X+091110000Y+145200000D01*
X+092930000Y+143450000D02*
X+093279999Y+145549999D01*
X+093279999Y+145549999D02*
X+093630000Y+144500000D01*
X+093630000Y+144500000D02*
X+093979999Y+145549999D01*
X+093979999Y+145549999D02*
X+094330000Y+143450000D01*
X+094750000Y+144500000D02*
X+096150000Y+144500000D01*
X+096570000Y+143450000D02*
X+096570000Y+145549999D01*
X+096570000Y+143450000D02*
X+097619999Y+143450000D01*
X+096570000Y+144500000D02*
X+097619999Y+144500000D01*
X+096570000Y+145549999D02*
X+097619999Y+145549999D01*
X+097619999Y+143450000D02*
X+097970000Y+143799999D01*
X+097619999Y+144500000D02*
X+097970000Y+144850000D01*
X+097619999Y+143799999D02*
X+097619999Y+144500000D01*
X+097619999Y+144850000D02*
X+097619999Y+145549999D01*
X+098390000Y+143450000D02*
X+099790000Y+143450000D01*
X+099090000Y+143450000D02*
X+099090000Y+145549999D01*
X+103430000Y+143799999D02*
X+103080000Y+143450000D01*
X+103080000Y+143450000D02*
X+102380000Y+143450000D01*
X+102380000Y+143450000D02*
X+102030000Y+143799999D01*
X+102030000Y+143799999D02*
X+102030000Y+144500000D01*
X+102030000Y+144500000D02*
X+103430000Y+144500000D01*
X+103430000Y+144500000D02*
X+103430000Y+145200000D01*
X+103430000Y+145200000D02*
X+103080000Y+145549999D01*
X+103080000Y+145549999D02*
X+102380000Y+145549999D01*
X+102380000Y+145549999D02*
X+102030000Y+145200000D01*
X+103850000Y+143450000D02*
X+104550000Y+144500000D01*
X+105250000Y+143450000D02*
X+104550000Y+144500000D01*
X+104550000Y+144500000D02*
X+104550000Y+145549999D01*
X+105670000Y+145549999D02*
X+105670000Y+143450000D01*
X+105670000Y+143450000D02*
X+107070000Y+145549999D01*
X+107070000Y+145549999D02*
X+107070000Y+143450000D01*
X+108890000Y+143799999D02*
X+108539999Y+143450000D01*
X+108539999Y+143450000D02*
X+107839999Y+143450000D01*
X+107839999Y+143450000D02*
X+107490000Y+143799999D01*
X+107490000Y+143799999D02*
X+107490000Y+145200000D01*
X+107490000Y+145200000D02*
X+107839999Y+145549999D01*
X+107839999Y+145549999D02*
X+108539999Y+145549999D01*
X+108539999Y+145549999D02*
X+108890000Y+145200000D01*
D10*
X+097648000Y+142440000D02*
X+097368000Y+142160000D01*
X+097368000Y+142160000D02*
X+096808000Y+142160000D01*
X+096808000Y+142160000D02*
X+096528000Y+142440000D01*
X+096528000Y+142440000D02*
X+096528000Y+143560000D01*
X+096528000Y+143560000D02*
X+096808000Y+143840000D01*
X+096808000Y+143840000D02*
X+097368000Y+143840000D01*
X+097368000Y+143840000D02*
X+097648000Y+143560000D01*
X+097648000Y+143560000D02*
X+097648000Y+143000000D01*
X+097648000Y+143000000D02*
X+097088000Y+143000000D01*
X+097984000Y+142160000D02*
X+097984000Y+143840000D01*
X+097984000Y+142160000D02*
X+098824000Y+142160000D01*
X+098824000Y+142160000D02*
X+099104000Y+142440000D01*
X+099104000Y+142440000D02*
X+099104000Y+143000000D01*
X+099104000Y+143000000D02*
X+098824000Y+143000000D01*
X+098824000Y+143000000D02*
X+097984000Y+143000000D01*
X+099720000Y+142160000D02*
X+100280000Y+142160000D01*
X+100000000Y+142160000D02*
X+100000000Y+143840000D01*
X+099720000Y+143840000D02*
X+100280000Y+143840000D01*
X+101176000Y+142160000D02*
X+101736000Y+142160000D01*
X+101736000Y+142160000D02*
X+102016000Y+142440000D01*
X+102016000Y+142440000D02*
X+102016000Y+143560000D01*
X+102016000Y+143560000D02*
X+101736000Y+143840000D01*
X+101736000Y+143840000D02*
X+101176000Y+143840000D01*
X+101176000Y+143840000D02*
X+100896000Y+143560000D01*
X+100896000Y+143560000D02*
X+100896000Y+142440000D01*
X+100896000Y+142440000D02*
X+101176000Y+142160000D01*
X+103472000Y+143000000D02*
X+102352000Y+143000000D01*
X+102352000Y+143000000D02*
X+102352000Y+142440000D01*
X+102352000Y+142440000D02*
X+102632000Y+142160000D01*
X+102632000Y+142160000D02*
X+103192000Y+142160000D01*
X+103192000Y+142160000D02*
X+103472000Y+142440000D01*
X+103472000Y+142440000D02*
X+103472000Y+143560000D01*
X+103472000Y+143560000D02*
X+103192000Y+143840000D01*
X+103192000Y+143840000D02*
X+102632000Y+143840000D01*
X+102632000Y+143840000D02*
X+102352000Y+143560000D01*
D10*
X+109750000Y+064250000D02*
X+114250000Y+064250000D01*
X+114250000Y+067750000D01*
X+109750000Y+067750000D01*
X+109750000Y+064250000D01*
D10*
X+110880000Y+061800000D02*
X+110530000Y+061450000D01*
X+110530000Y+061450000D02*
X+109830000Y+061450000D01*
X+109830000Y+061450000D02*
X+109480000Y+061800000D01*
X+109480000Y+061800000D02*
X+109480000Y+062500000D01*
X+109480000Y+062500000D02*
X+110880000Y+062500000D01*
X+110880000Y+062500000D02*
X+110880000Y+063200000D01*
X+110880000Y+063200000D02*
X+110530000Y+063550000D01*
X+110530000Y+063550000D02*
X+109830000Y+063550000D01*
X+109830000Y+063550000D02*
X+109480000Y+063200000D01*
X+111300000Y+061450000D02*
X+111649999Y+063550000D01*
X+111649999Y+063550000D02*
X+112000000Y+062500000D01*
X+112000000Y+062500000D02*
X+112350000Y+063550000D01*
X+112350000Y+063550000D02*
X+112700000Y+061450000D01*
X+113120000Y+061800000D02*
X+113470000Y+061450000D01*
X+113470000Y+061450000D02*
X+114170000Y+061450000D01*
X+114170000Y+061450000D02*
X+114520000Y+061800000D01*
X+114520000Y+061800000D02*
X+114520000Y+062500000D01*
X+114520000Y+062500000D02*
X+113120000Y+063550000D01*
X+113120000Y+063550000D02*
X+114520000Y+063550000D01*
D10*
X+109256000Y+062959999D02*
X+109256000Y+064640000D01*
X+109256000Y+062959999D02*
X+110096000Y+062959999D01*
X+109256000Y+063800000D02*
X+110096000Y+063800000D01*
X+109256000Y+064640000D02*
X+110096000Y+064640000D01*
X+110096000Y+062959999D02*
X+110376000Y+063239999D01*
X+110096000Y+063800000D02*
X+110376000Y+064080000D01*
X+110096000Y+063239999D02*
X+110096000Y+063800000D01*
X+110096000Y+064080000D02*
X+110096000Y+064640000D01*
X+110992000Y+062959999D02*
X+111552000Y+062959999D01*
X+111552000Y+062959999D02*
X+111832000Y+063239999D01*
X+111832000Y+063239999D02*
X+111832000Y+064360000D01*
X+111832000Y+064360000D02*
X+111552000Y+064640000D01*
X+111552000Y+064640000D02*
X+110992000Y+064640000D01*
X+110992000Y+064640000D02*
X+110712000Y+064360000D01*
X+110712000Y+064360000D02*
X+110712000Y+063239999D01*
X+110712000Y+063239999D02*
X+110992000Y+062959999D01*
X+112448000Y+062959999D02*
X+113008000Y+062959999D01*
X+113008000Y+062959999D02*
X+113288000Y+063239999D01*
X+113288000Y+063239999D02*
X+113288000Y+064360000D01*
X+113288000Y+064360000D02*
X+113008000Y+064640000D01*
X+113008000Y+064640000D02*
X+112448000Y+064640000D01*
X+112448000Y+064640000D02*
X+112168000Y+064360000D01*
X+112168000Y+064360000D02*
X+112168000Y+063239999D01*
X+112168000Y+063239999D02*
X+112448000Y+062959999D01*
X+113624000Y+062959999D02*
X+114744000Y+062959999D01*
X+114184000Y+062959999D02*
X+114184000Y+064640000D01*
D10*
X+109750000Y+072250000D02*
X+114250000Y+072250000D01*
X+114250000Y+075750000D01*
X+109750000Y+075750000D01*
X+109750000Y+072250000D01*
D10*
X+110880000Y+075800000D02*
X+110530000Y+075450000D01*
X+110530000Y+075450000D02*
X+109830000Y+075450000D01*
X+109830000Y+075450000D02*
X+109480000Y+075800000D01*
X+109480000Y+075800000D02*
X+109480000Y+076500000D01*
X+109480000Y+076500000D02*
X+110880000Y+076500000D01*
X+110880000Y+076500000D02*
X+110880000Y+077200000D01*
X+110880000Y+077200000D02*
X+110530000Y+077550000D01*
X+110530000Y+077550000D02*
X+109830000Y+077550000D01*
X+109830000Y+077550000D02*
X+109480000Y+077200000D01*
X+111300000Y+075450000D02*
X+111649999Y+077550000D01*
X+111649999Y+077550000D02*
X+112000000Y+076500000D01*
X+112000000Y+076500000D02*
X+112350000Y+077550000D01*
X+112350000Y+077550000D02*
X+112700000Y+075450000D01*
X+113120000Y+075800000D02*
X+113470000Y+075450000D01*
X+113470000Y+075450000D02*
X+114170000Y+075450000D01*
X+114170000Y+075450000D02*
X+114520000Y+075800000D01*
X+114520000Y+075800000D02*
X+114520000Y+076150000D01*
X+114520000Y+076150000D02*
X+113820000Y+076500000D01*
X+113820000Y+076500000D02*
X+114520000Y+076850000D01*
X+114520000Y+076850000D02*
X+114520000Y+077200000D01*
X+114520000Y+077200000D02*
X+114170000Y+077550000D01*
X+114170000Y+077550000D02*
X+113470000Y+077550000D01*
X+113470000Y+077550000D02*
X+113120000Y+077200000D01*
D10*
X+108528000Y+076960000D02*
X+108528000Y+078640000D01*
X+108528000Y+076960000D02*
X+109368000Y+076960000D01*
X+109368000Y+076960000D02*
X+109648000Y+077240000D01*
X+109648000Y+077240000D02*
X+109648000Y+077800000D01*
X+109648000Y+077800000D02*
X+109368000Y+077800000D01*
X+109368000Y+077800000D02*
X+108528000Y+077800000D01*
X+109088000Y+077800000D02*
X+109648000Y+078640000D01*
X+109984000Y+076960000D02*
X+109984000Y+078640000D01*
X+109984000Y+076960000D02*
X+111104000Y+076960000D01*
X+109984000Y+077800000D02*
X+110824000Y+077800000D01*
X+109984000Y+078640000D02*
X+111104000Y+078640000D01*
X+112560000Y+077240000D02*
X+112280000Y+076960000D01*
X+112280000Y+076960000D02*
X+111720000Y+076960000D01*
X+111720000Y+076960000D02*
X+111440000Y+077240000D01*
X+111440000Y+077240000D02*
X+111440000Y+077800000D01*
X+111440000Y+077800000D02*
X+112560000Y+077800000D01*
X+112560000Y+077800000D02*
X+112560000Y+078360000D01*
X+112560000Y+078360000D02*
X+112280000Y+078640000D01*
X+112280000Y+078640000D02*
X+111720000Y+078640000D01*
X+111720000Y+078640000D02*
X+111440000Y+078360000D01*
X+112896000Y+076960000D02*
X+112896000Y+078640000D01*
X+112896000Y+076960000D02*
X+114016000Y+076960000D01*
X+112896000Y+077800000D02*
X+113736000Y+077800000D01*
X+112896000Y+078640000D02*
X+114016000Y+078640000D01*
X+114352000Y+076960000D02*
X+115472000Y+076960000D01*
X+114912000Y+076960000D02*
X+114912000Y+078640000D01*
%ADD10C,0.150*%
D10*
X+127955844Y+125455844D02*
X+127917863Y+125889964D01*
X+127805075Y+126310894D01*
X+127620907Y+126705844D01*
X+127370955Y+127062813D01*
X+127062813Y+127370955D01*
X+126705844Y+127620907D01*
X+126310894Y+127805075D01*
X+125889964Y+127917863D01*
X+125455844Y+127955844D01*
X+125021723Y+127917863D01*
X+124600793Y+127805075D01*
X+124205844Y+127620907D01*
X+123848875Y+127370955D01*
X+123540733Y+127062813D01*
X+123290780Y+126705844D01*
X+123106612Y+126310894D01*
X+122993824Y+125889964D01*
X+122955844Y+125455844D01*
X+122993824Y+125021723D01*
X+123106612Y+124600793D01*
X+123290780Y+124205844D01*
X+123540733Y+123848875D01*
X+123848875Y+123540733D01*
X+124205844Y+123290780D01*
X+124600793Y+123106612D01*
X+125021723Y+122993824D01*
X+125455844Y+122955844D01*
X+125889964Y+122993824D01*
X+126310894Y+123106612D01*
X+126705844Y+123290780D01*
X+127062813Y+123540733D01*
X+127370955Y+123848875D01*
X+127620907Y+124205844D01*
X+127805075Y+124600793D01*
X+127917863Y+125021723D01*
X+127955844Y+125455844D01*
D10*
X+124167844Y+129795844D02*
X+124167844Y+128115844D01*
X+124167844Y+128115844D02*
X+124727844Y+128955844D01*
X+124727844Y+128955844D02*
X+125287844Y+128115844D01*
X+125287844Y+128115844D02*
X+125287844Y+129795844D01*
X+125623844Y+128395844D02*
X+125903844Y+128115844D01*
X+125903844Y+128115844D02*
X+126463844Y+128115844D01*
X+126463844Y+128115844D02*
X+126743844Y+128395844D01*
X+126743844Y+128395844D02*
X+126743844Y+128955844D01*
X+126743844Y+128955844D02*
X+125623844Y+129795844D01*
X+125623844Y+129795844D02*
X+126743844Y+129795844D01*
%ADD10C,0.150*%
D10*
X+077044155Y+125455844D02*
X+077006175Y+125889964D01*
X+076893387Y+126310894D01*
X+076709219Y+126705844D01*
X+076459266Y+127062813D01*
X+076151124Y+127370955D01*
X+075794155Y+127620907D01*
X+075399206Y+127805075D01*
X+074978276Y+127917863D01*
X+074544155Y+127955844D01*
X+074110035Y+127917863D01*
X+073689105Y+127805075D01*
X+073294155Y+127620907D01*
X+072937186Y+127370955D01*
X+072629044Y+127062813D01*
X+072379092Y+126705844D01*
X+072194924Y+126310894D01*
X+072082136Y+125889964D01*
X+072044155Y+125455844D01*
X+072082136Y+125021723D01*
X+072194924Y+124600793D01*
X+072379092Y+124205844D01*
X+072629044Y+123848875D01*
X+072937186Y+123540733D01*
X+073294155Y+123290780D01*
X+073689105Y+123106612D01*
X+074110035Y+122993824D01*
X+074544155Y+122955844D01*
X+074978276Y+122993824D01*
X+075399206Y+123106612D01*
X+075794155Y+123290780D01*
X+076151124Y+123540733D01*
X+076459266Y+123848875D01*
X+076709219Y+124205844D01*
X+076893387Y+124600793D01*
X+077006175Y+125021723D01*
X+077044155Y+125455844D01*
D10*
X+073256155Y+129795844D02*
X+073256155Y+128115844D01*
X+073256155Y+128115844D02*
X+073816155Y+128955844D01*
X+073816155Y+128955844D02*
X+074376155Y+128115844D01*
X+074376155Y+128115844D02*
X+074376155Y+129795844D01*
X+074712155Y+128395844D02*
X+074992155Y+128115844D01*
X+074992155Y+128115844D02*
X+075552155Y+128115844D01*
X+075552155Y+128115844D02*
X+075832155Y+128395844D01*
X+075832155Y+128395844D02*
X+075832155Y+128955844D01*
X+075832155Y+128955844D02*
X+074712155Y+129795844D01*
X+074712155Y+129795844D02*
X+075832155Y+129795844D01*
%ADD10C,0.150*%
D10*
X+077044155Y+074544155D02*
X+077006175Y+074978276D01*
X+076893387Y+075399206D01*
X+076709219Y+075794155D01*
X+076459266Y+076151124D01*
X+076151124Y+076459266D01*
X+075794155Y+076709219D01*
X+075399206Y+076893387D01*
X+074978276Y+077006175D01*
X+074544155Y+077044155D01*
X+074110035Y+077006175D01*
X+073689105Y+076893387D01*
X+073294155Y+076709219D01*
X+072937186Y+076459266D01*
X+072629044Y+076151124D01*
X+072379092Y+075794155D01*
X+072194924Y+075399206D01*
X+072082136Y+074978276D01*
X+072044155Y+074544155D01*
X+072082136Y+074110035D01*
X+072194924Y+073689105D01*
X+072379092Y+073294155D01*
X+072629044Y+072937186D01*
X+072937186Y+072629044D01*
X+073294155Y+072379092D01*
X+073689105Y+072194924D01*
X+074110035Y+072082136D01*
X+074544155Y+072044155D01*
X+074978276Y+072082136D01*
X+075399206Y+072194924D01*
X+075794155Y+072379092D01*
X+076151124Y+072629044D01*
X+076459266Y+072937186D01*
X+076709219Y+073294155D01*
X+076893387Y+073689105D01*
X+077006175Y+074110035D01*
X+077044155Y+074544155D01*
D10*
X+073256155Y+078884155D02*
X+073256155Y+077204155D01*
X+073256155Y+077204155D02*
X+073816155Y+078044155D01*
X+073816155Y+078044155D02*
X+074376155Y+077204155D01*
X+074376155Y+077204155D02*
X+074376155Y+078884155D01*
X+074712155Y+077484155D02*
X+074992155Y+077204155D01*
X+074992155Y+077204155D02*
X+075552155Y+077204155D01*
X+075552155Y+077204155D02*
X+075832155Y+077484155D01*
X+075832155Y+077484155D02*
X+075832155Y+078044155D01*
X+075832155Y+078044155D02*
X+074712155Y+078884155D01*
X+074712155Y+078884155D02*
X+075832155Y+078884155D01*
%ADD10C,0.150*%
D10*
X+127955844Y+074544155D02*
X+127917863Y+074978276D01*
X+127805075Y+075399206D01*
X+127620907Y+075794155D01*
X+127370955Y+076151124D01*
X+127062813Y+076459266D01*
X+126705844Y+076709219D01*
X+126310894Y+076893387D01*
X+125889964Y+077006175D01*
X+125455844Y+077044155D01*
X+125021723Y+077006175D01*
X+124600793Y+076893387D01*
X+124205844Y+076709219D01*
X+123848875Y+076459266D01*
X+123540733Y+076151124D01*
X+123290780Y+075794155D01*
X+123106612Y+075399206D01*
X+122993824Y+074978276D01*
X+122955844Y+074544155D01*
X+122993824Y+074110035D01*
X+123106612Y+073689105D01*
X+123290780Y+073294155D01*
X+123540733Y+072937186D01*
X+123848875Y+072629044D01*
X+124205844Y+072379092D01*
X+124600793Y+072194924D01*
X+125021723Y+072082136D01*
X+125455844Y+072044155D01*
X+125889964Y+072082136D01*
X+126310894Y+072194924D01*
X+126705844Y+072379092D01*
X+127062813Y+072629044D01*
X+127370955Y+072937186D01*
X+127620907Y+073294155D01*
X+127805075Y+073689105D01*
X+127917863Y+074110035D01*
X+127955844Y+074544155D01*
D10*
X+124167844Y+078884155D02*
X+124167844Y+077204155D01*
X+124167844Y+077204155D02*
X+124727844Y+078044155D01*
X+124727844Y+078044155D02*
X+125287844Y+077204155D01*
X+125287844Y+077204155D02*
X+125287844Y+078884155D01*
X+125623844Y+077484155D02*
X+125903844Y+077204155D01*
X+125903844Y+077204155D02*
X+126463844Y+077204155D01*
X+126463844Y+077204155D02*
X+126743844Y+077484155D01*
X+126743844Y+077484155D02*
X+126743844Y+078044155D01*
X+126743844Y+078044155D02*
X+125623844Y+078884155D01*
X+125623844Y+078884155D02*
X+126743844Y+078884155D01*
D10*
X+100000000Y+063000000D02*
X+100000000Y+059000000D01*
D10*
X+099200000Y+059800000D02*
X+100000000Y+058500000D01*
D10*
X+100800000Y+059800000D02*
X+100000000Y+058500000D01*
D10*
X+097480000Y+055950000D02*
X+097480000Y+058050000D01*
X+097480000Y+055950000D02*
X+098880000Y+055950000D01*
X+097480000Y+057000000D02*
X+098530000Y+057000000D01*
X+099300000Y+055950000D02*
X+099649999Y+058050000D01*
X+099649999Y+058050000D02*
X+100000000Y+057000000D01*
X+100000000Y+057000000D02*
X+100350000Y+058050000D01*
X+100350000Y+058050000D02*
X+100700000Y+055950000D01*
X+101120000Y+055950000D02*
X+101120000Y+058050000D01*
X+101120000Y+055950000D02*
X+101820000Y+055950000D01*
X+101820000Y+055950000D02*
X+102520000Y+056650000D01*
X+102520000Y+056650000D02*
X+102520000Y+057350000D01*
X+102520000Y+057350000D02*
X+101820000Y+058050000D01*
X+101820000Y+058050000D02*
X+101120000Y+058050000D01*
D10*
X+082010000Y+136950000D02*
X+082010000Y+139049999D01*
X+082010000Y+136950000D02*
X+082710000Y+136950000D01*
X+082710000Y+136950000D02*
X+083410000Y+137649999D01*
X+083410000Y+137649999D02*
X+083410000Y+138350000D01*
X+083410000Y+138350000D02*
X+082710000Y+139049999D01*
X+082710000Y+139049999D02*
X+082010000Y+139049999D01*
X+083830000Y+139049999D02*
X+084530000Y+136950000D01*
X+084530000Y+136950000D02*
X+085230000Y+139049999D01*
X+084180000Y+138000000D02*
X+084880000Y+138000000D01*
X+085650000Y+136950000D02*
X+085650000Y+139049999D01*
X+085650000Y+136950000D02*
X+086700000Y+136950000D01*
X+086700000Y+136950000D02*
X+087050000Y+137299999D01*
X+087050000Y+137299999D02*
X+087050000Y+138000000D01*
X+087050000Y+138000000D02*
X+086700000Y+138000000D01*
X+086700000Y+138000000D02*
X+085650000Y+138000000D01*
X+087470000Y+139049999D02*
X+088170000Y+136950000D01*
X+088170000Y+136950000D02*
X+088870000Y+139049999D01*
X+087820000Y+138000000D02*
X+088520000Y+138000000D01*
X+089640000Y+136950000D02*
X+090340000Y+136950000D01*
X+090340000Y+136950000D02*
X+090690000Y+137299999D01*
X+090690000Y+137299999D02*
X+090690000Y+138700000D01*
X+090690000Y+138700000D02*
X+090340000Y+139049999D01*
X+090340000Y+139049999D02*
X+089640000Y+139049999D01*
X+089640000Y+139049999D02*
X+089290000Y+138700000D01*
X+089290000Y+138700000D02*
X+089290000Y+137299999D01*
X+089290000Y+137299999D02*
X+089640000Y+136950000D01*
X+092930000Y+136950000D02*
X+092930000Y+139049999D01*
X+092930000Y+139049999D02*
X+094330000Y+139049999D01*
X+095100000Y+136950000D02*
X+095800000Y+136950000D01*
X+095800000Y+136950000D02*
X+096150000Y+137299999D01*
X+096150000Y+137299999D02*
X+096150000Y+138700000D01*
X+096150000Y+138700000D02*
X+095800000Y+139049999D01*
X+095800000Y+139049999D02*
X+095100000Y+139049999D01*
X+095100000Y+139049999D02*
X+094750000Y+138700000D01*
X+094750000Y+138700000D02*
X+094750000Y+137299999D01*
X+094750000Y+137299999D02*
X+095100000Y+136950000D01*
X+096570000Y+136950000D02*
X+096920000Y+139049999D01*
X+096920000Y+139049999D02*
X+097270000Y+138000000D01*
X+097270000Y+138000000D02*
X+097620000Y+139049999D01*
X+097620000Y+139049999D02*
X+097970000Y+136950000D01*
X+098390000Y+136950000D02*
X+098390000Y+139049999D01*
X+098390000Y+136950000D02*
X+099790000Y+136950000D01*
X+098390000Y+138000000D02*
X+099440000Y+138000000D01*
X+098390000Y+139049999D02*
X+099790000Y+139049999D01*
X+100210000Y+136950000D02*
X+100210000Y+139049999D01*
X+100210000Y+136950000D02*
X+101260000Y+136950000D01*
X+101260000Y+136950000D02*
X+101610000Y+137299999D01*
X+101610000Y+137299999D02*
X+101610000Y+138000000D01*
X+101610000Y+138000000D02*
X+101260000Y+138000000D01*
X+101260000Y+138000000D02*
X+100210000Y+138000000D01*
X+100910000Y+138000000D02*
X+101610000Y+139049999D01*
X+103850000Y+136950000D02*
X+103850000Y+139049999D01*
X+103850000Y+136950000D02*
X+104899999Y+136950000D01*
X+104899999Y+136950000D02*
X+105250000Y+137299999D01*
X+105250000Y+137299999D02*
X+105250000Y+138000000D01*
X+105250000Y+138000000D02*
X+104899999Y+138000000D01*
X+104899999Y+138000000D02*
X+103850000Y+138000000D01*
X+107070000Y+137299999D02*
X+106720000Y+136950000D01*
X+106720000Y+136950000D02*
X+106020000Y+136950000D01*
X+106020000Y+136950000D02*
X+105670000Y+137299999D01*
X+105670000Y+137299999D02*
X+105670000Y+138700000D01*
X+105670000Y+138700000D02*
X+106020000Y+139049999D01*
X+106020000Y+139049999D02*
X+106720000Y+139049999D01*
X+106720000Y+139049999D02*
X+107070000Y+138700000D01*
X+107490000Y+136950000D02*
X+107490000Y+139049999D01*
X+107490000Y+136950000D02*
X+108540000Y+136950000D01*
X+107490000Y+138000000D02*
X+108540000Y+138000000D01*
X+107490000Y+139049999D02*
X+108540000Y+139049999D01*
X+108540000Y+136950000D02*
X+108890000Y+137299999D01*
X+108540000Y+138000000D02*
X+108890000Y+138350000D01*
X+108540000Y+137299999D02*
X+108540000Y+138000000D01*
X+108540000Y+138350000D02*
X+108540000Y+139049999D01*
X+111130000Y+136950000D02*
X+111130000Y+139049999D01*
X+111130000Y+136950000D02*
X+112180000Y+136950000D01*
X+112180000Y+136950000D02*
X+112530000Y+137299999D01*
X+112530000Y+137299999D02*
X+112530000Y+138000000D01*
X+112530000Y+138000000D02*
X+112180000Y+138000000D01*
X+112180000Y+138000000D02*
X+111130000Y+138000000D01*
X+111830000Y+138000000D02*
X+112530000Y+139049999D01*
X+112950000Y+137299999D02*
X+113300000Y+136950000D01*
X+113300000Y+136950000D02*
X+114000000Y+136950000D01*
X+114000000Y+136950000D02*
X+114350000Y+137299999D01*
X+114350000Y+137299999D02*
X+114350000Y+138000000D01*
X+114350000Y+138000000D02*
X+112950000Y+139049999D01*
X+112950000Y+139049999D02*
X+114350000Y+139049999D01*
X+115120000Y+138700000D02*
X+115120000Y+139049999D01*
X+115470000Y+138700000D02*
X+115470000Y+139049999D01*
X+116940000Y+136950000D02*
X+117640000Y+136950000D01*
X+117640000Y+136950000D02*
X+117990000Y+137299999D01*
X+117990000Y+137299999D02*
X+117990000Y+138700000D01*
X+117990000Y+138700000D02*
X+117640000Y+139049999D01*
X+117640000Y+139049999D02*
X+116940000Y+139049999D01*
X+116940000Y+139049999D02*
X+116590000Y+138700000D01*
X+116590000Y+138700000D02*
X+116590000Y+137299999D01*
X+116590000Y+137299999D02*
X+116940000Y+136950000D01*
X+116940000Y+137299999D02*
X+117640000Y+138700000D01*
M02*
