%FSLAX46Y46*%
%MOMM*%
%LPD*%
G04 DaPao Space Mouse rev1.3*
G04 Edge_Cuts*
%ADD10C,0.100*%
D10*
X+144000000Y+100000000D02*
X+143939699Y+102302782D01*
X+143758963Y+104599252D01*
X+143458286Y+106883116D01*
X+143038494Y+109148114D01*
X+142500736Y+111388037D01*
X+141846486Y+113596747D01*
X+141077538Y+115768189D01*
X+140196000Y+117896412D01*
X+139204287Y+119975581D01*
X+138105117Y+122000000D01*
X+136901504Y+123964117D01*
X+135596747Y+125862551D01*
X+134194422Y+127690097D01*
X+132698372Y+129441746D01*
X+131112698Y+131112698D01*
X+129441746Y+132698372D01*
X+127690097Y+134194422D01*
X+125862551Y+135596747D01*
X+123964117Y+136901504D01*
X+122000000Y+138105117D01*
X+119975581Y+139204287D01*
X+117896412Y+140196000D01*
X+115768189Y+141077538D01*
X+113596747Y+141846486D01*
X+111388037Y+142500736D01*
X+109148114Y+143038494D01*
X+106883116Y+143458286D01*
X+104599252Y+143758963D01*
X+102302782Y+143939699D01*
X+100000000Y+144000000D01*
X+097697217Y+143939699D01*
X+095400747Y+143758963D01*
X+093116883Y+143458286D01*
X+090851885Y+143038494D01*
X+088611962Y+142500736D01*
X+086403252Y+141846486D01*
X+084231810Y+141077538D01*
X+082103587Y+140196000D01*
X+080024418Y+139204287D01*
X+078000000Y+138105117D01*
X+076035882Y+136901504D01*
X+074137448Y+135596747D01*
X+072309902Y+134194422D01*
X+070558253Y+132698372D01*
X+068887301Y+131112698D01*
X+067301627Y+129441746D01*
X+065805577Y+127690097D01*
X+064403252Y+125862551D01*
X+063098495Y+123964117D01*
X+061894882Y+122000000D01*
X+060795712Y+119975581D01*
X+059803999Y+117896412D01*
X+058922461Y+115768189D01*
X+058153513Y+113596747D01*
X+057499263Y+111388037D01*
X+056961505Y+109148114D01*
X+056541713Y+106883116D01*
X+056241036Y+104599252D01*
X+056060300Y+102302782D01*
X+056000000Y+100000000D01*
X+056060300Y+097697217D01*
X+056241036Y+095400747D01*
X+056541713Y+093116883D01*
X+056961505Y+090851885D01*
X+057499263Y+088611962D01*
X+058153513Y+086403252D01*
X+058922461Y+084231810D01*
X+059803999Y+082103587D01*
X+060795712Y+080024418D01*
X+061894882Y+078000000D01*
X+063098495Y+076035882D01*
X+064403252Y+074137448D01*
X+065805577Y+072309902D01*
X+067301627Y+070558253D01*
X+068887301Y+068887301D01*
X+070558253Y+067301627D01*
X+072309902Y+065805577D01*
X+074137448Y+064403252D01*
X+076035882Y+063098495D01*
X+077999999Y+061894882D01*
X+080024418Y+060795712D01*
X+082103587Y+059803999D01*
X+084231810Y+058922461D01*
X+086403252Y+058153513D01*
X+088611962Y+057499263D01*
X+090851885Y+056961505D01*
X+093116883Y+056541713D01*
X+095400747Y+056241036D01*
X+097697217Y+056060300D01*
X+099999999Y+056000000D01*
X+102302782Y+056060300D01*
X+104599252Y+056241036D01*
X+106883116Y+056541713D01*
X+109148114Y+056961505D01*
X+111388037Y+057499263D01*
X+113596747Y+058153513D01*
X+115768189Y+058922461D01*
X+117896412Y+059803999D01*
X+119975581Y+060795712D01*
X+122000000Y+061894882D01*
X+123964117Y+063098495D01*
X+125862551Y+064403252D01*
X+127690097Y+065805577D01*
X+129441746Y+067301627D01*
X+131112698Y+068887301D01*
X+132698372Y+070558253D01*
X+134194422Y+072309902D01*
X+135596747Y+074137448D01*
X+136901504Y+076035882D01*
X+138105117Y+077999999D01*
X+139204287Y+080024418D01*
X+140196000Y+082103587D01*
X+141077538Y+084231810D01*
X+141846486Y+086403252D01*
X+142500736Y+088611962D01*
X+143038494Y+090851885D01*
X+143458286Y+093116883D01*
X+143758963Y+095400747D01*
X+143939699Y+097697217D01*
X+144000000Y+100000000D01*
%ADD10C,0.100*%
D10*
X+113500000Y+100000000D02*
X+113481498Y+100706535D01*
X+113426045Y+101411134D01*
X+113333792Y+102111865D01*
X+113204992Y+102806807D01*
X+113039998Y+103494057D01*
X+112839262Y+104171729D01*
X+112603335Y+104837967D01*
X+112332863Y+105490944D01*
X+112028588Y+106128871D01*
X+111691342Y+106750000D01*
X+111322052Y+107352626D01*
X+110921729Y+107935100D01*
X+110491470Y+108495825D01*
X+110032455Y+109033263D01*
X+109545941Y+109545941D01*
X+109033263Y+110032455D01*
X+108495825Y+110491470D01*
X+107935100Y+110921729D01*
X+107352626Y+111322052D01*
X+106750000Y+111691342D01*
X+106128871Y+112028588D01*
X+105490944Y+112332863D01*
X+104837967Y+112603335D01*
X+104171729Y+112839262D01*
X+103494057Y+113039998D01*
X+102806807Y+113204992D01*
X+102111865Y+113333792D01*
X+101411134Y+113426045D01*
X+100706535Y+113481498D01*
X+100000000Y+113500000D01*
X+099293464Y+113481498D01*
X+098588865Y+113426045D01*
X+097888134Y+113333792D01*
X+097193192Y+113204992D01*
X+096505942Y+113039998D01*
X+095828270Y+112839262D01*
X+095162032Y+112603335D01*
X+094509055Y+112332863D01*
X+093871128Y+112028588D01*
X+093250000Y+111691342D01*
X+092647373Y+111322052D01*
X+092064899Y+110921729D01*
X+091504174Y+110491470D01*
X+090966736Y+110032455D01*
X+090454058Y+109545941D01*
X+089967544Y+109033263D01*
X+089508529Y+108495825D01*
X+089078270Y+107935100D01*
X+088677947Y+107352626D01*
X+088308657Y+106750000D01*
X+087971411Y+106128871D01*
X+087667136Y+105490944D01*
X+087396664Y+104837967D01*
X+087160737Y+104171729D01*
X+086960001Y+103494057D01*
X+086795007Y+102806807D01*
X+086666207Y+102111865D01*
X+086573954Y+101411134D01*
X+086518501Y+100706535D01*
X+086500000Y+100000000D01*
X+086518501Y+099293464D01*
X+086573954Y+098588865D01*
X+086666207Y+097888134D01*
X+086795007Y+097193192D01*
X+086960001Y+096505942D01*
X+087160737Y+095828270D01*
X+087396664Y+095162032D01*
X+087667136Y+094509055D01*
X+087971411Y+093871128D01*
X+088308657Y+093250000D01*
X+088677947Y+092647373D01*
X+089078270Y+092064899D01*
X+089508529Y+091504174D01*
X+089967544Y+090966736D01*
X+090454058Y+090454058D01*
X+090966736Y+089967544D01*
X+091504174Y+089508529D01*
X+092064899Y+089078270D01*
X+092647373Y+088677947D01*
X+093250000Y+088308657D01*
X+093871128Y+087971411D01*
X+094509055Y+087667136D01*
X+095162032Y+087396664D01*
X+095828270Y+087160737D01*
X+096505942Y+086960001D01*
X+097193192Y+086795007D01*
X+097888134Y+086666207D01*
X+098588865Y+086573954D01*
X+099293464Y+086518501D01*
X+100000000Y+086500000D01*
X+100706535Y+086518501D01*
X+101411134Y+086573954D01*
X+102111865Y+086666207D01*
X+102806807Y+086795007D01*
X+103494057Y+086960001D01*
X+104171729Y+087160737D01*
X+104837967Y+087396664D01*
X+105490944Y+087667136D01*
X+106128871Y+087971411D01*
X+106750000Y+088308657D01*
X+107352626Y+088677947D01*
X+107935100Y+089078270D01*
X+108495825Y+089508529D01*
X+109033263Y+089967544D01*
X+109545941Y+090454058D01*
X+110032455Y+090966736D01*
X+110491470Y+091504174D01*
X+110921729Y+092064899D01*
X+111322052Y+092647373D01*
X+111691342Y+093250000D01*
X+112028588Y+093871128D01*
X+112332863Y+094509055D01*
X+112603335Y+095162032D01*
X+112839262Y+095828270D01*
X+113039998Y+096505942D01*
X+113204992Y+097193192D01*
X+113333792Y+097888134D01*
X+113426045Y+098588865D01*
X+113481498Y+099293464D01*
X+113500000Y+100000000D01*
M02*
