%FSLAX46Y46*%
%MOMM*%
%LPD*%
G04 DaPao Space Mouse rev1.3*
G04 F.Mask*
%ADD10C,0.100*%
D10*
X+143700000Y+100000000D02*
X+143640110Y+102287081D01*
X+143460606Y+104567893D01*
X+143161980Y+106836186D01*
X+142745050Y+109085740D01*
X+142210958Y+111310392D01*
X+141561169Y+113504042D01*
X+140797464Y+115660679D01*
X+139921936Y+117774391D01*
X+138936985Y+119839384D01*
X+137845310Y+121850000D01*
X+136649903Y+123800725D01*
X+135354042Y+125686215D01*
X+133961278Y+127501301D01*
X+132475428Y+129241007D01*
X+130900566Y+130900566D01*
X+129241007Y+132475428D01*
X+127501301Y+133961278D01*
X+125686215Y+135354042D01*
X+123800725Y+136649903D01*
X+121850000Y+137845310D01*
X+119839384Y+138936985D01*
X+117774391Y+139921936D01*
X+115660679Y+140797464D01*
X+113504042Y+141561169D01*
X+111310392Y+142210958D01*
X+109085740Y+142745050D01*
X+106836186Y+143161980D01*
X+104567893Y+143460606D01*
X+102287081Y+143640110D01*
X+100000000Y+143700000D01*
X+097712918Y+143640110D01*
X+095432106Y+143460606D01*
X+093163813Y+143161980D01*
X+090914259Y+142745050D01*
X+088689607Y+142210958D01*
X+086495957Y+141561169D01*
X+084339320Y+140797464D01*
X+082225608Y+139921936D01*
X+080160615Y+138936985D01*
X+078150000Y+137845310D01*
X+076199274Y+136649903D01*
X+074313784Y+135354042D01*
X+072498698Y+133961278D01*
X+070758992Y+132475428D01*
X+069099433Y+130900566D01*
X+067524571Y+129241007D01*
X+066038721Y+127501301D01*
X+064645957Y+125686215D01*
X+063350096Y+123800725D01*
X+062154689Y+121850000D01*
X+061063014Y+119839384D01*
X+060078063Y+117774391D01*
X+059202535Y+115660679D01*
X+058438830Y+113504042D01*
X+057789041Y+111310392D01*
X+057254949Y+109085740D01*
X+056838019Y+106836186D01*
X+056539393Y+104567893D01*
X+056359889Y+102287081D01*
X+056300000Y+100000000D01*
X+056359889Y+097712918D01*
X+056539393Y+095432106D01*
X+056838019Y+093163813D01*
X+057254949Y+090914259D01*
X+057789041Y+088689607D01*
X+058438830Y+086495957D01*
X+059202535Y+084339320D01*
X+060078063Y+082225608D01*
X+061063014Y+080160615D01*
X+062154689Y+078149999D01*
X+063350096Y+076199274D01*
X+064645957Y+074313784D01*
X+066038721Y+072498698D01*
X+067524571Y+070758992D01*
X+069099433Y+069099433D01*
X+070758992Y+067524571D01*
X+072498698Y+066038721D01*
X+074313784Y+064645957D01*
X+076199274Y+063350096D01*
X+078149999Y+062154689D01*
X+080160615Y+061063014D01*
X+082225608Y+060078063D01*
X+084339320Y+059202535D01*
X+086495957Y+058438830D01*
X+088689607Y+057789041D01*
X+090914259Y+057254949D01*
X+093163813Y+056838019D01*
X+095432106Y+056539393D01*
X+097712918Y+056359889D01*
X+099999999Y+056300000D01*
X+102287081Y+056359889D01*
X+104567893Y+056539393D01*
X+106836186Y+056838019D01*
X+109085740Y+057254949D01*
X+111310392Y+057789041D01*
X+113504042Y+058438830D01*
X+115660679Y+059202535D01*
X+117774391Y+060078063D01*
X+119839384Y+061063014D01*
X+121850000Y+062154689D01*
X+123800725Y+063350096D01*
X+125686215Y+064645957D01*
X+127501301Y+066038721D01*
X+129241007Y+067524571D01*
X+130900566Y+069099433D01*
X+132475428Y+070758992D01*
X+133961278Y+072498698D01*
X+135354042Y+074313784D01*
X+136649903Y+076199274D01*
X+137845310Y+078149999D01*
X+138936985Y+080160615D01*
X+139921936Y+082225608D01*
X+140797464Y+084339320D01*
X+141561169Y+086495957D01*
X+142210958Y+088689607D01*
X+142745050Y+090914259D01*
X+143161980Y+093163813D01*
X+143460606Y+095432106D01*
X+143640110Y+097712918D01*
X+143700000Y+100000000D01*
%ADD20C,4.4000*%
D20*
X+125455844Y+125455844D03*
%ADD21C,4.4000*%
D21*
X+074544155Y+125455844D03*
%ADD22C,4.4000*%
D22*
X+074544155Y+074544155D03*
%ADD23C,4.4000*%
D23*
X+125455844Y+074544155D03*
%ADD30R,1.50X2.00*%
D30*
X+091250000Y+061000000D03*
X+108750000Y+061000000D03*
X+091250000Y+064000000D03*
X+108750000Y+064000000D03*
X+091250000Y+067000000D03*
X+108750000Y+067000000D03*
X+091250000Y+070000000D03*
X+108750000Y+070000000D03*
X+091250000Y+073000000D03*
X+108750000Y+073000000D03*
X+091250000Y+076000000D03*
X+108750000Y+076000000D03*
X+091250000Y+079000000D03*
X+108750000Y+079000000D03*
%ADD31R,0.80X1.80*%
D31*
X+098750000Y+057000000D03*
X+099375000Y+057000000D03*
X+100000000Y+057000000D03*
X+100625000Y+057000000D03*
X+101250000Y+057000000D03*
%ADD32R,1.60X2.00*%
D32*
X+097500000Y+058500000D03*
X+102500000Y+058500000D03*
%ADD33C,2.00*%
D33*
X+094920000Y+112500000D03*
X+097460000Y+112500000D03*
X+100000000Y+112500000D03*
X+102540000Y+112500000D03*
X+105080000Y+112500000D03*
%ADD34R,0.40X1.20*%
D34*
X+098750000Y+120000000D03*
X+099250000Y+120000000D03*
X+099750000Y+120000000D03*
X+100250000Y+120000000D03*
X+100750000Y+120000000D03*
X+101250000Y+120000000D03*
%ADD35R,1.20X1.80*%
D35*
X+097500000Y+120800000D03*
X+102500000Y+120800000D03*
%ADD37R,0.55X1.00*%
D37*
X+117050000Y+096400000D03*
X+118000000Y+096400000D03*
X+118950000Y+096400000D03*
X+117050000Y+093600000D03*
X+118950000Y+093600000D03*
%ADD39C,2.00*%
D39*
X+081000000Y+115000000D03*
X+083000000Y+115000000D03*
%ADD40R,1.20X1.80*%
D40*
X+060000000Y+098500000D03*
X+060000000Y+100000000D03*
X+060000000Y+101500000D03*
%ADD41R,1.00X1.20*%
D41*
X+098500000Y+140000000D03*
X+101500000Y+140000000D03*
%ADD42R,1.00X1.20*%
D42*
X+110500000Y+066000000D03*
X+113500000Y+066000000D03*
X+110500000Y+074000000D03*
X+113500000Y+074000000D03*
%ADD50R,0.60X0.80*%
D50*
X+108000000Y+092000000D03*
X+110000000Y+092000000D03*
X+104000000Y+136000000D03*
X+106000000Y+136000000D03*
X+105000000Y+060000000D03*
X+105000000Y+062000000D03*
X+094000000Y+082000000D03*
X+096000000Y+082000000D03*
X+098000000Y+082000000D03*
%ADD51R,2.00X1.25*%
D51*
X+123000000Y+097000000D03*
X+087000000Y+112000000D03*
M02*
