M48
METRIC,TZ
FMAT,2
T01C2.200
T02C0.800
T03C1.000
T04C1.500
%
G90
G05
T01
X+1254558Y+1254558
X+0745441Y+1254558
X+0745441Y+0745441
X+1254558Y+0745441
T02
X+0975000Y+0585000
X+1025000Y+0585000
T03
X+0936000Y+0930000
X+0936000Y+1070000
X+0970000Y+0930000
X+0970000Y+1070000
X+1004000Y+0930000
X+1004000Y+1070000
X+1038000Y+0950000
X+1038000Y+1050000
X+0910000Y+1150000
X+0930000Y+1150000
T04
X+0923000Y+0912000
X+1077000Y+0912000
X+0923000Y+1088000
X+1077000Y+1088000
T00
M30
