%FSLAX46Y46*%
%MOMM*%
%LPD*%
G04 DaPao Space Mouse rev1.3*
G04 B.Cu*
%ADD10C,0.100*%
D10*
X+126700000Y+100000000D02*
X+126663408Y+101397370D01*
X+126553734Y+102790909D01*
X+126371278Y+104176800D01*
X+126116540Y+105551242D01*
X+125790219Y+106910468D01*
X+125393208Y+108250753D01*
X+124926597Y+109568424D01*
X+124391663Y+110859868D01*
X+123789874Y+112121546D01*
X+123122878Y+113350000D01*
X+122392504Y+114541862D01*
X+121600753Y+115693866D01*
X+120749797Y+116802854D01*
X+119841966Y+117865787D01*
X+118879751Y+118879751D01*
X+117865787Y+119841966D01*
X+116802854Y+120749797D01*
X+115693866Y+121600753D01*
X+114541862Y+122392504D01*
X+113350000Y+123122878D01*
X+112121546Y+123789874D01*
X+110859868Y+124391663D01*
X+109568424Y+124926597D01*
X+108250753Y+125393208D01*
X+106910468Y+125790219D01*
X+105551242Y+126116540D01*
X+104176800Y+126371278D01*
X+102790909Y+126553734D01*
X+101397370Y+126663408D01*
X+100000000Y+126700000D01*
X+098602629Y+126663408D01*
X+097209090Y+126553734D01*
X+095823199Y+126371278D01*
X+094448757Y+126116540D01*
X+093089531Y+125790219D01*
X+091749246Y+125393208D01*
X+090431575Y+124926597D01*
X+089140131Y+124391663D01*
X+087878453Y+123789874D01*
X+086650000Y+123122878D01*
X+085458137Y+122392504D01*
X+084306133Y+121600753D01*
X+083197145Y+120749797D01*
X+082134212Y+119841966D01*
X+081120248Y+118879751D01*
X+080158033Y+117865787D01*
X+079250202Y+116802854D01*
X+078399246Y+115693866D01*
X+077607495Y+114541862D01*
X+076877121Y+113350000D01*
X+076210125Y+112121546D01*
X+075608336Y+110859868D01*
X+075073402Y+109568424D01*
X+074606791Y+108250753D01*
X+074209780Y+106910468D01*
X+073883459Y+105551242D01*
X+073628721Y+104176800D01*
X+073446265Y+102790909D01*
X+073336591Y+101397370D01*
X+073300000Y+100000000D01*
X+073336591Y+098602629D01*
X+073446265Y+097209090D01*
X+073628721Y+095823199D01*
X+073883459Y+094448757D01*
X+074209780Y+093089531D01*
X+074606791Y+091749246D01*
X+075073402Y+090431575D01*
X+075608336Y+089140131D01*
X+076210125Y+087878453D01*
X+076877121Y+086649999D01*
X+077607495Y+085458137D01*
X+078399246Y+084306133D01*
X+079250202Y+083197145D01*
X+080158033Y+082134212D01*
X+081120248Y+081120248D01*
X+082134212Y+080158033D01*
X+083197145Y+079250202D01*
X+084306133Y+078399246D01*
X+085458137Y+077607495D01*
X+086649999Y+076877121D01*
X+087878453Y+076210125D01*
X+089140131Y+075608336D01*
X+090431575Y+075073402D01*
X+091749246Y+074606791D01*
X+093089531Y+074209780D01*
X+094448757Y+073883459D01*
X+095823199Y+073628721D01*
X+097209090Y+073446265D01*
X+098602629Y+073336591D01*
X+100000000Y+073300000D01*
X+101397370Y+073336591D01*
X+102790909Y+073446265D01*
X+104176800Y+073628721D01*
X+105551242Y+073883459D01*
X+106910468Y+074209780D01*
X+108250753Y+074606791D01*
X+109568424Y+075073402D01*
X+110859868Y+075608336D01*
X+112121546Y+076210125D01*
X+113350000Y+076877121D01*
X+114541862Y+077607495D01*
X+115693866Y+078399246D01*
X+116802854Y+079250202D01*
X+117865787Y+080158033D01*
X+118879751Y+081120248D01*
X+119841966Y+082134212D01*
X+120749797Y+083197145D01*
X+121600753Y+084306133D01*
X+122392504Y+085458137D01*
X+123122878Y+086649999D01*
X+123789874Y+087878453D01*
X+124391663Y+089140131D01*
X+124926597Y+090431575D01*
X+125393208Y+091749246D01*
X+125790219Y+093089531D01*
X+126116540Y+094448757D01*
X+126371278Y+095823199D01*
X+126553734Y+097209090D01*
X+126663408Y+098602629D01*
X+126700000Y+100000000D01*
M02*
