%FSLAX46Y46*%
%MOMM*%
%LPD*%
G04 DaPao Space Mouse rev1.3*
G04 F.SilkS*
%ADD10C,0.15*%
D10*
X+083600000Y+085100000D02*
X+096400000Y+085100000D01*
X+096400000Y+090900000D01*
X+083600000Y+090900000D01*
X+083600000Y+085100000D01*
D10*
X+089500000Y+088000000D02*
X+090500000Y+088000000D01*
X+090000000Y+087500000D02*
X+090000000Y+088500000D01*
D10*
X+084120000Y+087200000D02*
X+085720000Y+087200000D01*
X+084920000Y+088800000D01*
X+084120000Y+087200000D01*
D10*
X+088400000Y+081500000D02*
X+087900000Y+081000000D01*
X+087900000Y+081000000D02*
X+086900000Y+081000000D01*
X+086900000Y+081000000D02*
X+086400000Y+081500000D01*
X+086400000Y+081500000D02*
X+086400000Y+082500000D01*
X+086400000Y+082500000D02*
X+088400000Y+082500000D01*
X+088400000Y+082500000D02*
X+088400000Y+083500000D01*
X+088400000Y+083500000D02*
X+087900000Y+084000000D01*
X+087900000Y+084000000D02*
X+086900000Y+084000000D01*
X+086900000Y+084000000D02*
X+086400000Y+083500000D01*
X+089000000Y+081000000D02*
X+089500000Y+084000000D01*
X+089500000Y+084000000D02*
X+090000000Y+082500000D01*
X+090000000Y+082500000D02*
X+090500000Y+084000000D01*
X+090500000Y+084000000D02*
X+091000000Y+081000000D01*
X+093100000Y+081000000D02*
X+091600000Y+083000000D01*
X+091600000Y+083000000D02*
X+093600000Y+083000000D01*
X+093600000Y+083000000D02*
X+093600000Y+081000000D01*
X+093600000Y+083000000D02*
X+093600000Y+084000000D01*
D10*
X+086976000Y+083280000D02*
X+086616000Y+082920000D01*
X+086616000Y+082920000D02*
X+085896000Y+082920000D01*
X+085896000Y+082920000D02*
X+085536000Y+083280000D01*
X+085536000Y+083280000D02*
X+085536000Y+084720000D01*
X+085536000Y+084720000D02*
X+085896000Y+085080000D01*
X+085896000Y+085080000D02*
X+086616000Y+085080000D01*
X+086616000Y+085080000D02*
X+086976000Y+084720000D01*
X+086976000Y+084720000D02*
X+086976000Y+084000000D01*
X+086976000Y+084000000D02*
X+086256000Y+084000000D01*
X+087408000Y+085080000D02*
X+087408000Y+082920000D01*
X+087408000Y+082920000D02*
X+088128000Y+084000000D01*
X+088128000Y+084000000D02*
X+088848000Y+082920000D01*
X+088848000Y+082920000D02*
X+088848000Y+085080000D01*
X+089640000Y+082920000D02*
X+090360000Y+082920000D01*
X+090360000Y+082920000D02*
X+090720000Y+083280000D01*
X+090720000Y+083280000D02*
X+090720000Y+083640000D01*
X+090720000Y+083640000D02*
X+090360000Y+084000000D01*
X+090360000Y+084000000D02*
X+090720000Y+084360000D01*
X+090720000Y+084360000D02*
X+090720000Y+084720000D01*
X+090720000Y+084720000D02*
X+090360000Y+085080000D01*
X+090360000Y+085080000D02*
X+089640000Y+085080000D01*
X+089640000Y+085080000D02*
X+089280000Y+084720000D01*
X+089280000Y+084720000D02*
X+089280000Y+084360000D01*
X+089280000Y+084360000D02*
X+089640000Y+084000000D01*
X+089640000Y+084000000D02*
X+089280000Y+083640000D01*
X+089280000Y+083640000D02*
X+089280000Y+083280000D01*
X+089280000Y+083280000D02*
X+089640000Y+082920000D01*
X+091512000Y+084720000D02*
X+091512000Y+085080000D01*
X+091872000Y+084720000D02*
X+091872000Y+085080000D01*
X+093384000Y+082920000D02*
X+094104000Y+082920000D01*
X+094104000Y+082920000D02*
X+094464000Y+083280000D01*
X+094464000Y+083280000D02*
X+094464000Y+084720000D01*
X+094464000Y+084720000D02*
X+094104000Y+085080000D01*
X+094104000Y+085080000D02*
X+093384000Y+085080000D01*
X+093384000Y+085080000D02*
X+093024000Y+084720000D01*
X+093024000Y+084720000D02*
X+093024000Y+083280000D01*
X+093024000Y+083280000D02*
X+093384000Y+082920000D01*
X+093384000Y+083280000D02*
X+094104000Y+084720000D01*
D10*
X+085536000Y+084120000D02*
X+085536000Y+086280000D01*
X+085536000Y+086280000D02*
X+086976000Y+086280000D01*
X+087408000Y+085200000D02*
X+088848000Y+085200000D01*
X+090720000Y+084480000D02*
X+090360000Y+084120000D01*
X+090360000Y+084120000D02*
X+089640000Y+084120000D01*
X+089640000Y+084120000D02*
X+089280000Y+084480000D01*
X+089280000Y+084480000D02*
X+089280000Y+085920000D01*
X+089280000Y+085920000D02*
X+089640000Y+086280000D01*
X+089640000Y+086280000D02*
X+090360000Y+086280000D01*
X+090360000Y+086280000D02*
X+090720000Y+085920000D01*
X+091152000Y+084120000D02*
X+091152000Y+086280000D01*
X+091152000Y+086280000D02*
X+092592000Y+086280000D01*
X+093024000Y+084120000D02*
X+093024000Y+086280000D01*
X+093024000Y+085200000D02*
X+094464000Y+084120000D01*
X+093024000Y+085200000D02*
X+094464000Y+086280000D01*
D10*
X+081620000Y+092660000D02*
X+081620000Y+091340000D01*
X+081620000Y+091340000D02*
X+082500000Y+092660000D01*
X+082500000Y+092660000D02*
X+082500000Y+091340000D01*
X+082984000Y+091340000D02*
X+083424000Y+091340000D01*
X+083424000Y+091340000D02*
X+083644000Y+091560000D01*
X+083644000Y+091560000D02*
X+083644000Y+092440000D01*
X+083644000Y+092440000D02*
X+083424000Y+092660000D01*
X+083424000Y+092660000D02*
X+082984000Y+092660000D01*
X+082984000Y+092660000D02*
X+082764000Y+092440000D01*
X+082764000Y+092440000D02*
X+082764000Y+091560000D01*
X+082764000Y+091560000D02*
X+082984000Y+091340000D01*
X+083908000Y+092000000D02*
X+084788000Y+092000000D01*
X+085932000Y+091560000D02*
X+085712000Y+091340000D01*
X+085712000Y+091340000D02*
X+085272000Y+091340000D01*
X+085272000Y+091340000D02*
X+085052000Y+091560000D01*
X+085052000Y+091560000D02*
X+085052000Y+092000000D01*
X+085052000Y+092000000D02*
X+085932000Y+092000000D01*
X+085932000Y+092000000D02*
X+085932000Y+092440000D01*
X+085932000Y+092440000D02*
X+085712000Y+092660000D01*
X+085712000Y+092660000D02*
X+085272000Y+092660000D01*
X+085272000Y+092660000D02*
X+085052000Y+092440000D01*
X+086416000Y+091340000D02*
X+086856000Y+091340000D01*
X+086636000Y+091340000D02*
X+086636000Y+092660000D01*
X+086416000Y+092660000D02*
X+086856000Y+092660000D01*
X+088220000Y+091560000D02*
X+088000000Y+091340000D01*
X+088000000Y+091340000D02*
X+087560000Y+091340000D01*
X+087560000Y+091340000D02*
X+087340000Y+091560000D01*
X+087340000Y+091560000D02*
X+087340000Y+092440000D01*
X+087340000Y+092440000D02*
X+087560000Y+092660000D01*
X+087560000Y+092660000D02*
X+088000000Y+092660000D01*
X+088000000Y+092660000D02*
X+088220000Y+092440000D01*
X+088220000Y+092440000D02*
X+088220000Y+092000000D01*
X+088220000Y+092000000D02*
X+087780000Y+092000000D01*
D10*
X+087008000Y+091560000D02*
X+086788000Y+091340000D01*
X+086788000Y+091340000D02*
X+086348000Y+091340000D01*
X+086348000Y+091340000D02*
X+086128000Y+091560000D01*
X+086128000Y+091560000D02*
X+086128000Y+092440000D01*
X+086128000Y+092440000D02*
X+086348000Y+092660000D01*
X+086348000Y+092660000D02*
X+086788000Y+092660000D01*
X+086788000Y+092660000D02*
X+087008000Y+092440000D01*
X+087492000Y+091340000D02*
X+087932000Y+091340000D01*
X+087932000Y+091340000D02*
X+088152000Y+091560000D01*
X+088152000Y+091560000D02*
X+088152000Y+092440000D01*
X+088152000Y+092440000D02*
X+087932000Y+092660000D01*
X+087932000Y+092660000D02*
X+087492000Y+092660000D01*
X+087492000Y+092660000D02*
X+087272000Y+092440000D01*
X+087272000Y+092440000D02*
X+087272000Y+091560000D01*
X+087272000Y+091560000D02*
X+087492000Y+091340000D01*
X+088416000Y+092660000D02*
X+088416000Y+091340000D01*
X+088416000Y+091340000D02*
X+088856000Y+092000000D01*
X+088856000Y+092000000D02*
X+089295999Y+091340000D01*
X+089295999Y+091340000D02*
X+089295999Y+092660000D01*
X+089560000Y+092000000D02*
X+090440000Y+092000000D01*
X+091584000Y+091560000D02*
X+091364000Y+091340000D01*
X+091364000Y+091340000D02*
X+090924000Y+091340000D01*
X+090924000Y+091340000D02*
X+090704000Y+091560000D01*
X+090704000Y+091560000D02*
X+090704000Y+092440000D01*
X+090704000Y+092440000D02*
X+090924000Y+092660000D01*
X+090924000Y+092660000D02*
X+091364000Y+092660000D01*
X+091364000Y+092660000D02*
X+091584000Y+092440000D01*
X+091584000Y+092440000D02*
X+091584000Y+092000000D01*
X+091584000Y+092000000D02*
X+091144000Y+092000000D01*
X+091848000Y+092660000D02*
X+091848000Y+091340000D01*
X+091848000Y+091340000D02*
X+092728000Y+092660000D01*
X+092728000Y+092660000D02*
X+092728000Y+091340000D01*
X+092992000Y+091340000D02*
X+092992000Y+092660000D01*
X+092992000Y+091340000D02*
X+093432000Y+091340000D01*
X+093432000Y+091340000D02*
X+093872000Y+091780000D01*
X+093872000Y+091780000D02*
X+093872000Y+092220000D01*
X+093872000Y+092220000D02*
X+093432000Y+092660000D01*
X+093432000Y+092660000D02*
X+092992000Y+092660000D01*
D10*
X+094068000Y+092660000D02*
X+094068000Y+091340000D01*
X+094068000Y+091340000D02*
X+094948000Y+092660000D01*
X+094948000Y+092660000D02*
X+094948000Y+091340000D01*
X+096092000Y+091560000D02*
X+095872000Y+091340000D01*
X+095872000Y+091340000D02*
X+095432000Y+091340000D01*
X+095432000Y+091340000D02*
X+095212000Y+091560000D01*
X+095212000Y+091560000D02*
X+095212000Y+092440000D01*
X+095212000Y+092440000D02*
X+095432000Y+092660000D01*
X+095432000Y+092660000D02*
X+095872000Y+092660000D01*
X+095872000Y+092660000D02*
X+096092000Y+092440000D01*
D10*
X+093106000Y+095760000D02*
X+092886000Y+095540000D01*
X+092886000Y+095540000D02*
X+092446000Y+095540000D01*
X+092446000Y+095540000D02*
X+092226000Y+095760000D01*
X+092226000Y+095760000D02*
X+092226000Y+096200000D01*
X+092226000Y+096200000D02*
X+093106000Y+096200000D01*
X+093106000Y+096200000D02*
X+093106000Y+096640000D01*
X+093106000Y+096640000D02*
X+092886000Y+096860000D01*
X+092886000Y+096860000D02*
X+092446000Y+096860000D01*
X+092446000Y+096860000D02*
X+092226000Y+096640000D01*
X+093590000Y+095540000D02*
X+094030000Y+095540000D01*
X+093810000Y+095540000D02*
X+093810000Y+096860000D01*
X+093590000Y+096860000D02*
X+094030000Y+096860000D01*
X+095393999Y+095760000D02*
X+095173999Y+095540000D01*
X+095173999Y+095540000D02*
X+094734000Y+095540000D01*
X+094734000Y+095540000D02*
X+094514000Y+095760000D01*
X+094514000Y+095760000D02*
X+094514000Y+096640000D01*
X+094514000Y+096640000D02*
X+094734000Y+096860000D01*
X+094734000Y+096860000D02*
X+095173999Y+096860000D01*
X+095173999Y+096860000D02*
X+095393999Y+096640000D01*
X+095393999Y+096640000D02*
X+095393999Y+096200000D01*
X+095393999Y+096200000D02*
X+094954000Y+096200000D01*
D10*
X+103600000Y+085100000D02*
X+116400000Y+085100000D01*
X+116400000Y+090900000D01*
X+103600000Y+090900000D01*
X+103600000Y+085100000D01*
D10*
X+109500000Y+088000000D02*
X+110500000Y+088000000D01*
X+110000000Y+087500000D02*
X+110000000Y+088500000D01*
D10*
X+104120000Y+087200000D02*
X+105720000Y+087200000D01*
X+104920000Y+088800000D01*
X+104120000Y+087200000D01*
D10*
X+108400000Y+081500000D02*
X+107900000Y+081000000D01*
X+107900000Y+081000000D02*
X+106900000Y+081000000D01*
X+106900000Y+081000000D02*
X+106400000Y+081500000D01*
X+106400000Y+081500000D02*
X+106400000Y+082500000D01*
X+106400000Y+082500000D02*
X+108400000Y+082500000D01*
X+108400000Y+082500000D02*
X+108400000Y+083500000D01*
X+108400000Y+083500000D02*
X+107900000Y+084000000D01*
X+107900000Y+084000000D02*
X+106900000Y+084000000D01*
X+106900000Y+084000000D02*
X+106400000Y+083500000D01*
X+109000000Y+081000000D02*
X+109500000Y+084000000D01*
X+109500000Y+084000000D02*
X+110000000Y+082500000D01*
X+110000000Y+082500000D02*
X+110500000Y+084000000D01*
X+110500000Y+084000000D02*
X+111000000Y+081000000D01*
X+113600000Y+081000000D02*
X+111600000Y+081000000D01*
X+111600000Y+081000000D02*
X+111600000Y+082500000D01*
X+111600000Y+082500000D02*
X+113100000Y+082500000D01*
X+113100000Y+082500000D02*
X+113600000Y+083000000D01*
X+113600000Y+083000000D02*
X+113600000Y+083500000D01*
X+113600000Y+083500000D02*
X+113100000Y+084000000D01*
X+113100000Y+084000000D02*
X+112100000Y+084000000D01*
X+112100000Y+084000000D02*
X+111600000Y+083500000D01*
D10*
X+106976000Y+083280000D02*
X+106616000Y+082920000D01*
X+106616000Y+082920000D02*
X+105896000Y+082920000D01*
X+105896000Y+082920000D02*
X+105536000Y+083280000D01*
X+105536000Y+083280000D02*
X+105536000Y+084720000D01*
X+105536000Y+084720000D02*
X+105896000Y+085080000D01*
X+105896000Y+085080000D02*
X+106616000Y+085080000D01*
X+106616000Y+085080000D02*
X+106976000Y+084720000D01*
X+106976000Y+084720000D02*
X+106976000Y+084000000D01*
X+106976000Y+084000000D02*
X+106256000Y+084000000D01*
X+107408000Y+085080000D02*
X+107408000Y+082920000D01*
X+107408000Y+082920000D02*
X+108128000Y+084000000D01*
X+108128000Y+084000000D02*
X+108848000Y+082920000D01*
X+108848000Y+082920000D02*
X+108848000Y+085080000D01*
X+109640000Y+082920000D02*
X+110360000Y+082920000D01*
X+110360000Y+082920000D02*
X+110720000Y+083280000D01*
X+110720000Y+083280000D02*
X+110720000Y+083640000D01*
X+110720000Y+083640000D02*
X+110360000Y+084000000D01*
X+110360000Y+084000000D02*
X+110720000Y+084360000D01*
X+110720000Y+084360000D02*
X+110720000Y+084720000D01*
X+110720000Y+084720000D02*
X+110360000Y+085080000D01*
X+110360000Y+085080000D02*
X+109640000Y+085080000D01*
X+109640000Y+085080000D02*
X+109280000Y+084720000D01*
X+109280000Y+084720000D02*
X+109280000Y+084360000D01*
X+109280000Y+084360000D02*
X+109640000Y+084000000D01*
X+109640000Y+084000000D02*
X+109280000Y+083640000D01*
X+109280000Y+083640000D02*
X+109280000Y+083280000D01*
X+109280000Y+083280000D02*
X+109640000Y+082920000D01*
X+111512000Y+084720000D02*
X+111512000Y+085080000D01*
X+111872000Y+084720000D02*
X+111872000Y+085080000D01*
X+113384000Y+082920000D02*
X+114104000Y+082920000D01*
X+114104000Y+082920000D02*
X+114464000Y+083280000D01*
X+114464000Y+083280000D02*
X+114464000Y+084720000D01*
X+114464000Y+084720000D02*
X+114104000Y+085080000D01*
X+114104000Y+085080000D02*
X+113384000Y+085080000D01*
X+113384000Y+085080000D02*
X+113024000Y+084720000D01*
X+113024000Y+084720000D02*
X+113024000Y+083280000D01*
X+113024000Y+083280000D02*
X+113384000Y+082920000D01*
X+113384000Y+083280000D02*
X+114104000Y+084720000D01*
D10*
X+105536000Y+084120000D02*
X+105536000Y+086280000D01*
X+105536000Y+084120000D02*
X+106616000Y+084120000D01*
X+106616000Y+084120000D02*
X+106976000Y+084480000D01*
X+106976000Y+084480000D02*
X+106976000Y+085200000D01*
X+106976000Y+085200000D02*
X+106616000Y+085200000D01*
X+106616000Y+085200000D02*
X+105536000Y+085200000D01*
X+106256000Y+085200000D02*
X+106976000Y+086280000D01*
X+107408000Y+085200000D02*
X+108848000Y+085200000D01*
X+110720000Y+084480000D02*
X+110360000Y+084120000D01*
X+110360000Y+084120000D02*
X+109640000Y+084120000D01*
X+109640000Y+084120000D02*
X+109280000Y+084480000D01*
X+109280000Y+084480000D02*
X+109280000Y+085920000D01*
X+109280000Y+085920000D02*
X+109640000Y+086280000D01*
X+109640000Y+086280000D02*
X+110360000Y+086280000D01*
X+110360000Y+086280000D02*
X+110720000Y+085920000D01*
X+111152000Y+084120000D02*
X+111152000Y+086280000D01*
X+111152000Y+086280000D02*
X+112592000Y+086280000D01*
X+113024000Y+084120000D02*
X+113024000Y+086280000D01*
X+113024000Y+085200000D02*
X+114464000Y+084120000D01*
X+113024000Y+085200000D02*
X+114464000Y+086280000D01*
D10*
X+101620000Y+092660000D02*
X+101620000Y+091340000D01*
X+101620000Y+091340000D02*
X+102500000Y+092660000D01*
X+102500000Y+092660000D02*
X+102500000Y+091340000D01*
X+102984000Y+091340000D02*
X+103424000Y+091340000D01*
X+103424000Y+091340000D02*
X+103644000Y+091560000D01*
X+103644000Y+091560000D02*
X+103644000Y+092440000D01*
X+103644000Y+092440000D02*
X+103424000Y+092660000D01*
X+103424000Y+092660000D02*
X+102984000Y+092660000D01*
X+102984000Y+092660000D02*
X+102764000Y+092440000D01*
X+102764000Y+092440000D02*
X+102764000Y+091560000D01*
X+102764000Y+091560000D02*
X+102984000Y+091340000D01*
X+103908000Y+092000000D02*
X+104788000Y+092000000D01*
X+105932000Y+091560000D02*
X+105712000Y+091340000D01*
X+105712000Y+091340000D02*
X+105272000Y+091340000D01*
X+105272000Y+091340000D02*
X+105052000Y+091560000D01*
X+105052000Y+091560000D02*
X+105052000Y+092000000D01*
X+105052000Y+092000000D02*
X+105932000Y+092000000D01*
X+105932000Y+092000000D02*
X+105932000Y+092440000D01*
X+105932000Y+092440000D02*
X+105712000Y+092660000D01*
X+105712000Y+092660000D02*
X+105272000Y+092660000D01*
X+105272000Y+092660000D02*
X+105052000Y+092440000D01*
X+106416000Y+091340000D02*
X+106856000Y+091340000D01*
X+106636000Y+091340000D02*
X+106636000Y+092660000D01*
X+106416000Y+092660000D02*
X+106856000Y+092660000D01*
X+108220000Y+091560000D02*
X+108000000Y+091340000D01*
X+108000000Y+091340000D02*
X+107560000Y+091340000D01*
X+107560000Y+091340000D02*
X+107340000Y+091560000D01*
X+107340000Y+091560000D02*
X+107340000Y+092440000D01*
X+107340000Y+092440000D02*
X+107560000Y+092660000D01*
X+107560000Y+092660000D02*
X+108000000Y+092660000D01*
X+108000000Y+092660000D02*
X+108220000Y+092440000D01*
X+108220000Y+092440000D02*
X+108220000Y+092000000D01*
X+108220000Y+092000000D02*
X+107780000Y+092000000D01*
D10*
X+107008000Y+091560000D02*
X+106788000Y+091340000D01*
X+106788000Y+091340000D02*
X+106348000Y+091340000D01*
X+106348000Y+091340000D02*
X+106128000Y+091560000D01*
X+106128000Y+091560000D02*
X+106128000Y+092440000D01*
X+106128000Y+092440000D02*
X+106348000Y+092660000D01*
X+106348000Y+092660000D02*
X+106788000Y+092660000D01*
X+106788000Y+092660000D02*
X+107008000Y+092440000D01*
X+107492000Y+091340000D02*
X+107932000Y+091340000D01*
X+107932000Y+091340000D02*
X+108152000Y+091560000D01*
X+108152000Y+091560000D02*
X+108152000Y+092440000D01*
X+108152000Y+092440000D02*
X+107932000Y+092660000D01*
X+107932000Y+092660000D02*
X+107492000Y+092660000D01*
X+107492000Y+092660000D02*
X+107272000Y+092440000D01*
X+107272000Y+092440000D02*
X+107272000Y+091560000D01*
X+107272000Y+091560000D02*
X+107492000Y+091340000D01*
X+108416000Y+092660000D02*
X+108416000Y+091340000D01*
X+108416000Y+091340000D02*
X+108856000Y+092000000D01*
X+108856000Y+092000000D02*
X+109295999Y+091340000D01*
X+109295999Y+091340000D02*
X+109295999Y+092660000D01*
X+109560000Y+092000000D02*
X+110440000Y+092000000D01*
X+111584000Y+091560000D02*
X+111364000Y+091340000D01*
X+111364000Y+091340000D02*
X+110924000Y+091340000D01*
X+110924000Y+091340000D02*
X+110704000Y+091560000D01*
X+110704000Y+091560000D02*
X+110704000Y+092440000D01*
X+110704000Y+092440000D02*
X+110924000Y+092660000D01*
X+110924000Y+092660000D02*
X+111364000Y+092660000D01*
X+111364000Y+092660000D02*
X+111584000Y+092440000D01*
X+111584000Y+092440000D02*
X+111584000Y+092000000D01*
X+111584000Y+092000000D02*
X+111144000Y+092000000D01*
X+111848000Y+092660000D02*
X+111848000Y+091340000D01*
X+111848000Y+091340000D02*
X+112728000Y+092660000D01*
X+112728000Y+092660000D02*
X+112728000Y+091340000D01*
X+112992000Y+091340000D02*
X+112992000Y+092660000D01*
X+112992000Y+091340000D02*
X+113432000Y+091340000D01*
X+113432000Y+091340000D02*
X+113872000Y+091780000D01*
X+113872000Y+091780000D02*
X+113872000Y+092220000D01*
X+113872000Y+092220000D02*
X+113432000Y+092660000D01*
X+113432000Y+092660000D02*
X+112992000Y+092660000D01*
D10*
X+114068000Y+092660000D02*
X+114068000Y+091340000D01*
X+114068000Y+091340000D02*
X+114948000Y+092660000D01*
X+114948000Y+092660000D02*
X+114948000Y+091340000D01*
X+116092000Y+091560000D02*
X+115872000Y+091340000D01*
X+115872000Y+091340000D02*
X+115432000Y+091340000D01*
X+115432000Y+091340000D02*
X+115212000Y+091560000D01*
X+115212000Y+091560000D02*
X+115212000Y+092440000D01*
X+115212000Y+092440000D02*
X+115432000Y+092660000D01*
X+115432000Y+092660000D02*
X+115872000Y+092660000D01*
X+115872000Y+092660000D02*
X+116092000Y+092440000D01*
D10*
X+113106000Y+095760000D02*
X+112886000Y+095540000D01*
X+112886000Y+095540000D02*
X+112446000Y+095540000D01*
X+112446000Y+095540000D02*
X+112226000Y+095760000D01*
X+112226000Y+095760000D02*
X+112226000Y+096200000D01*
X+112226000Y+096200000D02*
X+113106000Y+096200000D01*
X+113106000Y+096200000D02*
X+113106000Y+096640000D01*
X+113106000Y+096640000D02*
X+112886000Y+096860000D01*
X+112886000Y+096860000D02*
X+112446000Y+096860000D01*
X+112446000Y+096860000D02*
X+112226000Y+096640000D01*
X+113590000Y+095540000D02*
X+114030000Y+095540000D01*
X+113810000Y+095540000D02*
X+113810000Y+096860000D01*
X+113590000Y+096860000D02*
X+114030000Y+096860000D01*
X+115393999Y+095760000D02*
X+115173999Y+095540000D01*
X+115173999Y+095540000D02*
X+114734000Y+095540000D01*
X+114734000Y+095540000D02*
X+114514000Y+095760000D01*
X+114514000Y+095760000D02*
X+114514000Y+096640000D01*
X+114514000Y+096640000D02*
X+114734000Y+096860000D01*
X+114734000Y+096860000D02*
X+115173999Y+096860000D01*
X+115173999Y+096860000D02*
X+115393999Y+096640000D01*
X+115393999Y+096640000D02*
X+115393999Y+096200000D01*
X+115393999Y+096200000D02*
X+114954000Y+096200000D01*
D10*
X+074350000Y+096390000D02*
X+081650000Y+096390000D01*
X+081650000Y+103610000D01*
X+074350000Y+103610000D01*
X+074350000Y+096390000D01*
D10*
X+076400000Y+093500000D02*
X+075900000Y+093000000D01*
X+075900000Y+093000000D02*
X+074900000Y+093000000D01*
X+074900000Y+093000000D02*
X+074400000Y+093500000D01*
X+074400000Y+093500000D02*
X+074400000Y+094500000D01*
X+074400000Y+094500000D02*
X+076400000Y+094500000D01*
X+076400000Y+094500000D02*
X+076400000Y+095500000D01*
X+076400000Y+095500000D02*
X+075900000Y+096000000D01*
X+075900000Y+096000000D02*
X+074900000Y+096000000D01*
X+074900000Y+096000000D02*
X+074400000Y+095500000D01*
X+077000000Y+093000000D02*
X+077500000Y+096000000D01*
X+077500000Y+096000000D02*
X+078000000Y+094500000D01*
X+078000000Y+094500000D02*
X+078500000Y+096000000D01*
X+078500000Y+096000000D02*
X+079000000Y+093000000D01*
X+081600000Y+093500000D02*
X+081100000Y+093000000D01*
X+081100000Y+093000000D02*
X+080100000Y+093000000D01*
X+080100000Y+093000000D02*
X+079600000Y+093500000D01*
X+079600000Y+093500000D02*
X+079600000Y+095500000D01*
X+079600000Y+095500000D02*
X+080100000Y+096000000D01*
X+080100000Y+096000000D02*
X+081100000Y+096000000D01*
X+081100000Y+096000000D02*
X+081600000Y+095500000D01*
X+081600000Y+095500000D02*
X+081600000Y+094500000D01*
X+081600000Y+094500000D02*
X+079600000Y+094500000D01*
D10*
X+070295999Y+095280000D02*
X+069936000Y+094920000D01*
X+069936000Y+094920000D02*
X+069216000Y+094920000D01*
X+069216000Y+094920000D02*
X+068856000Y+095280000D01*
X+068856000Y+095280000D02*
X+068856000Y+096000000D01*
X+068856000Y+096000000D02*
X+070295999Y+096000000D01*
X+070295999Y+096000000D02*
X+070295999Y+096720000D01*
X+070295999Y+096720000D02*
X+069936000Y+097080000D01*
X+069936000Y+097080000D02*
X+069216000Y+097080000D01*
X+069216000Y+097080000D02*
X+068856000Y+096720000D01*
X+070728000Y+094920000D02*
X+070728000Y+097080000D01*
X+070728000Y+096000000D02*
X+072167999Y+094920000D01*
X+070728000Y+096000000D02*
X+072167999Y+097080000D01*
X+072600000Y+094920000D02*
X+072600000Y+097080000D01*
X+074039999Y+094920000D02*
X+074039999Y+097080000D01*
X+072600000Y+096000000D02*
X+074039999Y+096000000D01*
X+074472000Y+094920000D02*
X+074472000Y+097080000D01*
X+074472000Y+097080000D02*
X+075911999Y+097080000D01*
X+076344000Y+094920000D02*
X+076344000Y+097080000D01*
X+076344000Y+097080000D02*
X+077783999Y+097080000D01*
X+078216000Y+094920000D02*
X+078216000Y+097080000D01*
X+078216000Y+094920000D02*
X+079295999Y+094920000D01*
X+078216000Y+096000000D02*
X+079295999Y+096000000D01*
X+078216000Y+097080000D02*
X+079295999Y+097080000D01*
X+079295999Y+094920000D02*
X+079655999Y+095280000D01*
X+079295999Y+096000000D02*
X+079655999Y+096360000D01*
X+079295999Y+095280000D02*
X+079295999Y+096000000D01*
X+079295999Y+096360000D02*
X+079295999Y+097080000D01*
X+080088000Y+097080000D02*
X+080808000Y+094920000D01*
X+080808000Y+094920000D02*
X+081527999Y+097080000D01*
X+080448000Y+096000000D02*
X+081167999Y+096000000D01*
X+082320000Y+094920000D02*
X+083039999Y+094920000D01*
X+083039999Y+094920000D02*
X+083399999Y+095280000D01*
X+083399999Y+095280000D02*
X+083399999Y+096720000D01*
X+083399999Y+096720000D02*
X+083039999Y+097080000D01*
X+083039999Y+097080000D02*
X+082320000Y+097080000D01*
X+082320000Y+097080000D02*
X+081960000Y+096720000D01*
X+081960000Y+096720000D02*
X+081960000Y+095280000D01*
X+081960000Y+095280000D02*
X+082320000Y+094920000D01*
X+082320000Y+095280000D02*
X+083039999Y+096720000D01*
X+084192000Y+095280000D02*
X+084551999Y+094920000D01*
X+084551999Y+094920000D02*
X+084551999Y+097080000D01*
X+084192000Y+097080000D02*
X+084911999Y+097080000D01*
X+086064000Y+094920000D02*
X+086783999Y+094920000D01*
X+086783999Y+094920000D02*
X+087143999Y+095280000D01*
X+087143999Y+095280000D02*
X+087143999Y+096720000D01*
X+087143999Y+096720000D02*
X+086783999Y+097080000D01*
X+086783999Y+097080000D02*
X+086064000Y+097080000D01*
X+086064000Y+097080000D02*
X+085704000Y+096720000D01*
X+085704000Y+096720000D02*
X+085704000Y+095280000D01*
X+085704000Y+095280000D02*
X+086064000Y+094920000D01*
X+086064000Y+095280000D02*
X+086783999Y+096720000D01*
D10*
X+074472000Y+096120000D02*
X+074472000Y+098280000D01*
X+074472000Y+096120000D02*
X+075551999Y+096120000D01*
X+074472000Y+097200000D02*
X+075551999Y+097200000D01*
X+074472000Y+098280000D02*
X+075551999Y+098280000D01*
X+075551999Y+096120000D02*
X+075911999Y+096480000D01*
X+075551999Y+097200000D02*
X+075911999Y+097560000D01*
X+075551999Y+096480000D02*
X+075551999Y+097200000D01*
X+075551999Y+097560000D02*
X+075551999Y+098280000D01*
X+076344000Y+098280000D02*
X+077064000Y+096120000D01*
X+077064000Y+096120000D02*
X+077783999Y+098280000D01*
X+076704000Y+097200000D02*
X+077423999Y+097200000D01*
X+079655999Y+096480000D02*
X+079295999Y+096120000D01*
X+079295999Y+096120000D02*
X+078576000Y+096120000D01*
X+078576000Y+096120000D02*
X+078216000Y+096480000D01*
X+078216000Y+096480000D02*
X+078216000Y+097920000D01*
X+078216000Y+097920000D02*
X+078576000Y+098280000D01*
X+078576000Y+098280000D02*
X+079295999Y+098280000D01*
X+079295999Y+098280000D02*
X+079655999Y+097920000D01*
X+080088000Y+096120000D02*
X+080088000Y+098280000D01*
X+080088000Y+097200000D02*
X+081527999Y+096120000D01*
X+080088000Y+097200000D02*
X+081527999Y+098280000D01*
D10*
X+078000000Y+100000000D02*
X+073500000Y+100000000D01*
D10*
X+073500000Y+100000000D02*
X+074500000Y+099400000D01*
D10*
X+073500000Y+100000000D02*
X+074500000Y+100600000D01*
D10*
X+073950000Y+095950000D02*
X+075550000Y+095950000D01*
X+074750000Y+097550000D01*
X+073950000Y+095950000D01*
D10*
X+074045999Y+101810000D02*
X+073826000Y+101590000D01*
X+073826000Y+101590000D02*
X+073386000Y+101590000D01*
X+073386000Y+101590000D02*
X+073166000Y+101810000D01*
X+073166000Y+101810000D02*
X+073166000Y+102250000D01*
X+073166000Y+102250000D02*
X+074045999Y+102250000D01*
X+074045999Y+102250000D02*
X+074045999Y+102690000D01*
X+074045999Y+102690000D02*
X+073826000Y+102910000D01*
X+073826000Y+102910000D02*
X+073386000Y+102910000D01*
X+073386000Y+102910000D02*
X+073166000Y+102690000D01*
X+074530000Y+101590000D02*
X+074970000Y+101590000D01*
X+074750000Y+101590000D02*
X+074750000Y+102910000D01*
X+074530000Y+102910000D02*
X+074970000Y+102910000D01*
X+076333999Y+101810000D02*
X+076113999Y+101590000D01*
X+076113999Y+101590000D02*
X+075673999Y+101590000D01*
X+075673999Y+101590000D02*
X+075454000Y+101810000D01*
X+075454000Y+101810000D02*
X+075454000Y+102690000D01*
X+075454000Y+102690000D02*
X+075673999Y+102910000D01*
X+075673999Y+102910000D02*
X+076113999Y+102910000D01*
X+076113999Y+102910000D02*
X+076333999Y+102690000D01*
X+076333999Y+102690000D02*
X+076333999Y+102250000D01*
X+076333999Y+102250000D02*
X+075893999Y+102250000D01*
D10*
X+080545999Y+101810000D02*
X+080326000Y+101590000D01*
X+080326000Y+101590000D02*
X+079886000Y+101590000D01*
X+079886000Y+101590000D02*
X+079666000Y+101810000D01*
X+079666000Y+101810000D02*
X+079666000Y+102690000D01*
X+079666000Y+102690000D02*
X+079886000Y+102910000D01*
X+079886000Y+102910000D02*
X+080326000Y+102910000D01*
X+080326000Y+102910000D02*
X+080545999Y+102690000D01*
X+080545999Y+102690000D02*
X+080545999Y+102250000D01*
X+080545999Y+102250000D02*
X+080106000Y+102250000D01*
X+080810000Y+102910000D02*
X+080810000Y+101590000D01*
X+080810000Y+101590000D02*
X+081690000Y+102910000D01*
X+081690000Y+102910000D02*
X+081690000Y+101590000D01*
X+081954000Y+101590000D02*
X+081954000Y+102910000D01*
X+081954000Y+101590000D02*
X+082393999Y+101590000D01*
X+082393999Y+101590000D02*
X+082833999Y+102030000D01*
X+082833999Y+102030000D02*
X+082833999Y+102470000D01*
X+082833999Y+102470000D02*
X+082393999Y+102910000D01*
X+082393999Y+102910000D02*
X+081954000Y+102910000D01*
D10*
X+118350000Y+096390000D02*
X+125650000Y+096390000D01*
X+125650000Y+103610000D01*
X+118350000Y+103610000D01*
X+118350000Y+096390000D01*
D10*
X+120400000Y+093500000D02*
X+119900000Y+093000000D01*
X+119900000Y+093000000D02*
X+118900000Y+093000000D01*
X+118900000Y+093000000D02*
X+118400000Y+093500000D01*
X+118400000Y+093500000D02*
X+118400000Y+094500000D01*
X+118400000Y+094500000D02*
X+120400000Y+094500000D01*
X+120400000Y+094500000D02*
X+120400000Y+095500000D01*
X+120400000Y+095500000D02*
X+119900000Y+096000000D01*
X+119900000Y+096000000D02*
X+118900000Y+096000000D01*
X+118900000Y+096000000D02*
X+118400000Y+095500000D01*
X+121000000Y+093000000D02*
X+121500000Y+096000000D01*
X+121500000Y+096000000D02*
X+122000000Y+094500000D01*
X+122000000Y+094500000D02*
X+122500000Y+096000000D01*
X+122500000Y+096000000D02*
X+123000000Y+093000000D01*
X+123600000Y+093000000D02*
X+125600000Y+093000000D01*
X+125600000Y+093000000D02*
X+124600000Y+096000000D01*
D10*
X+114295999Y+095280000D02*
X+113936000Y+094920000D01*
X+113936000Y+094920000D02*
X+113216000Y+094920000D01*
X+113216000Y+094920000D02*
X+112856000Y+095280000D01*
X+112856000Y+095280000D02*
X+112856000Y+096000000D01*
X+112856000Y+096000000D02*
X+114295999Y+096000000D01*
X+114295999Y+096000000D02*
X+114295999Y+096720000D01*
X+114295999Y+096720000D02*
X+113936000Y+097080000D01*
X+113936000Y+097080000D02*
X+113216000Y+097080000D01*
X+113216000Y+097080000D02*
X+112856000Y+096720000D01*
X+114728000Y+094920000D02*
X+114728000Y+097080000D01*
X+114728000Y+096000000D02*
X+116167999Y+094920000D01*
X+114728000Y+096000000D02*
X+116167999Y+097080000D01*
X+116600000Y+094920000D02*
X+116600000Y+097080000D01*
X+118039999Y+094920000D02*
X+118039999Y+097080000D01*
X+116600000Y+096000000D02*
X+118039999Y+096000000D01*
X+118472000Y+094920000D02*
X+118472000Y+097080000D01*
X+118472000Y+097080000D02*
X+119911999Y+097080000D01*
X+120344000Y+094920000D02*
X+120344000Y+097080000D01*
X+120344000Y+097080000D02*
X+121783999Y+097080000D01*
X+122216000Y+094920000D02*
X+122216000Y+097080000D01*
X+122216000Y+094920000D02*
X+123295999Y+094920000D01*
X+122216000Y+096000000D02*
X+123295999Y+096000000D01*
X+122216000Y+097080000D02*
X+123295999Y+097080000D01*
X+123295999Y+094920000D02*
X+123655999Y+095280000D01*
X+123295999Y+096000000D02*
X+123655999Y+096360000D01*
X+123295999Y+095280000D02*
X+123295999Y+096000000D01*
X+123295999Y+096360000D02*
X+123295999Y+097080000D01*
X+124088000Y+097080000D02*
X+124808000Y+094920000D01*
X+124808000Y+094920000D02*
X+125527999Y+097080000D01*
X+124448000Y+096000000D02*
X+125167999Y+096000000D01*
X+126320000Y+094920000D02*
X+127039999Y+094920000D01*
X+127039999Y+094920000D02*
X+127399999Y+095280000D01*
X+127399999Y+095280000D02*
X+127399999Y+096720000D01*
X+127399999Y+096720000D02*
X+127039999Y+097080000D01*
X+127039999Y+097080000D02*
X+126320000Y+097080000D01*
X+126320000Y+097080000D02*
X+125960000Y+096720000D01*
X+125960000Y+096720000D02*
X+125960000Y+095280000D01*
X+125960000Y+095280000D02*
X+126320000Y+094920000D01*
X+126320000Y+095280000D02*
X+127039999Y+096720000D01*
X+128192000Y+095280000D02*
X+128551999Y+094920000D01*
X+128551999Y+094920000D02*
X+128551999Y+097080000D01*
X+128192000Y+097080000D02*
X+128912000Y+097080000D01*
X+130064000Y+094920000D02*
X+130784000Y+094920000D01*
X+130784000Y+094920000D02*
X+131144000Y+095280000D01*
X+131144000Y+095280000D02*
X+131144000Y+096720000D01*
X+131144000Y+096720000D02*
X+130784000Y+097080000D01*
X+130784000Y+097080000D02*
X+130064000Y+097080000D01*
X+130064000Y+097080000D02*
X+129704000Y+096720000D01*
X+129704000Y+096720000D02*
X+129704000Y+095280000D01*
X+129704000Y+095280000D02*
X+130064000Y+094920000D01*
X+130064000Y+095280000D02*
X+130784000Y+096720000D01*
D10*
X+119408000Y+096120000D02*
X+119408000Y+098280000D01*
X+119408000Y+096120000D02*
X+120848000Y+096120000D01*
X+119408000Y+097200000D02*
X+120488000Y+097200000D01*
X+121280000Y+096120000D02*
X+121640000Y+098280000D01*
X+121640000Y+098280000D02*
X+122000000Y+097200000D01*
X+122000000Y+097200000D02*
X+122360000Y+098280000D01*
X+122360000Y+098280000D02*
X+122720000Y+096120000D01*
X+123152000Y+096120000D02*
X+123152000Y+098280000D01*
X+123152000Y+096120000D02*
X+123872000Y+096120000D01*
X+123872000Y+096120000D02*
X+124592000Y+096840000D01*
X+124592000Y+096840000D02*
X+124592000Y+097560000D01*
X+124592000Y+097560000D02*
X+123872000Y+098280000D01*
X+123872000Y+098280000D02*
X+123152000Y+098280000D01*
D10*
X+122000000Y+100000000D02*
X+126500000Y+100000000D01*
D10*
X+126500000Y+100000000D02*
X+125500000Y+099400000D01*
D10*
X+126500000Y+100000000D02*
X+125500000Y+100600000D01*
D10*
X+117950000Y+095950000D02*
X+119550000Y+095950000D01*
X+118750000Y+097550000D01*
X+117950000Y+095950000D01*
D10*
X+118045999Y+101810000D02*
X+117826000Y+101590000D01*
X+117826000Y+101590000D02*
X+117386000Y+101590000D01*
X+117386000Y+101590000D02*
X+117166000Y+101810000D01*
X+117166000Y+101810000D02*
X+117166000Y+102250000D01*
X+117166000Y+102250000D02*
X+118045999Y+102250000D01*
X+118045999Y+102250000D02*
X+118045999Y+102690000D01*
X+118045999Y+102690000D02*
X+117826000Y+102910000D01*
X+117826000Y+102910000D02*
X+117386000Y+102910000D01*
X+117386000Y+102910000D02*
X+117166000Y+102690000D01*
X+118530000Y+101590000D02*
X+118970000Y+101590000D01*
X+118750000Y+101590000D02*
X+118750000Y+102910000D01*
X+118530000Y+102910000D02*
X+118970000Y+102910000D01*
X+120333999Y+101810000D02*
X+120113999Y+101590000D01*
X+120113999Y+101590000D02*
X+119673999Y+101590000D01*
X+119673999Y+101590000D02*
X+119454000Y+101810000D01*
X+119454000Y+101810000D02*
X+119454000Y+102690000D01*
X+119454000Y+102690000D02*
X+119673999Y+102910000D01*
X+119673999Y+102910000D02*
X+120113999Y+102910000D01*
X+120113999Y+102910000D02*
X+120333999Y+102690000D01*
X+120333999Y+102690000D02*
X+120333999Y+102250000D01*
X+120333999Y+102250000D02*
X+119893999Y+102250000D01*
D10*
X+124545999Y+101810000D02*
X+124326000Y+101590000D01*
X+124326000Y+101590000D02*
X+123886000Y+101590000D01*
X+123886000Y+101590000D02*
X+123666000Y+101810000D01*
X+123666000Y+101810000D02*
X+123666000Y+102690000D01*
X+123666000Y+102690000D02*
X+123886000Y+102910000D01*
X+123886000Y+102910000D02*
X+124326000Y+102910000D01*
X+124326000Y+102910000D02*
X+124545999Y+102690000D01*
X+124545999Y+102690000D02*
X+124545999Y+102250000D01*
X+124545999Y+102250000D02*
X+124106000Y+102250000D01*
X+124810000Y+102910000D02*
X+124810000Y+101590000D01*
X+124810000Y+101590000D02*
X+125690000Y+102910000D01*
X+125690000Y+102910000D02*
X+125690000Y+101590000D01*
X+125954000Y+101590000D02*
X+125954000Y+102910000D01*
X+125954000Y+101590000D02*
X+126393999Y+101590000D01*
X+126393999Y+101590000D02*
X+126833999Y+102030000D01*
X+126833999Y+102030000D02*
X+126833999Y+102470000D01*
X+126833999Y+102470000D02*
X+126393999Y+102910000D01*
X+126393999Y+102910000D02*
X+125954000Y+102910000D01*
D10*
X+087712000Y+093660000D02*
X+087712000Y+095340000D01*
X+087712000Y+093660000D02*
X+088552000Y+093660000D01*
X+088552000Y+093660000D02*
X+088832000Y+093940000D01*
X+088832000Y+093940000D02*
X+088832000Y+094500000D01*
X+088832000Y+094500000D02*
X+088552000Y+094500000D01*
X+088552000Y+094500000D02*
X+087712000Y+094500000D01*
X+088272000Y+094500000D02*
X+088832000Y+095340000D01*
X+089448000Y+093940000D02*
X+089728000Y+093660000D01*
X+089728000Y+093660000D02*
X+089728000Y+095340000D01*
X+089448000Y+095340000D02*
X+090008000Y+095340000D01*
D10*
X+107712000Y+093660000D02*
X+107712000Y+095340000D01*
X+107712000Y+093660000D02*
X+108552000Y+093660000D01*
X+108552000Y+093660000D02*
X+108832000Y+093940000D01*
X+108832000Y+093940000D02*
X+108832000Y+094500000D01*
X+108832000Y+094500000D02*
X+108552000Y+094500000D01*
X+108552000Y+094500000D02*
X+107712000Y+094500000D01*
X+108272000Y+094500000D02*
X+108832000Y+095340000D01*
X+109168000Y+093940000D02*
X+109448000Y+093660000D01*
X+109448000Y+093660000D02*
X+110008000Y+093660000D01*
X+110008000Y+093660000D02*
X+110288000Y+093940000D01*
X+110288000Y+093940000D02*
X+110288000Y+094500000D01*
X+110288000Y+094500000D02*
X+109168000Y+095340000D01*
X+109168000Y+095340000D02*
X+110288000Y+095340000D01*
D10*
X+081712000Y+091660000D02*
X+081712000Y+093340000D01*
X+081712000Y+091660000D02*
X+082552000Y+091660000D01*
X+082552000Y+091660000D02*
X+082832000Y+091940000D01*
X+082832000Y+091940000D02*
X+082832000Y+092500000D01*
X+082832000Y+092500000D02*
X+082552000Y+092500000D01*
X+082552000Y+092500000D02*
X+081712000Y+092500000D01*
X+082272000Y+092500000D02*
X+082832000Y+093340000D01*
X+083168000Y+091940000D02*
X+083448000Y+091660000D01*
X+083448000Y+091660000D02*
X+084008000Y+091660000D01*
X+084008000Y+091660000D02*
X+084288000Y+091940000D01*
X+084288000Y+091940000D02*
X+084288000Y+092220000D01*
X+084288000Y+092220000D02*
X+083728000Y+092500000D01*
X+083728000Y+092500000D02*
X+084288000Y+092780000D01*
X+084288000Y+092780000D02*
X+084288000Y+093060000D01*
X+084288000Y+093060000D02*
X+084008000Y+093340000D01*
X+084008000Y+093340000D02*
X+083448000Y+093340000D01*
X+083448000Y+093340000D02*
X+083168000Y+093060000D01*
D10*
X+115712000Y+091660000D02*
X+115712000Y+093340000D01*
X+115712000Y+091660000D02*
X+116552000Y+091660000D01*
X+116552000Y+091660000D02*
X+116832000Y+091940000D01*
X+116832000Y+091940000D02*
X+116832000Y+092500000D01*
X+116832000Y+092500000D02*
X+116552000Y+092500000D01*
X+116552000Y+092500000D02*
X+115712000Y+092500000D01*
X+116272000Y+092500000D02*
X+116832000Y+093340000D01*
X+118008000Y+091660000D02*
X+117168000Y+092780000D01*
X+117168000Y+092780000D02*
X+118288000Y+092780000D01*
X+118288000Y+092780000D02*
X+118288000Y+091660000D01*
X+118288000Y+092780000D02*
X+118288000Y+093340000D01*
D10*
X+099832000Y+107940000D02*
X+099552000Y+107660000D01*
X+099552000Y+107660000D02*
X+098992000Y+107660000D01*
X+098992000Y+107660000D02*
X+098712000Y+107940000D01*
X+098712000Y+107940000D02*
X+098712000Y+109060000D01*
X+098712000Y+109060000D02*
X+098992000Y+109340000D01*
X+098992000Y+109340000D02*
X+099552000Y+109340000D01*
X+099552000Y+109340000D02*
X+099832000Y+109060000D01*
X+100448000Y+107940000D02*
X+100728000Y+107660000D01*
X+100728000Y+107660000D02*
X+100728000Y+109340000D01*
X+100448000Y+109340000D02*
X+101008000Y+109340000D01*
%ADD10C,0.150*%
D10*
X+087500000Y+100000000D02*
X+087462019Y+100434120D01*
X+087349231Y+100855050D01*
X+087165063Y+101250000D01*
X+086915111Y+101606969D01*
X+086606969Y+101915111D01*
X+086250000Y+102165063D01*
X+085855050Y+102349231D01*
X+085434120Y+102462019D01*
X+085000000Y+102500000D01*
X+084565879Y+102462019D01*
X+084144949Y+102349231D01*
X+083750000Y+102165063D01*
X+083393030Y+101915111D01*
X+083084888Y+101606969D01*
X+082834936Y+101250000D01*
X+082650768Y+100855050D01*
X+082537980Y+100434120D01*
X+082500000Y+100000000D01*
X+082537980Y+099565879D01*
X+082650768Y+099144949D01*
X+082834936Y+098750000D01*
X+083084888Y+098393030D01*
X+083393030Y+098084888D01*
X+083750000Y+097834936D01*
X+084144949Y+097650768D01*
X+084565879Y+097537980D01*
X+085000000Y+097500000D01*
X+085434120Y+097537980D01*
X+085855050Y+097650768D01*
X+086250000Y+097834936D01*
X+086606969Y+098084888D01*
X+086915111Y+098393030D01*
X+087165063Y+098750000D01*
X+087349231Y+099144949D01*
X+087462019Y+099565879D01*
X+087500000Y+100000000D01*
D10*
X+083712000Y+102360000D02*
X+083712000Y+104040000D01*
X+084832000Y+102360000D02*
X+084832000Y+104040000D01*
X+083712000Y+103200000D02*
X+084832000Y+103200000D01*
X+085448000Y+102640000D02*
X+085728000Y+102360000D01*
X+085728000Y+102360000D02*
X+085728000Y+104040000D01*
X+085448000Y+104040000D02*
X+086008000Y+104040000D01*
%ADD10C,0.150*%
D10*
X+117500000Y+100000000D02*
X+117462019Y+100434120D01*
X+117349231Y+100855050D01*
X+117165063Y+101250000D01*
X+116915111Y+101606969D01*
X+116606969Y+101915111D01*
X+116250000Y+102165063D01*
X+115855050Y+102349231D01*
X+115434120Y+102462019D01*
X+115000000Y+102500000D01*
X+114565879Y+102462019D01*
X+114144949Y+102349231D01*
X+113750000Y+102165063D01*
X+113393030Y+101915111D01*
X+113084888Y+101606969D01*
X+112834936Y+101250000D01*
X+112650768Y+100855050D01*
X+112537980Y+100434120D01*
X+112500000Y+100000000D01*
X+112537980Y+099565879D01*
X+112650768Y+099144949D01*
X+112834936Y+098750000D01*
X+113084888Y+098393030D01*
X+113393030Y+098084888D01*
X+113750000Y+097834936D01*
X+114144949Y+097650768D01*
X+114565879Y+097537980D01*
X+115000000Y+097500000D01*
X+115434120Y+097537980D01*
X+115855050Y+097650768D01*
X+116250000Y+097834936D01*
X+116606969Y+098084888D01*
X+116915111Y+098393030D01*
X+117165063Y+098750000D01*
X+117349231Y+099144949D01*
X+117462019Y+099565879D01*
X+117500000Y+100000000D01*
D10*
X+113712000Y+102360000D02*
X+113712000Y+104040000D01*
X+114832000Y+102360000D02*
X+114832000Y+104040000D01*
X+113712000Y+103200000D02*
X+114832000Y+103200000D01*
X+115168000Y+102640000D02*
X+115448000Y+102360000D01*
X+115448000Y+102360000D02*
X+116008000Y+102360000D01*
X+116008000Y+102360000D02*
X+116288000Y+102640000D01*
X+116288000Y+102640000D02*
X+116288000Y+103200000D01*
X+116288000Y+103200000D02*
X+115168000Y+104040000D01*
X+115168000Y+104040000D02*
X+116288000Y+104040000D01*
D10*
X+100000000Y+080000000D02*
X+100000000Y+077000000D01*
D10*
X+099200000Y+077700000D02*
X+100000000Y+076500000D01*
D10*
X+100800000Y+077700000D02*
X+100000000Y+076500000D01*
D10*
X+097408000Y+073920000D02*
X+097408000Y+076080000D01*
X+097408000Y+073920000D02*
X+098848000Y+073920000D01*
X+097408000Y+075000000D02*
X+098488000Y+075000000D01*
X+099280000Y+073920000D02*
X+099640000Y+076080000D01*
X+099640000Y+076080000D02*
X+100000000Y+075000000D01*
X+100000000Y+075000000D02*
X+100360000Y+076080000D01*
X+100360000Y+076080000D02*
X+100720000Y+073920000D01*
X+101152000Y+073920000D02*
X+101152000Y+076080000D01*
X+101152000Y+073920000D02*
X+101872000Y+073920000D01*
X+101872000Y+073920000D02*
X+102592000Y+074640000D01*
X+102592000Y+074640000D02*
X+102592000Y+075360000D01*
X+102592000Y+075360000D02*
X+101872000Y+076080000D01*
X+101872000Y+076080000D02*
X+101152000Y+076080000D01*
D10*
X+085240000Y+116920000D02*
X+085240000Y+119080000D01*
X+085240000Y+116920000D02*
X+085960000Y+116920000D01*
X+085960000Y+116920000D02*
X+086680000Y+117640000D01*
X+086680000Y+117640000D02*
X+086680000Y+118360000D01*
X+086680000Y+118360000D02*
X+085960000Y+119080000D01*
X+085960000Y+119080000D02*
X+085240000Y+119080000D01*
X+087112000Y+119080000D02*
X+087832000Y+116920000D01*
X+087832000Y+116920000D02*
X+088551999Y+119080000D01*
X+087472000Y+118000000D02*
X+088192000Y+118000000D01*
X+088984000Y+116920000D02*
X+088984000Y+119080000D01*
X+088984000Y+116920000D02*
X+090064000Y+116920000D01*
X+090064000Y+116920000D02*
X+090423999Y+117280000D01*
X+090423999Y+117280000D02*
X+090423999Y+118000000D01*
X+090423999Y+118000000D02*
X+090064000Y+118000000D01*
X+090064000Y+118000000D02*
X+088984000Y+118000000D01*
X+090856000Y+119080000D02*
X+091576000Y+116920000D01*
X+091576000Y+116920000D02*
X+092295999Y+119080000D01*
X+091216000Y+118000000D02*
X+091936000Y+118000000D01*
X+093088000Y+116920000D02*
X+093808000Y+116920000D01*
X+093808000Y+116920000D02*
X+094167999Y+117280000D01*
X+094167999Y+117280000D02*
X+094167999Y+118720000D01*
X+094167999Y+118720000D02*
X+093808000Y+119080000D01*
X+093808000Y+119080000D02*
X+093088000Y+119080000D01*
X+093088000Y+119080000D02*
X+092728000Y+118720000D01*
X+092728000Y+118720000D02*
X+092728000Y+117280000D01*
X+092728000Y+117280000D02*
X+093088000Y+116920000D01*
X+096472000Y+116920000D02*
X+096472000Y+118720000D01*
X+096472000Y+118720000D02*
X+096832000Y+119080000D01*
X+096832000Y+119080000D02*
X+097551999Y+119080000D01*
X+097551999Y+119080000D02*
X+097911999Y+118720000D01*
X+097911999Y+118720000D02*
X+097911999Y+116920000D01*
X+098344000Y+116920000D02*
X+098344000Y+119080000D01*
X+098344000Y+116920000D02*
X+099423999Y+116920000D01*
X+099423999Y+116920000D02*
X+099783999Y+117280000D01*
X+099783999Y+117280000D02*
X+099783999Y+118000000D01*
X+099783999Y+118000000D02*
X+099423999Y+118000000D01*
X+099423999Y+118000000D02*
X+098344000Y+118000000D01*
X+100216000Y+116920000D02*
X+100216000Y+119080000D01*
X+100216000Y+116920000D02*
X+101295999Y+116920000D01*
X+101295999Y+116920000D02*
X+101655999Y+117280000D01*
X+101655999Y+117280000D02*
X+101655999Y+118000000D01*
X+101655999Y+118000000D02*
X+101295999Y+118000000D01*
X+101295999Y+118000000D02*
X+100216000Y+118000000D01*
X+102088000Y+116920000D02*
X+102088000Y+119080000D01*
X+102088000Y+116920000D02*
X+103527999Y+116920000D01*
X+102088000Y+118000000D02*
X+103167999Y+118000000D01*
X+102088000Y+119080000D02*
X+103527999Y+119080000D01*
X+103960000Y+116920000D02*
X+103960000Y+119080000D01*
X+103960000Y+116920000D02*
X+105039999Y+116920000D01*
X+105039999Y+116920000D02*
X+105399999Y+117280000D01*
X+105399999Y+117280000D02*
X+105399999Y+118000000D01*
X+105399999Y+118000000D02*
X+105039999Y+118000000D01*
X+105039999Y+118000000D02*
X+103960000Y+118000000D01*
X+104680000Y+118000000D02*
X+105399999Y+119080000D01*
X+107704000Y+116920000D02*
X+107704000Y+119080000D01*
X+107704000Y+116920000D02*
X+108783999Y+116920000D01*
X+108783999Y+116920000D02*
X+109143999Y+117280000D01*
X+109143999Y+117280000D02*
X+109143999Y+118000000D01*
X+109143999Y+118000000D02*
X+108783999Y+118000000D01*
X+108783999Y+118000000D02*
X+107704000Y+118000000D01*
X+108423999Y+118000000D02*
X+109143999Y+119080000D01*
X+109936000Y+117280000D02*
X+110295999Y+116920000D01*
X+110295999Y+116920000D02*
X+110295999Y+119080000D01*
X+109936000Y+119080000D02*
X+110655999Y+119080000D01*
X+111808000Y+118720000D02*
X+111808000Y+119080000D01*
X+112167999Y+118720000D02*
X+112167999Y+119080000D01*
X+114759999Y+117280000D02*
X+114399999Y+116920000D01*
X+114399999Y+116920000D02*
X+113680000Y+116920000D01*
X+113680000Y+116920000D02*
X+113320000Y+117280000D01*
X+113320000Y+117280000D02*
X+113320000Y+118720000D01*
X+113320000Y+118720000D02*
X+113680000Y+119080000D01*
X+113680000Y+119080000D02*
X+114399999Y+119080000D01*
X+114399999Y+119080000D02*
X+114759999Y+118720000D01*
X+114759999Y+118720000D02*
X+114759999Y+118000000D01*
X+114759999Y+118000000D02*
X+113320000Y+118000000D01*
M02*
